{
  "accessors": [
    {
      "name": "Mesh1 Group1 com1 Model_1_positions",
      "componentType": 5126,
      "count": 916,
      "min": [
        8.39719009399414,
        2.6645399177815856e-15,
        -5.045740127563477
      ],
      "max": [
        48.496299743652344,
        1,
        15.353899955749512
      ],
      "type": "VEC3",
      "bufferView": 0,
      "byteOffset": 0
    },
    {
      "name": "Mesh1 Group1 com1 Model_1_normals",
      "componentType": 5126,
      "count": 916,
      "min": [
        -1,
        -1,
        -0.9994919896125793
      ],
      "max": [
        1,
        1,
        0.9994919896125793
      ],
      "type": "VEC3",
      "bufferView": 0,
      "byteOffset": 31080
    },
    {
      "name": "Mesh1 Group1 com1 Model_1_texcoords",
      "componentType": 5126,
      "count": 916,
      "min": [
        -32.22169876098633,
        -37.69020080566406
      ],
      "max": [
        32.256500244140625,
        1
      ],
      "type": "VEC2",
      "bufferView": 1,
      "byteOffset": 0
    },
    {
      "name": "Mesh1 Group1 com1 Model_1_0_indices",
      "componentType": 5123,
      "count": 1038,
      "min": [
        0
      ],
      "max": [
        891
      ],
      "type": "SCALAR",
      "bufferView": 2,
      "byteOffset": 0
    },
    {
      "name": "Mesh1 Group1 com1 Model_1_1_indices",
      "componentType": 5123,
      "count": 942,
      "min": [
        4
      ],
      "max": [
        915
      ],
      "type": "SCALAR",
      "bufferView": 2,
      "byteOffset": 2076
    },
    {
      "name": "Mesh6 com1 Model_1_positions",
      "componentType": 5126,
      "count": 934,
      "min": [
        11.247400283813477,
        3.930189845986233e-14,
        -52.993499755859375
      ],
      "max": [
        33.92890167236328,
        1,
        -14.303400039672852
      ],
      "type": "VEC3",
      "bufferView": 0,
      "byteOffset": 10992
    },
    {
      "name": "Mesh6 com1 Model_1_normals",
      "componentType": 5126,
      "count": 934,
      "min": [
        -0.9998070001602173,
        -1,
        -0.9951019883155823
      ],
      "max": [
        0.9998070001602173,
        1,
        0.9951019883155823
      ],
      "type": "VEC3",
      "bufferView": 0,
      "byteOffset": 42072
    },
    {
      "name": "Mesh6 com1 Model_1_texcoords",
      "componentType": 5126,
      "count": 934,
      "min": [
        -102.33599853515625,
        -87.9176025390625
      ],
      "max": [
        102.46700286865234,
        1
      ],
      "type": "VEC2",
      "bufferView": 1,
      "byteOffset": 7328
    },
    {
      "name": "Mesh6 com1 Model_1_0_indices",
      "componentType": 5123,
      "count": 957,
      "min": [
        21
      ],
      "max": [
        933
      ],
      "type": "SCALAR",
      "bufferView": 2,
      "byteOffset": 3960
    },
    {
      "name": "Mesh6 com1 Model_1_1_indices",
      "componentType": 5123,
      "count": 1053,
      "min": [
        0
      ],
      "max": [
        917
      ],
      "type": "SCALAR",
      "bufferView": 2,
      "byteOffset": 5876
    },
    {
      "name": "Mesh7 com1 Model_1_positions",
      "componentType": 5126,
      "count": 378,
      "min": [
        -36.80889892578125,
        0.75,
        15.524499893188477
      ],
      "max": [
        3.290210008621216,
        0.9375,
        35.92409896850586
      ],
      "type": "VEC3",
      "bufferView": 0,
      "byteOffset": 22200
    },
    {
      "name": "Mesh7 com1 Model_1_normals",
      "componentType": 5126,
      "count": 378,
      "min": [
        -0.9973009824752808,
        -1,
        -0.9994919896125793
      ],
      "max": [
        0.9973009824752808,
        1,
        0.9994919896125793
      ],
      "type": "VEC3",
      "bufferView": 0,
      "byteOffset": 53280
    },
    {
      "name": "Mesh7 com1 Model_1_texcoords",
      "componentType": 5126,
      "count": 378,
      "min": [
        -43.50469970703125,
        -19.399599075317383
      ],
      "max": [
        43.50469970703125,
        1
      ],
      "type": "VEC2",
      "bufferView": 1,
      "byteOffset": 14800
    },
    {
      "name": "Mesh7 com1 Model_1_0_indices",
      "componentType": 5123,
      "count": 774,
      "min": [
        0
      ],
      "max": [
        377
      ],
      "type": "SCALAR",
      "bufferView": 2,
      "byteOffset": 7984
    },
    {
      "name": "Mesh8 com1 Model_1_positions",
      "componentType": 5126,
      "count": 362,
      "min": [
        -40.214500427246094,
        0,
        -29.432600021362305
      ],
      "max": [
        -17.532899856567383,
        0.1875,
        9.257559776306152
      ],
      "type": "VEC3",
      "bufferView": 0,
      "byteOffset": 26736
    },
    {
      "name": "Mesh8 com1 Model_1_normals",
      "componentType": 5126,
      "count": 362,
      "min": [
        -0.9998070001602173,
        -1,
        -0.9951019883155823
      ],
      "max": [
        0.9998070001602173,
        1,
        0.9951019883155823
      ],
      "type": "VEC3",
      "bufferView": 0,
      "byteOffset": 57816
    },
    {
      "name": "Mesh8 com1 Model_1_texcoords",
      "componentType": 5126,
      "count": 362,
      "min": [
        -57.74639892578125,
        -64.35669708251953
      ],
      "max": [
        57.74639892578125,
        1
      ],
      "type": "VEC2",
      "bufferView": 1,
      "byteOffset": 17824
    },
    {
      "name": "Mesh8 com1 Model_1_0_indices",
      "componentType": 5123,
      "count": 726,
      "min": [
        0
      ],
      "max": [
        361
      ],
      "type": "SCALAR",
      "bufferView": 2,
      "byteOffset": 9532
    }
  ],
  "asset": {
    "generator": "obj2gltf",
    "version": "2.0"
  },
  "buffers": [
    {
      "name": "SnowShoes_R2",
      "byteLength": 93864,
      "uri": "data:application/octet-stream;base64,"
    }
  ],
  "bufferViews": [
    {
      "name": "bufferView_0",
      "buffer": 0,
      "byteLength": 62160,
      "byteOffset": 0,
      "byteStride": 12,
      "target": 34962
    },
    {
      "name": "bufferView_1",
      "buffer": 0,
      "byteLength": 20720,
      "byteOffset": 62160,
      "byteStride": 8,
      "target": 34962
    },
    {
      "name": "bufferView_2",
      "buffer": 0,
      "byteLength": 10984,
      "byteOffset": 82880,
      "target": 34963
    }
  ],
  "materials": [
    {
      "name": "_4",
      "pbrMetallicRoughness": {
        "baseColorFactor": [
          0.498039,
          0.247059,
          0.007843,
          1
        ],
        "metallicFactor": 0,
        "roughnessFactor": 1
      },
      "emissiveFactor": [
        0,
        0,
        0
      ],
      "alphaMode": "OPAQUE",
      "doubleSided": false
    },
    {
      "name": "_3",
      "pbrMetallicRoughness": {
        "baseColorFactor": [
          0.8,
          0.8,
          0.796078,
          1
        ],
        "metallicFactor": 0,
        "roughnessFactor": 1
      },
      "emissiveFactor": [
        0,
        0,
        0
      ],
      "alphaMode": "OPAQUE",
      "doubleSided": false
    },
    {
      "name": "_2",
      "pbrMetallicRoughness": {
        "baseColorFactor": [
          0.701961,
          0.701961,
          0.698039,
          1
        ],
        "metallicFactor": 0,
        "roughnessFactor": 1
      },
      "emissiveFactor": [
        0,
        0,
        0
      ],
      "alphaMode": "OPAQUE",
      "doubleSided": false
    }
  ],
  "meshes": [
    {
      "name": "Mesh1 Group1 com1 Model_1",
      "primitives": [
        {
          "attributes": {
            "POSITION": 0,
            "NORMAL": 1,
            "TEXCOORD_0": 2
          },
          "indices": 3,
          "material": 0,
          "mode": 4
        },
        {
          "attributes": {
            "POSITION": 0,
            "NORMAL": 1,
            "TEXCOORD_0": 2
          },
          "indices": 4,
          "material": 1,
          "mode": 4
        }
      ]
    },
    {
      "name": "Mesh6 com1 Model_1",
      "primitives": [
        {
          "attributes": {
            "POSITION": 5,
            "NORMAL": 6,
            "TEXCOORD_0": 7
          },
          "indices": 8,
          "material": 1,
          "mode": 4
        },
        {
          "attributes": {
            "POSITION": 5,
            "NORMAL": 6,
            "TEXCOORD_0": 7
          },
          "indices": 9,
          "material": 0,
          "mode": 4
        }
      ]
    },
    {
      "name": "Mesh7 com1 Model_1",
      "primitives": [
        {
          "attributes": {
            "POSITION": 10,
            "NORMAL": 11,
            "TEXCOORD_0": 12
          },
          "indices": 13,
          "material": 2,
          "mode": 4
        }
      ]
    },
    {
      "name": "Mesh8 com1 Model_1",
      "primitives": [
        {
          "attributes": {
            "POSITION": 14,
            "NORMAL": 15,
            "TEXCOORD_0": 16
          },
          "indices": 17,
          "material": 2,
          "mode": 4
        }
      ]
    }
  ],
  "nodes": [
    {
      "name": "Mesh1 Group1 com1 Model",
      "mesh": 0
    },
    {
      "name": "Mesh6 com1 Model",
      "mesh": 1
    },
    {
      "name": "Mesh7 com1 Model",
      "mesh": 2
    },
    {
      "name": "Mesh8 com1 Model",
      "mesh": 3
    }
  ],
  "scene": 0,
  "scenes": [
    {
      "nodes": [
        0,
        1,
        2,
        3
      ]
    }
  ]
}
