{
  "accessors": [
    {
      "name": "Model_snowwalk_Untitled.004-Mesh_positions",
      "componentType": 5126,
      "count": 2468,
      "min": [
        -0.1852319985628128,
        0.0026630000211298466,
        -0.4031769931316376
      ],
      "max": [
        0.1781339943408966,
        0.9481790065765381,
        0.4395560026168823
      ],
      "type": "VEC3",
      "bufferView": 0,
      "byteOffset": 0
    },
    {
      "name": "Model_snowwalk_Untitled.004-Mesh_normals",
      "componentType": 5126,
      "count": 2468,
      "min": [
        -0.9997000098228455,
        -1,
        -0.9945999979972839
      ],
      "max": [
        0.9994000196456909,
        1,
        0.9972000122070312
      ],
      "type": "VEC3",
      "bufferView": 0,
      "byteOffset": 29616
    },
    {
      "name": "Model_snowwalk_Untitled.004-Mesh_texcoords",
      "componentType": 5126,
      "count": 2468,
      "min": [
        0,
        -3
      ],
      "max": [
        2.3808000087738037,
        1
      ],
      "type": "VEC2",
      "bufferView": 1,
      "byteOffset": 0
    },
    {
      "name": "Model_snowwalk_Untitled.004-Mesh_0_indices",
      "componentType": 5123,
      "count": 1077,
      "min": [
        0
      ],
      "max": [
        719
      ],
      "type": "SCALAR",
      "bufferView": 2,
      "byteOffset": 0
    },
    {
      "name": "Model_snowwalk_Untitled.004-Mesh_1_indices",
      "componentType": 5123,
      "count": 384,
      "min": [
        720
      ],
      "max": [
        975
      ],
      "type": "SCALAR",
      "bufferView": 2,
      "byteOffset": 2156
    },
    {
      "name": "Model_snowwalk_Untitled.004-Mesh_2_indices",
      "componentType": 5123,
      "count": 348,
      "min": [
        976
      ],
      "max": [
        1207
      ],
      "type": "SCALAR",
      "bufferView": 2,
      "byteOffset": 2924
    },
    {
      "name": "Model_snowwalk_Untitled.004-Mesh_3_indices",
      "componentType": 5123,
      "count": 894,
      "min": [
        1208
      ],
      "max": [
        1803
      ],
      "type": "SCALAR",
      "bufferView": 2,
      "byteOffset": 3620
    },
    {
      "name": "Model_snowwalk_Untitled.004-Mesh_4_indices",
      "componentType": 5123,
      "count": 564,
      "min": [
        1804
      ],
      "max": [
        2179
      ],
      "type": "SCALAR",
      "bufferView": 2,
      "byteOffset": 5408
    },
    {
      "name": "Model_snowwalk_Untitled.004-Mesh_5_indices",
      "componentType": 5123,
      "count": 168,
      "min": [
        2180
      ],
      "max": [
        2291
      ],
      "type": "SCALAR",
      "bufferView": 2,
      "byteOffset": 6536
    },
    {
      "name": "Model_snowwalk_Untitled.004-Mesh_6_indices",
      "componentType": 5123,
      "count": 264,
      "min": [
        2292
      ],
      "max": [
        2467
      ],
      "type": "SCALAR",
      "bufferView": 2,
      "byteOffset": 6872
    }
  ],
  "asset": {
    "generator": "obj2gltf",
    "version": "2.0"
  },
  "buffers": [
    {
      "name": "SnowWalk_R2",
      "byteLength": 86376,
      "uri": "data:application/octet-stream;base64,"
    }
  ],
  "bufferViews": [
    {
      "name": "bufferView_0",
      "buffer": 0,
      "byteLength": 59232,
      "byteOffset": 0,
      "byteStride": 12,
      "target": 34962
    },
    {
      "name": "bufferView_1",
      "buffer": 0,
      "byteLength": 19744,
      "byteOffset": 59232,
      "byteStride": 8,
      "target": 34962
    },
    {
      "name": "bufferView_2",
      "buffer": 0,
      "byteLength": 7400,
      "byteOffset": 78976,
      "target": 34963
    }
  ],
  "materials": [
    {
      "name": "material_1.002",
      "pbrMetallicRoughness": {
        "baseColorFactor": [
          0.072157,
          0.119216,
          0.128627,
          1
        ],
        "metallicFactor": 0,
        "roughnessFactor": 0.980392157
      },
      "emissiveFactor": [
        0,
        0,
        0
      ],
      "alphaMode": "OPAQUE",
      "doubleSided": false
    },
    {
      "name": "material_2.002",
      "pbrMetallicRoughness": {
        "baseColorFactor": [
          0.175686,
          0.28549,
          0.301177,
          1
        ],
        "metallicFactor": 0,
        "roughnessFactor": 0.980392157
      },
      "emissiveFactor": [
        0,
        0,
        0
      ],
      "alphaMode": "OPAQUE",
      "doubleSided": false
    },
    {
      "name": "07_-_Default.004",
      "pbrMetallicRoughness": {
        "baseColorFactor": [
          0.09098,
          0.103529,
          0.150588,
          1
        ],
        "metallicFactor": 0,
        "roughnessFactor": 0.980392157
      },
      "emissiveFactor": [
        0,
        0,
        0
      ],
      "alphaMode": "OPAQUE",
      "doubleSided": false
    },
    {
      "name": "08_-_Default.004",
      "pbrMetallicRoughness": {
        "baseColorFactor": [
          0.577255,
          0.451765,
          0.367059,
          1
        ],
        "metallicFactor": 0,
        "roughnessFactor": 0.980392157
      },
      "emissiveFactor": [
        0,
        0,
        0
      ],
      "alphaMode": "OPAQUE",
      "doubleSided": false
    },
    {
      "name": "09_-_Default.003",
      "pbrMetallicRoughness": {
        "baseColorFactor": [
          0.065882,
          0.047059,
          0.043922,
          1
        ],
        "metallicFactor": 0,
        "roughnessFactor": 0.980392157
      },
      "emissiveFactor": [
        0,
        0,
        0
      ],
      "alphaMode": "OPAQUE",
      "doubleSided": false
    },
    {
      "name": "13_-_Default.003",
      "pbrMetallicRoughness": {
        "baseColorFactor": [
          0.263529,
          0.473726,
          0.517647,
          1
        ],
        "metallicFactor": 0,
        "roughnessFactor": 0.980392157
      },
      "emissiveFactor": [
        0,
        0,
        0
      ],
      "alphaMode": "OPAQUE",
      "doubleSided": false
    },
    {
      "name": "14_-_Default.003",
      "pbrMetallicRoughness": {
        "baseColorFactor": [
          0.047059,
          0.009412,
          0.009412,
          1
        ],
        "metallicFactor": 0,
        "roughnessFactor": 0.980392157
      },
      "emissiveFactor": [
        0,
        0,
        0
      ],
      "alphaMode": "OPAQUE",
      "doubleSided": false
    }
  ],
  "meshes": [
    {
      "name": "Model_snowwalk_Untitled.004-Mesh",
      "primitives": [
        {
          "attributes": {
            "POSITION": 0,
            "NORMAL": 1,
            "TEXCOORD_0": 2
          },
          "indices": 3,
          "material": 0,
          "mode": 4
        },
        {
          "attributes": {
            "POSITION": 0,
            "NORMAL": 1,
            "TEXCOORD_0": 2
          },
          "indices": 4,
          "material": 1,
          "mode": 4
        },
        {
          "attributes": {
            "POSITION": 0,
            "NORMAL": 1,
            "TEXCOORD_0": 2
          },
          "indices": 5,
          "material": 2,
          "mode": 4
        },
        {
          "attributes": {
            "POSITION": 0,
            "NORMAL": 1,
            "TEXCOORD_0": 2
          },
          "indices": 6,
          "material": 3,
          "mode": 4
        },
        {
          "attributes": {
            "POSITION": 0,
            "NORMAL": 1,
            "TEXCOORD_0": 2
          },
          "indices": 7,
          "material": 4,
          "mode": 4
        },
        {
          "attributes": {
            "POSITION": 0,
            "NORMAL": 1,
            "TEXCOORD_0": 2
          },
          "indices": 8,
          "material": 5,
          "mode": 4
        },
        {
          "attributes": {
            "POSITION": 0,
            "NORMAL": 1,
            "TEXCOORD_0": 2
          },
          "indices": 9,
          "material": 6,
          "mode": 4
        }
      ]
    }
  ],
  "nodes": [
    {
      "name": "Model_snowwalk_Untitled.004",
      "mesh": 0
    }
  ],
  "scene": 0,
  "scenes": [
    {
      "nodes": [
        0
      ]
    }
  ]
}
