{
  "accessors": [
    {
      "name": "Model_padlesurf_Untitled.002-Mesh_positions",
      "componentType": 5126,
      "count": 2388,
      "min": [
        -0.25671398639678955,
        -0.15640400350093842,
        -0.59791499376297
      ],
      "max": [
        0.5727360248565674,
        1.086907982826233,
        1.0650399923324585
      ],
      "type": "VEC3",
      "bufferView": 0,
      "byteOffset": 0
    },
    {
      "name": "Model_padlesurf_Untitled.002-Mesh_normals",
      "componentType": 5126,
      "count": 2388,
      "min": [
        -0.9998999834060669,
        -0.9991000294685364,
        -0.9925000071525574
      ],
      "max": [
        1,
        0.9997000098228455,
        0.9973000288009644
      ],
      "type": "VEC3",
      "bufferView": 0,
      "byteOffset": 28656
    },
    {
      "name": "Model_padlesurf_Untitled.002-Mesh_texcoords",
      "componentType": 5126,
      "count": 2388,
      "min": [
        0,
        -3
      ],
      "max": [
        2.3808000087738037,
        1
      ],
      "type": "VEC2",
      "bufferView": 1,
      "byteOffset": 0
    },
    {
      "name": "Model_padlesurf_Untitled.002-Mesh_0_indices",
      "componentType": 5123,
      "count": 708,
      "min": [
        0
      ],
      "max": [
        461
      ],
      "type": "SCALAR",
      "bufferView": 2,
      "byteOffset": 0
    },
    {
      "name": "Model_padlesurf_Untitled.002-Mesh_1_indices",
      "componentType": 5123,
      "count": 2172,
      "min": [
        462
      ],
      "max": [
        1907
      ],
      "type": "SCALAR",
      "bufferView": 2,
      "byteOffset": 1416
    },
    {
      "name": "Model_padlesurf_Untitled.002-Mesh_2_indices",
      "componentType": 5123,
      "count": 516,
      "min": [
        1908
      ],
      "max": [
        2251
      ],
      "type": "SCALAR",
      "bufferView": 2,
      "byteOffset": 5760
    },
    {
      "name": "Model_padlesurf_Untitled.002-Mesh_3_indices",
      "componentType": 5123,
      "count": 204,
      "min": [
        2252
      ],
      "max": [
        2387
      ],
      "type": "SCALAR",
      "bufferView": 2,
      "byteOffset": 6792
    }
  ],
  "asset": {
    "generator": "obj2gltf",
    "version": "2.0"
  },
  "buffers": [
    {
      "name": "PaddleBoard_R2",
      "byteLength": 83616,
      "uri": "data:application/octet-stream;base64,"
    }
  ],
  "bufferViews": [
    {
      "name": "bufferView_0",
      "buffer": 0,
      "byteLength": 57312,
      "byteOffset": 0,
      "byteStride": 12,
      "target": 34962
    },
    {
      "name": "bufferView_1",
      "buffer": 0,
      "byteLength": 19104,
      "byteOffset": 57312,
      "byteStride": 8,
      "target": 34962
    },
    {
      "name": "bufferView_2",
      "buffer": 0,
      "byteLength": 7200,
      "byteOffset": 76416,
      "target": 34963
    }
  ],
  "materials": [
    {
      "name": "material_01",
      "pbrMetallicRoughness": {
        "baseColorFactor": [
          0.724706,
          0.260392,
          0.116078,
          1
        ],
        "metallicFactor": 0,
        "roughnessFactor": 0.980392157
      },
      "emissiveFactor": [
        0,
        0,
        0
      ],
      "alphaMode": "OPAQUE",
      "doubleSided": false
    },
    {
      "name": "material_02.002",
      "pbrMetallicRoughness": {
        "baseColorFactor": [
          0.712157,
          0.555294,
          0.51451,
          1
        ],
        "metallicFactor": 0,
        "roughnessFactor": 0.980392157
      },
      "emissiveFactor": [
        0,
        0,
        0
      ],
      "alphaMode": "OPAQUE",
      "doubleSided": false
    },
    {
      "name": "07_-_Default.002",
      "pbrMetallicRoughness": {
        "baseColorFactor": [
          0.094118,
          0.172549,
          0.345098,
          1
        ],
        "metallicFactor": 0,
        "roughnessFactor": 0.980392157
      },
      "emissiveFactor": [
        0,
        0,
        0
      ],
      "alphaMode": "OPAQUE",
      "doubleSided": false
    },
    {
      "name": "08_-_Default.002",
      "pbrMetallicRoughness": {
        "baseColorFactor": [
          0.536471,
          0.661961,
          0.661961,
          1
        ],
        "metallicFactor": 0,
        "roughnessFactor": 0.980392157
      },
      "emissiveFactor": [
        0,
        0,
        0
      ],
      "alphaMode": "OPAQUE",
      "doubleSided": false
    }
  ],
  "meshes": [
    {
      "name": "Model_padlesurf_Untitled.002-Mesh",
      "primitives": [
        {
          "attributes": {
            "POSITION": 0,
            "NORMAL": 1,
            "TEXCOORD_0": 2
          },
          "indices": 3,
          "material": 0,
          "mode": 4
        },
        {
          "attributes": {
            "POSITION": 0,
            "NORMAL": 1,
            "TEXCOORD_0": 2
          },
          "indices": 4,
          "material": 1,
          "mode": 4
        },
        {
          "attributes": {
            "POSITION": 0,
            "NORMAL": 1,
            "TEXCOORD_0": 2
          },
          "indices": 5,
          "material": 2,
          "mode": 4
        },
        {
          "attributes": {
            "POSITION": 0,
            "NORMAL": 1,
            "TEXCOORD_0": 2
          },
          "indices": 6,
          "material": 3,
          "mode": 4
        }
      ]
    }
  ],
  "nodes": [
    {
      "name": "Model_padlesurf_Untitled.002",
      "mesh": 0
    }
  ],
  "scene": 0,
  "scenes": [
    {
      "nodes": [
        0
      ]
    }
  ]
}
