{
  "accessors": [
    {
      "name": "Chair.001_mesh268154718.001-Mesh_positions",
      "componentType": 5126,
      "count": 1266,
      "min": [
        256.6241149902344,
        497.4845275878906,
        311.66754150390625
      ],
      "max": [
        370.2880859375,
        619.4052124023438,
        431.1656494140625
      ],
      "type": "VEC3",
      "bufferView": 0,
      "byteOffset": 0
    },
    {
      "name": "Chair.001_mesh268154718.001-Mesh_normals",
      "componentType": 5126,
      "count": 1266,
      "min": [
        -0.9477999806404114,
        -0.9524000287055969,
        -0.9775000214576721
      ],
      "max": [
        0.9485999941825867,
        1,
        1
      ],
      "type": "VEC3",
      "bufferView": 0,
      "byteOffset": 42204
    },
    {
      "name": "Chair.001_mesh268154718.001-Mesh_texcoords",
      "componentType": 5126,
      "count": 1266,
      "min": [
        -0.3361999988555908,
        0.7936000227928162
      ],
      "max": [
        0.3359000086784363,
        1.4074000120162964
      ],
      "type": "VEC2",
      "bufferView": 1,
      "byteOffset": 0
    },
    {
      "name": "Chair.001_mesh268154718.001-Mesh_0_indices",
      "componentType": 5123,
      "count": 1770,
      "min": [
        0
      ],
      "max": [
        1265
      ],
      "type": "SCALAR",
      "bufferView": 2,
      "byteOffset": 0
    },
    {
      "name": "Chair_mesh268154718-Mesh_positions",
      "componentType": 5126,
      "count": 993,
      "min": [
        60.90805435180664,
        497.4845275878906,
        405.5025634765625
      ],
      "max": [
        189.66152954101562,
        619.4052124023438,
        530.84912109375
      ],
      "type": "VEC3",
      "bufferView": 0,
      "byteOffset": 15192
    },
    {
      "name": "Chair_mesh268154718-Mesh_normals",
      "componentType": 5126,
      "count": 993,
      "min": [
        -0.9865000247955322,
        -1,
        -0.9779999852180481
      ],
      "max": [
        0.9860000014305115,
        1,
        1
      ],
      "type": "VEC3",
      "bufferView": 0,
      "byteOffset": 57396
    },
    {
      "name": "Chair_mesh268154718-Mesh_texcoords",
      "componentType": 5126,
      "count": 993,
      "min": [
        -0.3361999988555908,
        0.7936000227928162
      ],
      "max": [
        0.3359000086784363,
        1.4074000120162964
      ],
      "type": "VEC2",
      "bufferView": 1,
      "byteOffset": 10128
    },
    {
      "name": "Chair_mesh268154718-Mesh_0_indices",
      "componentType": 5123,
      "count": 1362,
      "min": [
        0
      ],
      "max": [
        992
      ],
      "type": "SCALAR",
      "bufferView": 2,
      "byteOffset": 3540
    },
    {
      "name": "Mesh6_PR1_Model-Mesh_positions",
      "componentType": 5126,
      "count": 12,
      "min": [
        -425.1300048828125,
        1303.0499267578125,
        199.34521484375
      ],
      "max": [
        37.260501861572266,
        1523.889892578125,
        647.5091552734375
      ],
      "type": "VEC3",
      "bufferView": 0,
      "byteOffset": 27108
    },
    {
      "name": "Mesh6_PR1_Model-Mesh_normals",
      "componentType": 5126,
      "count": 12,
      "min": [
        -0.7172999978065491,
        -0.6349999904632568,
        -0.7378000020980835
      ],
      "max": [
        0.29510000348091125,
        0.6349999904632568,
        0.7378000020980835
      ],
      "type": "VEC3",
      "bufferView": 0,
      "byteOffset": 69312
    },
    {
      "name": "Mesh6_PR1_Model-Mesh_texcoords",
      "componentType": 5126,
      "count": 12,
      "min": [
        -1300.3199462890625,
        -1886.6700439453125
      ],
      "max": [
        1300.3199462890625,
        -180.0290069580078
      ],
      "type": "VEC2",
      "bufferView": 1,
      "byteOffset": 18072
    },
    {
      "name": "Mesh6_PR1_Model-Mesh_0_indices",
      "componentType": 5123,
      "count": 3,
      "min": [
        0
      ],
      "max": [
        2
      ],
      "type": "SCALAR",
      "bufferView": 2,
      "byteOffset": 6264
    },
    {
      "name": "Mesh6_PR1_Model-Mesh_1_indices",
      "componentType": 5123,
      "count": 9,
      "min": [
        3
      ],
      "max": [
        11
      ],
      "type": "SCALAR",
      "bufferView": 2,
      "byteOffset": 6272
    },
    {
      "name": "Mesh5_PR1_Model-Mesh_positions",
      "componentType": 5126,
      "count": 1221,
      "min": [
        -1168.1700439453125,
        -0.00015799999528098851,
        -1096.5299072265625
      ],
      "max": [
        1231.0799560546875,
        1214.4700927734375,
        981.1531372070312
      ],
      "type": "VEC3",
      "bufferView": 0,
      "byteOffset": 27252
    },
    {
      "name": "Mesh5_PR1_Model-Mesh_normals",
      "componentType": 5126,
      "count": 1221,
      "min": [
        -0.9284999966621399,
        -1,
        -0.9444000124931335
      ],
      "max": [
        0.9284999966621399,
        1,
        0.9422000050544739
      ],
      "type": "VEC3",
      "bufferView": 0,
      "byteOffset": 69456
    },
    {
      "name": "Mesh5_PR1_Model-Mesh_texcoords",
      "componentType": 5126,
      "count": 1221,
      "min": [
        -2514.25,
        -2076.68994140625
      ],
      "max": [
        2514.25,
        1999.550048828125
      ],
      "type": "VEC2",
      "bufferView": 1,
      "byteOffset": 18168
    },
    {
      "name": "Mesh5_PR1_Model-Mesh_0_indices",
      "componentType": 5123,
      "count": 177,
      "min": [
        0
      ],
      "max": [
        129
      ],
      "type": "SCALAR",
      "bufferView": 2,
      "byteOffset": 6292
    },
    {
      "name": "Mesh5_PR1_Model-Mesh_1_indices",
      "componentType": 5123,
      "count": 18,
      "min": [
        75
      ],
      "max": [
        143
      ],
      "type": "SCALAR",
      "bufferView": 2,
      "byteOffset": 6648
    },
    {
      "name": "Mesh5_PR1_Model-Mesh_2_indices",
      "componentType": 5123,
      "count": 9,
      "min": [
        144
      ],
      "max": [
        149
      ],
      "type": "SCALAR",
      "bufferView": 2,
      "byteOffset": 6684
    },
    {
      "name": "Mesh5_PR1_Model-Mesh_3_indices",
      "componentType": 5123,
      "count": 759,
      "min": [
        141
      ],
      "max": [
        589
      ],
      "type": "SCALAR",
      "bufferView": 2,
      "byteOffset": 6704
    },
    {
      "name": "Mesh5_PR1_Model-Mesh_4_indices",
      "componentType": 5123,
      "count": 12,
      "min": [
        57
      ],
      "max": [
        599
      ],
      "type": "SCALAR",
      "bufferView": 2,
      "byteOffset": 8224
    },
    {
      "name": "Mesh5_PR1_Model-Mesh_5_indices",
      "componentType": 5123,
      "count": 846,
      "min": [
        600
      ],
      "max": [
        1104
      ],
      "type": "SCALAR",
      "bufferView": 2,
      "byteOffset": 8248
    },
    {
      "name": "Mesh5_PR1_Model-Mesh_6_indices",
      "componentType": 5123,
      "count": 246,
      "min": [
        140
      ],
      "max": [
        1220
      ],
      "type": "SCALAR",
      "bufferView": 2,
      "byteOffset": 9940
    },
    {
      "name": "Mesh4_PR1_Model-Mesh_positions",
      "componentType": 5126,
      "count": 25,
      "min": [
        -405.25299072265625,
        975.7528686523438,
        221.27117919921875
      ],
      "max": [
        13.126299858093262,
        1316.9599609375,
        611.8252563476562
      ],
      "type": "VEC3",
      "bufferView": 0,
      "byteOffset": 41904
    },
    {
      "name": "Mesh4_PR1_Model-Mesh_normals",
      "componentType": 5126,
      "count": 25,
      "min": [
        -0.9284999966621399,
        0,
        -0.9284999966621399
      ],
      "max": [
        0.9284999966621399,
        0,
        0.9284999966621399
      ],
      "type": "VEC3",
      "bufferView": 0,
      "byteOffset": 84108
    },
    {
      "name": "Mesh4_PR1_Model-Mesh_texcoords",
      "componentType": 5126,
      "count": 25,
      "min": [
        -1287.449951171875,
        -1315.9599609375
      ],
      "max": [
        1287.449951171875,
        -974.7529907226562
      ],
      "type": "VEC2",
      "bufferView": 1,
      "byteOffset": 27936
    },
    {
      "name": "Mesh4_PR1_Model-Mesh_0_indices",
      "componentType": 5123,
      "count": 3,
      "min": [
        0
      ],
      "max": [
        2
      ],
      "type": "SCALAR",
      "bufferView": 2,
      "byteOffset": 10432
    },
    {
      "name": "Mesh4_PR1_Model-Mesh_1_indices",
      "componentType": 5123,
      "count": 9,
      "min": [
        3
      ],
      "max": [
        8
      ],
      "type": "SCALAR",
      "bufferView": 2,
      "byteOffset": 10440
    },
    {
      "name": "Mesh4_PR1_Model-Mesh_2_indices",
      "componentType": 5123,
      "count": 12,
      "min": [
        9
      ],
      "max": [
        16
      ],
      "type": "SCALAR",
      "bufferView": 2,
      "byteOffset": 10460
    },
    {
      "name": "Mesh4_PR1_Model-Mesh_3_indices",
      "componentType": 5123,
      "count": 12,
      "min": [
        17
      ],
      "max": [
        24
      ],
      "type": "SCALAR",
      "bufferView": 2,
      "byteOffset": 10484
    }
  ],
  "asset": {
    "generator": "obj2gltf",
    "version": "2.0"
  },
  "buffers": [
    {
      "name": "AlanPorch_v2",
      "byteLength": 123052,
      "uri": "data:application/octet-stream;base64,"
    }
  ],
  "bufferViews": [
    {
      "name": "bufferView_0",
      "buffer": 0,
      "byteLength": 84408,
      "byteOffset": 0,
      "byteStride": 12,
      "target": 34962
    },
    {
      "name": "bufferView_1",
      "buffer": 0,
      "byteLength": 28136,
      "byteOffset": 84408,
      "byteStride": 8,
      "target": 34962
    },
    {
      "name": "bufferView_2",
      "buffer": 0,
      "byteLength": 10508,
      "byteOffset": 112544,
      "target": 34963
    }
  ],
  "materials": [
    {
      "name": "mat20",
      "pbrMetallicRoughness": {
        "baseColorFactor": [
          0.47,
          0.33,
          0.28,
          1
        ],
        "metallicFactor": 0,
        "roughnessFactor": 0.903921569
      },
      "emissiveFactor": [
        0,
        0,
        0
      ],
      "alphaMode": "OPAQUE",
      "doubleSided": false
    },
    {
      "name": "RED",
      "pbrMetallicRoughness": {
        "baseColorFactor": [
          0.662745,
          0.278431,
          0.117647,
          1
        ],
        "metallicFactor": 0,
        "roughnessFactor": 0.903921569
      },
      "emissiveFactor": [
        0,
        0,
        0
      ],
      "alphaMode": "OPAQUE",
      "doubleSided": false
    },
    {
      "name": "_2",
      "pbrMetallicRoughness": {
        "baseColorFactor": [
          0.117647,
          0.117647,
          0.117647,
          1
        ],
        "metallicFactor": 0,
        "roughnessFactor": 0.903921569
      },
      "emissiveFactor": [
        0,
        0,
        0
      ],
      "alphaMode": "OPAQUE",
      "doubleSided": false
    },
    {
      "name": "BackColor",
      "pbrMetallicRoughness": {
        "baseColorFactor": [
          0.643137,
          0.698039,
          0.733333,
          1
        ],
        "metallicFactor": 0,
        "roughnessFactor": 0.903921569
      },
      "emissiveFactor": [
        0,
        0,
        0
      ],
      "alphaMode": "OPAQUE",
      "doubleSided": false
    },
    {
      "name": "FrontColor",
      "pbrMetallicRoughness": {
        "baseColorFactor": [
          1,
          1,
          1,
          1
        ],
        "metallicFactor": 0,
        "roughnessFactor": 0.903921569
      },
      "emissiveFactor": [
        0,
        0,
        0
      ],
      "alphaMode": "OPAQUE",
      "doubleSided": false
    },
    {
      "name": "TAN",
      "pbrMetallicRoughness": {
        "baseColorFactor": [
          1,
          0.898039,
          0.8,
          1
        ],
        "metallicFactor": 0,
        "roughnessFactor": 0.903921569
      },
      "emissiveFactor": [
        0,
        0,
        0
      ],
      "alphaMode": "OPAQUE",
      "doubleSided": false
    },
    {
      "name": "Stacy_Hair",
      "pbrMetallicRoughness": {
        "baseColorFactor": [
          0.141176,
          0.07451,
          0.027451,
          1
        ],
        "metallicFactor": 0,
        "roughnessFactor": 0.903921569
      },
      "emissiveFactor": [
        0,
        0,
        0
      ],
      "alphaMode": "OPAQUE",
      "doubleSided": false
    },
    {
      "name": "Color_C08",
      "pbrMetallicRoughness": {
        "baseColorFactor": [
          0.4,
          0.2,
          0,
          1
        ],
        "metallicFactor": 0,
        "roughnessFactor": 0.903921569
      },
      "emissiveFactor": [
        0,
        0,
        0
      ],
      "alphaMode": "OPAQUE",
      "doubleSided": false
    },
    {
      "name": "GREEN",
      "pbrMetallicRoughness": {
        "baseColorFactor": [
          0.45098,
          0.647059,
          0.498039,
          1
        ],
        "metallicFactor": 0,
        "roughnessFactor": 0.903921569
      },
      "emissiveFactor": [
        0,
        0,
        0
      ],
      "alphaMode": "OPAQUE",
      "doubleSided": false
    },
    {
      "name": "Color_C07",
      "pbrMetallicRoughness": {
        "baseColorFactor": [
          0.6,
          0.298039,
          0,
          1
        ],
        "metallicFactor": 0,
        "roughnessFactor": 0.903921569
      },
      "emissiveFactor": [
        0,
        0,
        0
      ],
      "alphaMode": "OPAQUE",
      "doubleSided": false
    }
  ],
  "meshes": [
    {
      "name": "Chair.001_mesh268154718.001-Mesh",
      "primitives": [
        {
          "attributes": {
            "POSITION": 0,
            "NORMAL": 1,
            "TEXCOORD_0": 2
          },
          "indices": 3,
          "material": 0,
          "mode": 4
        }
      ]
    },
    {
      "name": "Chair_mesh268154718-Mesh",
      "primitives": [
        {
          "attributes": {
            "POSITION": 4,
            "NORMAL": 5,
            "TEXCOORD_0": 6
          },
          "indices": 7,
          "material": 0,
          "mode": 4
        }
      ]
    },
    {
      "name": "Mesh6_PR1_Model-Mesh",
      "primitives": [
        {
          "attributes": {
            "POSITION": 8,
            "NORMAL": 9,
            "TEXCOORD_0": 10
          },
          "indices": 11,
          "material": 1,
          "mode": 4
        },
        {
          "attributes": {
            "POSITION": 8,
            "NORMAL": 9,
            "TEXCOORD_0": 10
          },
          "indices": 12,
          "material": 2,
          "mode": 4
        }
      ]
    },
    {
      "name": "Mesh5_PR1_Model-Mesh",
      "primitives": [
        {
          "attributes": {
            "POSITION": 13,
            "NORMAL": 14,
            "TEXCOORD_0": 15
          },
          "indices": 16,
          "material": 2,
          "mode": 4
        },
        {
          "attributes": {
            "POSITION": 13,
            "NORMAL": 14,
            "TEXCOORD_0": 15
          },
          "indices": 17,
          "material": 3,
          "mode": 4
        },
        {
          "attributes": {
            "POSITION": 13,
            "NORMAL": 14,
            "TEXCOORD_0": 15
          },
          "indices": 18,
          "material": 4,
          "mode": 4
        },
        {
          "attributes": {
            "POSITION": 13,
            "NORMAL": 14,
            "TEXCOORD_0": 15
          },
          "indices": 19,
          "material": 5,
          "mode": 4
        },
        {
          "attributes": {
            "POSITION": 13,
            "NORMAL": 14,
            "TEXCOORD_0": 15
          },
          "indices": 20,
          "material": 6,
          "mode": 4
        },
        {
          "attributes": {
            "POSITION": 13,
            "NORMAL": 14,
            "TEXCOORD_0": 15
          },
          "indices": 21,
          "material": 7,
          "mode": 4
        },
        {
          "attributes": {
            "POSITION": 13,
            "NORMAL": 14,
            "TEXCOORD_0": 15
          },
          "indices": 22,
          "material": 8,
          "mode": 4
        }
      ]
    },
    {
      "name": "Mesh4_PR1_Model-Mesh",
      "primitives": [
        {
          "attributes": {
            "POSITION": 23,
            "NORMAL": 24,
            "TEXCOORD_0": 25
          },
          "indices": 26,
          "material": 5,
          "mode": 4
        },
        {
          "attributes": {
            "POSITION": 23,
            "NORMAL": 24,
            "TEXCOORD_0": 25
          },
          "indices": 27,
          "material": 3,
          "mode": 4
        },
        {
          "attributes": {
            "POSITION": 23,
            "NORMAL": 24,
            "TEXCOORD_0": 25
          },
          "indices": 28,
          "material": 9,
          "mode": 4
        },
        {
          "attributes": {
            "POSITION": 23,
            "NORMAL": 24,
            "TEXCOORD_0": 25
          },
          "indices": 29,
          "material": 7,
          "mode": 4
        }
      ]
    }
  ],
  "nodes": [
    {
      "name": "Chair.001_mesh268154718.001",
      "mesh": 0
    },
    {
      "name": "Chair_mesh268154718",
      "mesh": 1
    },
    {
      "name": "Mesh6_PR1_Model",
      "mesh": 2
    },
    {
      "name": "Mesh5_PR1_Model",
      "mesh": 3
    },
    {
      "name": "Mesh4_PR1_Model",
      "mesh": 4
    }
  ],
  "scene": 0,
  "scenes": [
    {
      "nodes": [
        0,
        1,
        2,
        3,
        4
      ]
    }
  ]
}
