{
  "accessors": [
    {
      "name": "Chair.001_mesh268154718.001-Mesh_positions",
      "componentType": 5126,
      "count": 2056,
      "min": [
        105.44572448730469,
        498.6376953125,
        437.8677978515625
      ],
      "max": [
        230.9544677734375,
        620.435546875,
        559.902587890625
      ],
      "type": "VEC3",
      "bufferView": 0,
      "byteOffset": 0
    },
    {
      "name": "Chair.001_mesh268154718.001-Mesh_normals",
      "componentType": 5126,
      "count": 2056,
      "min": [
        -0.982699990272522,
        -0.9623000025749207,
        -0.9779999852180481
      ],
      "max": [
        0.9783999919891357,
        0.9728000164031982,
        0.9779999852180481
      ],
      "type": "VEC3",
      "bufferView": 0,
      "byteOffset": 67032
    },
    {
      "name": "Chair.001_mesh268154718.001-Mesh_texcoords",
      "componentType": 5126,
      "count": 2056,
      "min": [
        -0.3361999988555908,
        0.7936000227928162
      ],
      "max": [
        0.3359000086784363,
        1.4076999425888062
      ],
      "type": "VEC2",
      "bufferView": 1,
      "byteOffset": 0
    },
    {
      "name": "Chair.001_mesh268154718.001-Mesh_0_indices",
      "componentType": 5123,
      "count": 3546,
      "min": [
        0
      ],
      "max": [
        2055
      ],
      "type": "SCALAR",
      "bufferView": 2,
      "byteOffset": 0
    },
    {
      "name": "Chair_mesh268154718-Mesh_positions",
      "componentType": 5126,
      "count": 2056,
      "min": [
        299.08917236328125,
        498.6376953125,
        361.302734375
      ],
      "max": [
        418.96148681640625,
        620.435546875,
        485.2146301269531
      ],
      "type": "VEC3",
      "bufferView": 0,
      "byteOffset": 24672
    },
    {
      "name": "Chair_mesh268154718-Mesh_normals",
      "componentType": 5126,
      "count": 2056,
      "min": [
        -0.968500018119812,
        -0.9623000025749207,
        -0.974399983882904
      ],
      "max": [
        0.968500018119812,
        0.9728000164031982,
        0.9860000014305115
      ],
      "type": "VEC3",
      "bufferView": 0,
      "byteOffset": 91704
    },
    {
      "name": "Chair_mesh268154718-Mesh_texcoords",
      "componentType": 5126,
      "count": 2056,
      "min": [
        -0.3361999988555908,
        0.7936000227928162
      ],
      "max": [
        0.3359000086784363,
        1.4076999425888062
      ],
      "type": "VEC2",
      "bufferView": 1,
      "byteOffset": 16448
    },
    {
      "name": "Chair_mesh268154718-Mesh_0_indices",
      "componentType": 5123,
      "count": 3546,
      "min": [
        0
      ],
      "max": [
        2055
      ],
      "type": "SCALAR",
      "bufferView": 2,
      "byteOffset": 7092
    },
    {
      "name": "Mesh6_PR1_Model-Mesh_positions",
      "componentType": 5126,
      "count": 12,
      "min": [
        -425.1300048828125,
        1303.0499267578125,
        199.34521484375
      ],
      "max": [
        37.260501861572266,
        1523.889892578125,
        647.5091552734375
      ],
      "type": "VEC3",
      "bufferView": 0,
      "byteOffset": 49344
    },
    {
      "name": "Mesh6_PR1_Model-Mesh_normals",
      "componentType": 5126,
      "count": 12,
      "min": [
        -0.7172999978065491,
        -0.6349999904632568,
        -0.7378000020980835
      ],
      "max": [
        0.29510000348091125,
        0.6349999904632568,
        0.7378000020980835
      ],
      "type": "VEC3",
      "bufferView": 0,
      "byteOffset": 116376
    },
    {
      "name": "Mesh6_PR1_Model-Mesh_texcoords",
      "componentType": 5126,
      "count": 12,
      "min": [
        -1300.3199462890625,
        -1886.6700439453125
      ],
      "max": [
        1300.3199462890625,
        -180.0290069580078
      ],
      "type": "VEC2",
      "bufferView": 1,
      "byteOffset": 32896
    },
    {
      "name": "Mesh6_PR1_Model-Mesh_0_indices",
      "componentType": 5123,
      "count": 12,
      "min": [
        0
      ],
      "max": [
        11
      ],
      "type": "SCALAR",
      "bufferView": 2,
      "byteOffset": 14184
    },
    {
      "name": "Mesh5_PR1_Model-Mesh_positions",
      "componentType": 5126,
      "count": 1437,
      "min": [
        -1168.1700439453125,
        -0.00015799999528098851,
        -1096.5299072265625
      ],
      "max": [
        1231.0799560546875,
        1214.4700927734375,
        981.1531372070312
      ],
      "type": "VEC3",
      "bufferView": 0,
      "byteOffset": 49488
    },
    {
      "name": "Mesh5_PR1_Model-Mesh_normals",
      "componentType": 5126,
      "count": 1437,
      "min": [
        -0.9284999966621399,
        -1,
        -0.9732000231742859
      ],
      "max": [
        0.9284999966621399,
        1,
        0.9348000288009644
      ],
      "type": "VEC3",
      "bufferView": 0,
      "byteOffset": 116520
    },
    {
      "name": "Mesh5_PR1_Model-Mesh_texcoords",
      "componentType": 5126,
      "count": 1437,
      "min": [
        -2514.25,
        -2076.68994140625
      ],
      "max": [
        2514.25,
        1999.550048828125
      ],
      "type": "VEC2",
      "bufferView": 1,
      "byteOffset": 32992
    },
    {
      "name": "Mesh5_PR1_Model-Mesh_0_indices",
      "componentType": 5123,
      "count": 162,
      "min": [
        0
      ],
      "max": [
        115
      ],
      "type": "SCALAR",
      "bufferView": 2,
      "byteOffset": 14208
    },
    {
      "name": "Mesh5_PR1_Model-Mesh_1_indices",
      "componentType": 5123,
      "count": 33,
      "min": [
        64
      ],
      "max": [
        145
      ],
      "type": "SCALAR",
      "bufferView": 2,
      "byteOffset": 14532
    },
    {
      "name": "Mesh5_PR1_Model-Mesh_2_indices",
      "componentType": 5123,
      "count": 12,
      "min": [
        125
      ],
      "max": [
        153
      ],
      "type": "SCALAR",
      "bufferView": 2,
      "byteOffset": 14600
    },
    {
      "name": "Mesh5_PR1_Model-Mesh_3_indices",
      "componentType": 5123,
      "count": 771,
      "min": [
        143
      ],
      "max": [
        693
      ],
      "type": "SCALAR",
      "bufferView": 2,
      "byteOffset": 14624
    },
    {
      "name": "Mesh5_PR1_Model-Mesh_4_indices",
      "componentType": 5123,
      "count": 9,
      "min": [
        54
      ],
      "max": [
        700
      ],
      "type": "SCALAR",
      "bufferView": 2,
      "byteOffset": 16168
    },
    {
      "name": "Mesh5_PR1_Model-Mesh_5_indices",
      "componentType": 5123,
      "count": 834,
      "min": [
        162
      ],
      "max": [
        1293
      ],
      "type": "SCALAR",
      "bufferView": 2,
      "byteOffset": 16188
    },
    {
      "name": "Mesh5_PR1_Model-Mesh_6_indices",
      "componentType": 5123,
      "count": 246,
      "min": [
        142
      ],
      "max": [
        1436
      ],
      "type": "SCALAR",
      "bufferView": 2,
      "byteOffset": 17856
    },
    {
      "name": "Mesh4_PR1_Model-Mesh_positions",
      "componentType": 5126,
      "count": 25,
      "min": [
        -405.25299072265625,
        975.7528686523438,
        221.27117919921875
      ],
      "max": [
        13.126299858093262,
        1316.9599609375,
        611.8252563476562
      ],
      "type": "VEC3",
      "bufferView": 0,
      "byteOffset": 66732
    },
    {
      "name": "Mesh4_PR1_Model-Mesh_normals",
      "componentType": 5126,
      "count": 25,
      "min": [
        -0.9284999966621399,
        0,
        -0.9284999966621399
      ],
      "max": [
        0.9284999966621399,
        0,
        0.9284999966621399
      ],
      "type": "VEC3",
      "bufferView": 0,
      "byteOffset": 133764
    },
    {
      "name": "Mesh4_PR1_Model-Mesh_texcoords",
      "componentType": 5126,
      "count": 25,
      "min": [
        -1287.449951171875,
        -1315.9599609375
      ],
      "max": [
        1287.449951171875,
        -974.7529907226562
      ],
      "type": "VEC2",
      "bufferView": 1,
      "byteOffset": 44488
    },
    {
      "name": "Mesh4_PR1_Model-Mesh_0_indices",
      "componentType": 5123,
      "count": 3,
      "min": [
        0
      ],
      "max": [
        2
      ],
      "type": "SCALAR",
      "bufferView": 2,
      "byteOffset": 18348
    },
    {
      "name": "Mesh4_PR1_Model-Mesh_1_indices",
      "componentType": 5123,
      "count": 21,
      "min": [
        3
      ],
      "max": [
        16
      ],
      "type": "SCALAR",
      "bufferView": 2,
      "byteOffset": 18356
    },
    {
      "name": "Mesh4_PR1_Model-Mesh_2_indices",
      "componentType": 5123,
      "count": 12,
      "min": [
        17
      ],
      "max": [
        24
      ],
      "type": "SCALAR",
      "bufferView": 2,
      "byteOffset": 18400
    }
  ],
  "asset": {
    "generator": "obj2gltf",
    "version": "2.0"
  },
  "buffers": [
    {
      "name": "porch",
      "byteLength": 197176,
      "uri": "data:application/octet-stream;base64,"
    }
  ],
  "bufferViews": [
    {
      "name": "bufferView_0",
      "buffer": 0,
      "byteLength": 134064,
      "byteOffset": 0,
      "byteStride": 12,
      "target": 34962
    },
    {
      "name": "bufferView_1",
      "buffer": 0,
      "byteLength": 44688,
      "byteOffset": 134064,
      "byteStride": 8,
      "target": 34962
    },
    {
      "name": "bufferView_2",
      "buffer": 0,
      "byteLength": 18424,
      "byteOffset": 178752,
      "target": 34963
    }
  ],
  "materials": [
    {
      "name": "mat20",
      "pbrMetallicRoughness": {
        "baseColorFactor": [
          0.47,
          0.33,
          0.28,
          1
        ],
        "metallicFactor": 0,
        "roughnessFactor": 0.903921569
      },
      "emissiveFactor": [
        0,
        0,
        0
      ],
      "alphaMode": "OPAQUE",
      "doubleSided": false
    },
    {
      "name": "_2",
      "pbrMetallicRoughness": {
        "baseColorFactor": [
          0.117647,
          0.117647,
          0.117647,
          1
        ],
        "metallicFactor": 0,
        "roughnessFactor": 0.903921569
      },
      "emissiveFactor": [
        0,
        0,
        0
      ],
      "alphaMode": "OPAQUE",
      "doubleSided": false
    },
    {
      "name": "BackColor",
      "pbrMetallicRoughness": {
        "baseColorFactor": [
          0.118,
          0.118,
          0.118,
          1
        ],
        "metallicFactor": 0,
        "roughnessFactor": 0.903921569
      },
      "emissiveFactor": [
        0,
        0,
        0
      ],
      "alphaMode": "OPAQUE",
      "doubleSided": false
    },
    {
      "name": "FrontColor",
      "pbrMetallicRoughness": {
        "baseColorFactor": [
          1,
          1,
          1,
          1
        ],
        "metallicFactor": 0,
        "roughnessFactor": 0.903921569
      },
      "emissiveFactor": [
        0,
        0,
        0
      ],
      "alphaMode": "OPAQUE",
      "doubleSided": false
    },
    {
      "name": "TAN",
      "pbrMetallicRoughness": {
        "baseColorFactor": [
          0.4,
          0.2,
          0,
          1
        ],
        "metallicFactor": 0,
        "roughnessFactor": 0.903921569
      },
      "emissiveFactor": [
        0,
        0,
        0
      ],
      "alphaMode": "OPAQUE",
      "doubleSided": false
    },
    {
      "name": "Stacy_Hair",
      "pbrMetallicRoughness": {
        "baseColorFactor": [
          0.141176,
          0.07451,
          0.027451,
          1
        ],
        "metallicFactor": 0,
        "roughnessFactor": 0.903921569
      },
      "emissiveFactor": [
        0,
        0,
        0
      ],
      "alphaMode": "OPAQUE",
      "doubleSided": false
    },
    {
      "name": "Color_C07",
      "pbrMetallicRoughness": {
        "baseColorFactor": [
          0.4,
          0.2,
          0,
          1
        ],
        "metallicFactor": 0,
        "roughnessFactor": 0.903921569
      },
      "emissiveFactor": [
        0,
        0,
        0
      ],
      "alphaMode": "OPAQUE",
      "doubleSided": false
    },
    {
      "name": "GREEN",
      "pbrMetallicRoughness": {
        "baseColorFactor": [
          0.45098,
          0.647059,
          0.498039,
          1
        ],
        "metallicFactor": 0,
        "roughnessFactor": 0.903921569
      },
      "emissiveFactor": [
        0,
        0,
        0
      ],
      "alphaMode": "OPAQUE",
      "doubleSided": false
    },
    {
      "name": "Color_C08",
      "pbrMetallicRoughness": {
        "baseColorFactor": [
          0.4,
          0.2,
          0,
          1
        ],
        "metallicFactor": 0,
        "roughnessFactor": 0.903921569
      },
      "emissiveFactor": [
        0,
        0,
        0
      ],
      "alphaMode": "OPAQUE",
      "doubleSided": false
    }
  ],
  "meshes": [
    {
      "name": "Chair.001_mesh268154718.001-Mesh",
      "primitives": [
        {
          "attributes": {
            "POSITION": 0,
            "NORMAL": 1,
            "TEXCOORD_0": 2
          },
          "indices": 3,
          "material": 0,
          "mode": 4
        }
      ]
    },
    {
      "name": "Chair_mesh268154718-Mesh",
      "primitives": [
        {
          "attributes": {
            "POSITION": 4,
            "NORMAL": 5,
            "TEXCOORD_0": 6
          },
          "indices": 7,
          "material": 0,
          "mode": 4
        }
      ]
    },
    {
      "name": "Mesh6_PR1_Model-Mesh",
      "primitives": [
        {
          "attributes": {
            "POSITION": 8,
            "NORMAL": 9,
            "TEXCOORD_0": 10
          },
          "indices": 11,
          "material": 1,
          "mode": 4
        }
      ]
    },
    {
      "name": "Mesh5_PR1_Model-Mesh",
      "primitives": [
        {
          "attributes": {
            "POSITION": 12,
            "NORMAL": 13,
            "TEXCOORD_0": 14
          },
          "indices": 15,
          "material": 1,
          "mode": 4
        },
        {
          "attributes": {
            "POSITION": 12,
            "NORMAL": 13,
            "TEXCOORD_0": 14
          },
          "indices": 16,
          "material": 2,
          "mode": 4
        },
        {
          "attributes": {
            "POSITION": 12,
            "NORMAL": 13,
            "TEXCOORD_0": 14
          },
          "indices": 17,
          "material": 3,
          "mode": 4
        },
        {
          "attributes": {
            "POSITION": 12,
            "NORMAL": 13,
            "TEXCOORD_0": 14
          },
          "indices": 18,
          "material": 4,
          "mode": 4
        },
        {
          "attributes": {
            "POSITION": 12,
            "NORMAL": 13,
            "TEXCOORD_0": 14
          },
          "indices": 19,
          "material": 5,
          "mode": 4
        },
        {
          "attributes": {
            "POSITION": 12,
            "NORMAL": 13,
            "TEXCOORD_0": 14
          },
          "indices": 20,
          "material": 6,
          "mode": 4
        },
        {
          "attributes": {
            "POSITION": 12,
            "NORMAL": 13,
            "TEXCOORD_0": 14
          },
          "indices": 21,
          "material": 7,
          "mode": 4
        }
      ]
    },
    {
      "name": "Mesh4_PR1_Model-Mesh",
      "primitives": [
        {
          "attributes": {
            "POSITION": 22,
            "NORMAL": 23,
            "TEXCOORD_0": 24
          },
          "indices": 25,
          "material": 4,
          "mode": 4
        },
        {
          "attributes": {
            "POSITION": 22,
            "NORMAL": 23,
            "TEXCOORD_0": 24
          },
          "indices": 26,
          "material": 6,
          "mode": 4
        },
        {
          "attributes": {
            "POSITION": 22,
            "NORMAL": 23,
            "TEXCOORD_0": 24
          },
          "indices": 27,
          "material": 8,
          "mode": 4
        }
      ]
    }
  ],
  "nodes": [
    {
      "name": "Chair.001_mesh268154718.001",
      "mesh": 0
    },
    {
      "name": "Chair_mesh268154718",
      "mesh": 1
    },
    {
      "name": "Mesh6_PR1_Model",
      "mesh": 2
    },
    {
      "name": "Mesh5_PR1_Model",
      "mesh": 3
    },
    {
      "name": "Mesh4_PR1_Model",
      "mesh": 4
    }
  ],
  "scene": 0,
  "scenes": [
    {
      "nodes": [
        0,
        1,
        2,
        3,
        4
      ]
    }
  ]
}
