{
  "accessors": [
    {
      "name": "Mesh1 skpVCe8I8_1 Model_1_positions",
      "componentType": 5126,
      "count": 3604,
      "min": [
        -7.983160018920898,
        -0.12540900707244873,
        -2.0211598873138428
      ],
      "max": [
        7.64463996887207,
        5.5240302085876465,
        2.9398200511932373
      ],
      "type": "VEC3",
      "bufferView": 0,
      "byteOffset": 0
    },
    {
      "name": "Mesh1 skpVCe8I8_1 Model_1_normals",
      "componentType": 5126,
      "count": 3604,
      "min": [
        -0.9747719764709473,
        -0.9995269775390625,
        -0.9981200098991394
      ],
      "max": [
        0.9747719764709473,
        0.9995269775390625,
        0.9981200098991394
      ],
      "type": "VEC3",
      "bufferView": 0,
      "byteOffset": 43248
    },
    {
      "name": "Mesh1 skpVCe8I8_1 Model_1_texcoords",
      "componentType": 5126,
      "count": 3604,
      "min": [
        -108.41200256347656,
        -115.04000091552734
      ],
      "max": [
        94.38240051269531,
        93.91069793701172
      ],
      "type": "VEC2",
      "bufferView": 1,
      "byteOffset": 0
    },
    {
      "name": "Mesh1 skpVCe8I8_1 Model_1_0_indices",
      "componentType": 5123,
      "count": 1806,
      "min": [
        0
      ],
      "max": [
        3597
      ],
      "type": "SCALAR",
      "bufferView": 2,
      "byteOffset": 0
    },
    {
      "name": "Mesh1 skpVCe8I8_1 Model_1_1_indices",
      "componentType": 5123,
      "count": 1806,
      "min": [
        3
      ],
      "max": [
        3603
      ],
      "type": "SCALAR",
      "bufferView": 2,
      "byteOffset": 3612
    }
  ],
  "asset": {
    "generator": "obj2gltf",
    "version": "2.0"
  },
  "buffers": [
    {
      "name": "Cloud",
      "byteLength": 122552,
      "uri": "data:application/octet-stream;base64,"
    }
  ],
  "bufferViews": [
    {
      "name": "bufferView_0",
      "buffer": 0,
      "byteLength": 86496,
      "byteOffset": 0,
      "byteStride": 12,
      "target": 34962
    },
    {
      "name": "bufferView_1",
      "buffer": 0,
      "byteLength": 28832,
      "byteOffset": 86496,
      "byteStride": 8,
      "target": 34962
    },
    {
      "name": "bufferView_2",
      "buffer": 0,
      "byteLength": 7224,
      "byteOffset": 115328,
      "target": 34963
    }
  ],
  "materials": [
    {
      "name": "_auto_",
      "pbrMetallicRoughness": {
        "baseColorFactor": [
          1,
          1,
          1,
          1
        ],
        "metallicFactor": 0,
        "roughnessFactor": 1
      },
      "emissiveFactor": [
        0,
        0,
        0
      ],
      "alphaMode": "OPAQUE",
      "doubleSided": false
    },
    {
      "name": "BackColor",
      "pbrMetallicRoughness": {
        "baseColorFactor": [
          0.643137,
          0.698039,
          0.733333,
          1
        ],
        "metallicFactor": 0,
        "roughnessFactor": 1
      },
      "emissiveFactor": [
        0,
        0,
        0
      ],
      "alphaMode": "OPAQUE",
      "doubleSided": false
    }
  ],
  "meshes": [
    {
      "name": "Mesh1 skpVCe8I8_1 Model_1",
      "primitives": [
        {
          "attributes": {
            "POSITION": 0,
            "NORMAL": 1,
            "TEXCOORD_0": 2
          },
          "indices": 3,
          "material": 0,
          "mode": 4
        },
        {
          "attributes": {
            "POSITION": 0,
            "NORMAL": 1,
            "TEXCOORD_0": 2
          },
          "indices": 4,
          "material": 1,
          "mode": 4
        }
      ]
    }
  ],
  "nodes": [
    {
      "name": "Mesh1 skpVCe8I8_1 Model",
      "mesh": 0
    }
  ],
  "scene": 0,
  "scenes": [
    {
      "nodes": [
        0
      ]
    }
  ]
}
