{"accessors":[{"name":"Mesh3_Tower1_Model-Mesh_positions","componentType":5126,"count":856,"min":[-33.211509704589844,1.3934119939804077,-35.38206100463867],"max":[35.20957946777344,120.19770050048828,35.593040466308594],"type":"VEC3","bufferView":0,"byteOffset":0},{"name":"Mesh3_Tower1_Model-Mesh_normals","componentType":5126,"count":856,"min":[-0.9743000268936157,-0.9977999925613403,-0.9460999965667725],"max":[0.7545999884605408,0.9987999796867371,1],"type":"VEC3","bufferView":0,"byteOffset":10560},{"name":"Mesh3_Tower1_Model-Mesh_texcoords","componentType":5126,"count":856,"min":[0,0],"max":[1,1],"type":"VEC2","bufferView":1,"byteOffset":0},{"name":"Mesh3_Tower1_Model-Mesh_0_indices","componentType":5123,"count":1149,"min":[0],"max":[742],"type":"SCALAR","bufferView":2,"byteOffset":0},{"name":"Mesh3_Tower1_Model-Mesh_1_indices","componentType":5123,"count":78,"min":[743],"max":[793],"type":"SCALAR","bufferView":2,"byteOffset":2300},{"name":"Mesh3_Tower1_Model-Mesh_2_indices","componentType":5123,"count":30,"min":[794],"max":[823],"type":"SCALAR","bufferView":2,"byteOffset":2456},{"name":"Mesh3_Tower1_Model-Mesh_3_indices","componentType":5123,"count":84,"min":[775],"max":[855],"type":"SCALAR","bufferView":2,"byteOffset":2516},{"name":"Mesh2_Tower1_Model-Mesh_positions","componentType":5126,"count":24,"min":[-43.69799041748047,-0.000007000000096013537,-51.26736831665039],"max":[48.37553024291992,7.155198097229004,39.7943000793457],"type":"VEC3","bufferView":0,"byteOffset":10272},{"name":"Mesh2_Tower1_Model-Mesh_normals","componentType":5126,"count":24,"min":[-0.7544999718666077,-0.9977999925613403,-0.7562000155448914],"max":[0.7544999718666077,0.9977999925613403,0.7562000155448914],"type":"VEC3","bufferView":0,"byteOffset":20832},{"name":"Mesh2_Tower1_Model-Mesh_texcoords","componentType":5126,"count":24,"min":[0,0],"max":[1,1],"type":"VEC2","bufferView":1,"byteOffset":6848},{"name":"Mesh2_Tower1_Model-Mesh_0_indices","componentType":5123,"count":36,"min":[0],"max":[23],"type":"SCALAR","bufferView":2,"byteOffset":2684}],"asset":{"generator":"obj2gltf","version":"2.0"},"buffers":[{"name":"Tower","byteLength":313312,"uri":"data:application/octet-stream;base64,"}],"bufferViews":[{"name":"bufferView_0","buffer":0,"byteLength":21120,"byteOffset":0,"byteStride":12,"target":34962},{"name":"bufferView_1","buffer":0,"byteLength":7040,"byteOffset":21120,"byteStride":8,"target":34962},{"name":"bufferView_2","buffer":0,"byteLength":2756,"byteOffset":28160,"target":34963},{"buffer":0,"byteOffset":30916,"byteLength":282396}],"images":[{"name":"SandstoneCutoutSmall","mimeType":"image/jpeg","bufferView":3}],"materials":[{"name":"TAN","pbrMetallicRoughness":{"baseColorTexture":{"index":0},"baseColorFactor":[1,1,1,1],"metallicFactor":0,"roughnessFactor":0.903921569},"emissiveFactor":[0,0,0],"alphaMode":"OPAQUE","doubleSided":false},{"name":"Stacy_Hair","pbrMetallicRoughness":{"baseColorFactor":[0.141176,0.07451,0.027451,1],"metallicFactor":0,"roughnessFactor":0.903921569},"emissiveFactor":[0,0,0],"alphaMode":"OPAQUE","doubleSided":false},{"name":"GREEN","pbrMetallicRoughness":{"baseColorFactor":[0.45098,0.647059,0.498039,1],"metallicFactor":0,"roughnessFactor":0.903921569},"emissiveFactor":[0,0,0],"alphaMode":"OPAQUE","doubleSided":false},{"name":"TAN2","pbrMetallicRoughness":{"baseColorFactor":[0.8,0.678928,0.473414,1],"metallicFactor":0,"roughnessFactor":0.903921569},"emissiveFactor":[0,0,0],"alphaMode":"OPAQUE","doubleSided":false}],"meshes":[{"name":"Mesh3_Tower1_Model-Mesh","primitives":[{"attributes":{"POSITION":0,"NORMAL":1,"TEXCOORD_0":2},"indices":3,"material":0,"mode":4},{"attributes":{"POSITION":0,"NORMAL":1,"TEXCOORD_0":2},"indices":4,"material":1,"mode":4},{"attributes":{"POSITION":0,"NORMAL":1,"TEXCOORD_0":2},"indices":5,"material":2,"mode":4},{"attributes":{"POSITION":0,"NORMAL":1,"TEXCOORD_0":2},"indices":6,"material":3,"mode":4}]},{"name":"Mesh2_Tower1_Model-Mesh","primitives":[{"attributes":{"POSITION":7,"NORMAL":8,"TEXCOORD_0":9},"indices":10,"material":0,"mode":4}]}],"nodes":[{"name":"Mesh3_Tower1_Model","mesh":0},{"name":"Mesh2_Tower1_Model","mesh":1}],"samplers":[{"magFilter":9729,"minFilter":9986,"wrapS":10497,"wrapT":10497}],"scene":0,"scenes":[{"nodes":[0,1]}],"textures":[{"name":"SandstoneCutoutSmall","sampler":0,"source":0}]}
