{
  "accessors": [
    {
      "name": "Model_walk_Untitled.001-Mesh_positions",
      "componentType": 5126,
      "count": 2188,
      "min": [
        -0.18443100154399872,
        0.0038449999410659075,
        -0.16924400627613068
      ],
      "max": [
        0.15170800685882568,
        0.9331730008125305,
        0.235943004488945
      ],
      "type": "VEC3",
      "bufferView": 0,
      "byteOffset": 0
    },
    {
      "name": "Model_walk_Untitled.001-Mesh_normals",
      "componentType": 5126,
      "count": 2188,
      "min": [
        -0.9998999834060669,
        -1,
        -0.9966999888420105
      ],
      "max": [
        0.9965999722480774,
        0.9969000220298767,
        0.9979000091552734
      ],
      "type": "VEC3",
      "bufferView": 0,
      "byteOffset": 26256
    },
    {
      "name": "Model_walk_Untitled.001-Mesh_texcoords",
      "componentType": 5126,
      "count": 2188,
      "min": [
        0,
        -3
      ],
      "max": [
        2.3808000087738037,
        1
      ],
      "type": "VEC2",
      "bufferView": 1,
      "byteOffset": 0
    },
    {
      "name": "Model_walk_Untitled.001-Mesh_0_indices",
      "componentType": 5123,
      "count": 348,
      "min": [
        0
      ],
      "max": [
        231
      ],
      "type": "SCALAR",
      "bufferView": 2,
      "byteOffset": 0
    },
    {
      "name": "Model_walk_Untitled.001-Mesh_1_indices",
      "componentType": 5123,
      "count": 564,
      "min": [
        232
      ],
      "max": [
        607
      ],
      "type": "SCALAR",
      "bufferView": 2,
      "byteOffset": 696
    },
    {
      "name": "Model_walk_Untitled.001-Mesh_2_indices",
      "componentType": 5123,
      "count": 492,
      "min": [
        608
      ],
      "max": [
        935
      ],
      "type": "SCALAR",
      "bufferView": 2,
      "byteOffset": 1824
    },
    {
      "name": "Model_walk_Untitled.001-Mesh_3_indices",
      "componentType": 5123,
      "count": 432,
      "min": [
        936
      ],
      "max": [
        1223
      ],
      "type": "SCALAR",
      "bufferView": 2,
      "byteOffset": 2808
    },
    {
      "name": "Model_walk_Untitled.001-Mesh_4_indices",
      "componentType": 5123,
      "count": 204,
      "min": [
        1224
      ],
      "max": [
        1359
      ],
      "type": "SCALAR",
      "bufferView": 2,
      "byteOffset": 3672
    },
    {
      "name": "Model_walk_Untitled.001-Mesh_5_indices",
      "componentType": 5123,
      "count": 1110,
      "min": [
        1360
      ],
      "max": [
        2099
      ],
      "type": "SCALAR",
      "bufferView": 2,
      "byteOffset": 4080
    },
    {
      "name": "Model_walk_Untitled.001-Mesh_6_indices",
      "componentType": 5123,
      "count": 132,
      "min": [
        2100
      ],
      "max": [
        2187
      ],
      "type": "SCALAR",
      "bufferView": 2,
      "byteOffset": 6300
    }
  ],
  "asset": {
    "generator": "obj2gltf",
    "version": "2.0"
  },
  "buffers": [
    {
      "name": "Walking",
      "byteLength": 76580,
      "uri": "data:application/octet-stream;base64,"
    }
  ],
  "bufferViews": [
    {
      "name": "bufferView_0",
      "buffer": 0,
      "byteLength": 52512,
      "byteOffset": 0,
      "byteStride": 12,
      "target": 34962
    },
    {
      "name": "bufferView_1",
      "buffer": 0,
      "byteLength": 17504,
      "byteOffset": 52512,
      "byteStride": 8,
      "target": 34962
    },
    {
      "name": "bufferView_2",
      "buffer": 0,
      "byteLength": 6564,
      "byteOffset": 70016,
      "target": 34963
    }
  ],
  "materials": [
    {
      "name": "material_1.001",
      "pbrMetallicRoughness": {
        "baseColorFactor": [
          0.150588,
          0.087843,
          0.056471,
          1
        ],
        "metallicFactor": 0,
        "roughnessFactor": 0.980392157
      },
      "emissiveFactor": [
        0,
        0,
        0
      ],
      "alphaMode": "OPAQUE",
      "doubleSided": false
    },
    {
      "name": "material_2.001",
      "pbrMetallicRoughness": {
        "baseColorFactor": [
          0.12549,
          0.097255,
          0.081569,
          1
        ],
        "metallicFactor": 0,
        "roughnessFactor": 0.980392157
      },
      "emissiveFactor": [
        0,
        0,
        0
      ],
      "alphaMode": "OPAQUE",
      "doubleSided": false
    },
    {
      "name": "07_-_Default.001",
      "pbrMetallicRoughness": {
        "baseColorFactor": [
          0.25098,
          0.279216,
          0.28549,
          1
        ],
        "metallicFactor": 0,
        "roughnessFactor": 0.980392157
      },
      "emissiveFactor": [
        0,
        0,
        0
      ],
      "alphaMode": "OPAQUE",
      "doubleSided": false
    },
    {
      "name": "08_-_Default.001",
      "pbrMetallicRoughness": {
        "baseColorFactor": [
          0.131765,
          0.175686,
          0.072157,
          1
        ],
        "metallicFactor": 0,
        "roughnessFactor": 0.980392157
      },
      "emissiveFactor": [
        0,
        0,
        0
      ],
      "alphaMode": "OPAQUE",
      "doubleSided": false
    },
    {
      "name": "09_-_Default.001",
      "pbrMetallicRoughness": {
        "baseColorFactor": [
          0.084706,
          0.141176,
          0.203922,
          1
        ],
        "metallicFactor": 0,
        "roughnessFactor": 0.980392157
      },
      "emissiveFactor": [
        0,
        0,
        0
      ],
      "alphaMode": "OPAQUE",
      "doubleSided": false
    },
    {
      "name": "13_-_Default.001",
      "pbrMetallicRoughness": {
        "baseColorFactor": [
          0.749804,
          0.492549,
          0.423529,
          1
        ],
        "metallicFactor": 0,
        "roughnessFactor": 0.980392157
      },
      "emissiveFactor": [
        0,
        0,
        0
      ],
      "alphaMode": "OPAQUE",
      "doubleSided": false
    },
    {
      "name": "15_-_Default",
      "pbrMetallicRoughness": {
        "baseColorFactor": [
          0.109804,
          0.025098,
          0.025098,
          1
        ],
        "metallicFactor": 0,
        "roughnessFactor": 0.980392157
      },
      "emissiveFactor": [
        0,
        0,
        0
      ],
      "alphaMode": "OPAQUE",
      "doubleSided": false
    }
  ],
  "meshes": [
    {
      "name": "Model_walk_Untitled.001-Mesh",
      "primitives": [
        {
          "attributes": {
            "POSITION": 0,
            "NORMAL": 1,
            "TEXCOORD_0": 2
          },
          "indices": 3,
          "material": 0,
          "mode": 4
        },
        {
          "attributes": {
            "POSITION": 0,
            "NORMAL": 1,
            "TEXCOORD_0": 2
          },
          "indices": 4,
          "material": 1,
          "mode": 4
        },
        {
          "attributes": {
            "POSITION": 0,
            "NORMAL": 1,
            "TEXCOORD_0": 2
          },
          "indices": 5,
          "material": 2,
          "mode": 4
        },
        {
          "attributes": {
            "POSITION": 0,
            "NORMAL": 1,
            "TEXCOORD_0": 2
          },
          "indices": 6,
          "material": 3,
          "mode": 4
        },
        {
          "attributes": {
            "POSITION": 0,
            "NORMAL": 1,
            "TEXCOORD_0": 2
          },
          "indices": 7,
          "material": 4,
          "mode": 4
        },
        {
          "attributes": {
            "POSITION": 0,
            "NORMAL": 1,
            "TEXCOORD_0": 2
          },
          "indices": 8,
          "material": 5,
          "mode": 4
        },
        {
          "attributes": {
            "POSITION": 0,
            "NORMAL": 1,
            "TEXCOORD_0": 2
          },
          "indices": 9,
          "material": 6,
          "mode": 4
        }
      ]
    }
  ],
  "nodes": [
    {
      "name": "Model_walk_Untitled.001",
      "mesh": 0
    }
  ],
  "scene": 0,
  "scenes": [
    {
      "nodes": [
        0
      ]
    }
  ]
}
