{
  "accessors": [
    {
      "name": "Mesh1 Golf1 Model_1_positions",
      "componentType": 5126,
      "count": 326,
      "min": [
        2984.360107421875,
        0,
        1579.4599609375
      ],
      "max": [
        9476.5703125,
        1953.050048828125,
        6927.990234375
      ],
      "type": "VEC3",
      "bufferView": 0,
      "byteOffset": 0
    },
    {
      "name": "Mesh1 Golf1 Model_1_normals",
      "componentType": 5126,
      "count": 326,
      "min": [
        -0.34542301297187805,
        -0.9919379949569702,
        -0.18996000289916992
      ],
      "max": [
        0.34542301297187805,
        0.9919379949569702,
        0.18996000289916992
      ],
      "type": "VEC3",
      "bufferView": 0,
      "byteOffset": 9096
    },
    {
      "name": "Mesh1 Golf1 Model_1_texcoords",
      "componentType": 5126,
      "count": 326,
      "min": [
        233.19200134277344,
        626.9210205078125
      ],
      "max": [
        14658.099609375,
        16975
      ],
      "type": "VEC2",
      "bufferView": 1,
      "byteOffset": 0
    },
    {
      "name": "Mesh1 Golf1 Model_1_0_indices",
      "componentType": 5123,
      "count": 210,
      "min": [
        0
      ],
      "max": [
        320
      ],
      "type": "SCALAR",
      "bufferView": 2,
      "byteOffset": 0
    },
    {
      "name": "Mesh1 Golf1 Model_1_1_indices",
      "componentType": 5123,
      "count": 381,
      "min": [
        4
      ],
      "max": [
        325
      ],
      "type": "SCALAR",
      "bufferView": 2,
      "byteOffset": 420
    },
    {
      "name": "Mesh1 Golf1 Model_1_2_indices",
      "componentType": 5123,
      "count": 57,
      "min": [
        8
      ],
      "max": [
        313
      ],
      "type": "SCALAR",
      "bufferView": 2,
      "byteOffset": 1184
    },
    {
      "name": "Mesh1 Golf1 Model_1_3_indices",
      "componentType": 5123,
      "count": 114,
      "min": [
        39
      ],
      "max": [
        214
      ],
      "type": "SCALAR",
      "bufferView": 2,
      "byteOffset": 1300
    },
    {
      "name": "Mesh2 Golf1 Model_1_positions",
      "componentType": 5126,
      "count": 216,
      "min": [
        -3165.10009765625,
        268.5570068359375,
        -8873.150390625
      ],
      "max": [
        338.6080017089844,
        1063.050048828125,
        -4707.81982421875
      ],
      "type": "VEC3",
      "bufferView": 0,
      "byteOffset": 3912
    },
    {
      "name": "Mesh2 Golf1 Model_1_normals",
      "componentType": 5126,
      "count": 216,
      "min": [
        -0.10516200214624405,
        -0.9879149794578552,
        -0.27139100432395935
      ],
      "max": [
        0.10516200214624405,
        0.9879149794578552,
        0.27139100432395935
      ],
      "type": "VEC3",
      "bufferView": 0,
      "byteOffset": 13008
    },
    {
      "name": "Mesh2 Golf1 Model_1_texcoords",
      "componentType": 5126,
      "count": 216,
      "min": [
        -15829.2998046875,
        3531.050048828125
      ],
      "max": [
        -10458.099609375,
        13574.2001953125
      ],
      "type": "VEC2",
      "bufferView": 1,
      "byteOffset": 2608
    },
    {
      "name": "Mesh2 Golf1 Model_1_0_indices",
      "componentType": 5123,
      "count": 255,
      "min": [
        4
      ],
      "max": [
        215
      ],
      "type": "SCALAR",
      "bufferView": 2,
      "byteOffset": 1528
    },
    {
      "name": "Mesh2 Golf1 Model_1_1_indices",
      "componentType": 5123,
      "count": 198,
      "min": [
        0
      ],
      "max": [
        214
      ],
      "type": "SCALAR",
      "bufferView": 2,
      "byteOffset": 2040
    },
    {
      "name": "Mesh2 Golf1 Model_1_2_indices",
      "componentType": 5123,
      "count": 57,
      "min": [
        7
      ],
      "max": [
        175
      ],
      "type": "SCALAR",
      "bufferView": 2,
      "byteOffset": 2436
    },
    {
      "name": "Mesh3 Golf1 Model_1_positions",
      "componentType": 5126,
      "count": 180,
      "min": [
        -9206.98046875,
        888.676025390625,
        2595.22998046875
      ],
      "max": [
        -5396.259765625,
        1879.760009765625,
        5421.22998046875
      ],
      "type": "VEC3",
      "bufferView": 0,
      "byteOffset": 6504
    },
    {
      "name": "Mesh3 Golf1 Model_1_normals",
      "componentType": 5126,
      "count": 180,
      "min": [
        -0.22431999444961548,
        -0.9727759957313538,
        -0.1601240038871765
      ],
      "max": [
        0.22431999444961548,
        0.9727759957313538,
        0.1601240038871765
      ],
      "type": "VEC3",
      "bufferView": 0,
      "byteOffset": 15600
    },
    {
      "name": "Mesh3 Golf1 Model_1_texcoords",
      "componentType": 5126,
      "count": 180,
      "min": [
        -5041.1298828125,
        -2535.1201171875
      ],
      "max": [
        -1982.0999755859375,
        1864.0799560546875
      ],
      "type": "VEC2",
      "bufferView": 1,
      "byteOffset": 4336
    },
    {
      "name": "Mesh3 Golf1 Model_1_0_indices",
      "componentType": 5123,
      "count": 225,
      "min": [
        4
      ],
      "max": [
        179
      ],
      "type": "SCALAR",
      "bufferView": 2,
      "byteOffset": 2552
    },
    {
      "name": "Mesh3 Golf1 Model_1_1_indices",
      "componentType": 5123,
      "count": 174,
      "min": [
        0
      ],
      "max": [
        178
      ],
      "type": "SCALAR",
      "bufferView": 2,
      "byteOffset": 3004
    },
    {
      "name": "Mesh3 Golf1 Model_1_2_indices",
      "componentType": 5123,
      "count": 51,
      "min": [
        48
      ],
      "max": [
        164
      ],
      "type": "SCALAR",
      "bufferView": 2,
      "byteOffset": 3352
    },
    {
      "name": "Mesh4 Golf1 Model_1_positions",
      "componentType": 5126,
      "count": 12,
      "min": [
        -7784.25,
        1416.18994140625,
        4666.64013671875
      ],
      "max": [
        -7428.9599609375,
        3013.72998046875,
        4805.56982421875
      ],
      "type": "VEC3",
      "bufferView": 0,
      "byteOffset": 8664
    },
    {
      "name": "Mesh4 Golf1 Model_1_normals",
      "componentType": 5126,
      "count": 12,
      "min": [
        -0.16283099353313446,
        -0.061064399778842926,
        -0.9847630262374878
      ],
      "max": [
        0.16283099353313446,
        0.061064399778842926,
        0.9847630262374878
      ],
      "type": "VEC3",
      "bufferView": 0,
      "byteOffset": 17760
    },
    {
      "name": "Mesh4 Golf1 Model_1_texcoords",
      "componentType": 5126,
      "count": 12,
      "min": [
        1749.9100341796875,
        -2894.1298828125
      ],
      "max": [
        2108.080078125,
        -1293.6099853515625
      ],
      "type": "VEC2",
      "bufferView": 1,
      "byteOffset": 5776
    },
    {
      "name": "Mesh4 Golf1 Model_1_0_indices",
      "componentType": 5123,
      "count": 3,
      "min": [
        0
      ],
      "max": [
        2
      ],
      "type": "SCALAR",
      "bufferView": 2,
      "byteOffset": 3456
    },
    {
      "name": "Mesh4 Golf1 Model_1_1_indices",
      "componentType": 5123,
      "count": 3,
      "min": [
        3
      ],
      "max": [
        5
      ],
      "type": "SCALAR",
      "bufferView": 2,
      "byteOffset": 3464
    },
    {
      "name": "Mesh4 Golf1 Model_1_2_indices",
      "componentType": 5123,
      "count": 18,
      "min": [
        0
      ],
      "max": [
        11
      ],
      "type": "SCALAR",
      "bufferView": 2,
      "byteOffset": 3472
    },
    {
      "name": "Mesh5 Golf1 Model_1_positions",
      "componentType": 5126,
      "count": 12,
      "min": [
        3569,
        1329.8699951171875,
        3400.639892578125
      ],
      "max": [
        3924.2900390625,
        2927.409912109375,
        3539.56005859375
      ],
      "type": "VEC3",
      "bufferView": 0,
      "byteOffset": 8808
    },
    {
      "name": "Mesh5 Golf1 Model_1_normals",
      "componentType": 5126,
      "count": 12,
      "min": [
        -0.16283099353313446,
        -0.061064399778842926,
        -0.9847630262374878
      ],
      "max": [
        0.16283099353313446,
        0.061064399778842926,
        0.9847630262374878
      ],
      "type": "VEC3",
      "bufferView": 0,
      "byteOffset": 17904
    },
    {
      "name": "Mesh5 Golf1 Model_1_texcoords",
      "componentType": 5126,
      "count": 12,
      "min": [
        13157.599609375,
        -2844.7900390625
      ],
      "max": [
        13515.7998046875,
        -1244.27001953125
      ],
      "type": "VEC2",
      "bufferView": 1,
      "byteOffset": 5872
    },
    {
      "name": "Mesh5 Golf1 Model_1_0_indices",
      "componentType": 5123,
      "count": 18,
      "min": [
        0
      ],
      "max": [
        11
      ],
      "type": "SCALAR",
      "bufferView": 2,
      "byteOffset": 3508
    },
    {
      "name": "Mesh5 Golf1 Model_1_1_indices",
      "componentType": 5123,
      "count": 3,
      "min": [
        0
      ],
      "max": [
        2
      ],
      "type": "SCALAR",
      "bufferView": 2,
      "byteOffset": 3544
    },
    {
      "name": "Mesh5 Golf1 Model_1_2_indices",
      "componentType": 5123,
      "count": 3,
      "min": [
        3
      ],
      "max": [
        5
      ],
      "type": "SCALAR",
      "bufferView": 2,
      "byteOffset": 3552
    },
    {
      "name": "Mesh6 Golf1 Model_1_positions",
      "componentType": 5126,
      "count": 12,
      "min": [
        -1818.02001953125,
        249.2209930419922,
        -5710.60986328125
      ],
      "max": [
        -1462.72998046875,
        1846.760009765625,
        -5571.68017578125
      ],
      "type": "VEC3",
      "bufferView": 0,
      "byteOffset": 8952
    },
    {
      "name": "Mesh6 Golf1 Model_1_normals",
      "componentType": 5126,
      "count": 12,
      "min": [
        -0.16283099353313446,
        -0.061064399778842926,
        -0.9847630262374878
      ],
      "max": [
        0.16283099353313446,
        0.061064399778842926,
        0.9847630262374878
      ],
      "type": "VEC3",
      "bufferView": 0,
      "byteOffset": 18048
    },
    {
      "name": "Mesh6 Golf1 Model_1_texcoords",
      "componentType": 5126,
      "count": 12,
      "min": [
        9329.1103515625,
        -1163.5799560546875
      ],
      "max": [
        9687.2802734375,
        436.9429931640625
      ],
      "type": "VEC2",
      "bufferView": 1,
      "byteOffset": 5968
    },
    {
      "name": "Mesh6 Golf1 Model_1_0_indices",
      "componentType": 5123,
      "count": 18,
      "min": [
        0
      ],
      "max": [
        11
      ],
      "type": "SCALAR",
      "bufferView": 2,
      "byteOffset": 3560
    },
    {
      "name": "Mesh6 Golf1 Model_1_1_indices",
      "componentType": 5123,
      "count": 3,
      "min": [
        0
      ],
      "max": [
        2
      ],
      "type": "SCALAR",
      "bufferView": 2,
      "byteOffset": 3596
    },
    {
      "name": "Mesh6 Golf1 Model_1_2_indices",
      "componentType": 5123,
      "count": 3,
      "min": [
        3
      ],
      "max": [
        5
      ],
      "type": "SCALAR",
      "bufferView": 2,
      "byteOffset": 3604
    }
  ],
  "asset": {
    "generator": "obj2gltf",
    "version": "2.0"
  },
  "buffers": [
    {
      "name": "Golf_R2",
      "byteLength": 27868,
      "uri": "data:application/octet-stream;base64,"
    }
  ],
  "bufferViews": [
    {
      "name": "bufferView_0",
      "buffer": 0,
      "byteLength": 18192,
      "byteOffset": 0,
      "byteStride": 12,
      "target": 34962
    },
    {
      "name": "bufferView_1",
      "buffer": 0,
      "byteLength": 6064,
      "byteOffset": 18192,
      "byteStride": 8,
      "target": 34962
    },
    {
      "name": "bufferView_2",
      "buffer": 0,
      "byteLength": 3612,
      "byteOffset": 24256,
      "target": 34963
    }
  ],
  "materials": [
    {
      "name": "_33",
      "pbrMetallicRoughness": {
        "baseColorFactor": [
          0.298039,
          0.6,
          0,
          1
        ],
        "metallicFactor": 0,
        "roughnessFactor": 1
      },
      "emissiveFactor": [
        0,
        0,
        0
      ],
      "alphaMode": "OPAQUE",
      "doubleSided": false
    },
    {
      "name": "_68",
      "pbrMetallicRoughness": {
        "baseColorFactor": [
          0.113725,
          0.4,
          0.043137,
          1
        ],
        "metallicFactor": 0,
        "roughnessFactor": 1
      },
      "emissiveFactor": [
        0,
        0,
        0
      ],
      "alphaMode": "OPAQUE",
      "doubleSided": false
    },
    {
      "name": "_auto_11",
      "pbrMetallicRoughness": {
        "baseColorFactor": [
          0.54902,
          0.756863,
          0.286275,
          1
        ],
        "metallicFactor": 0,
        "roughnessFactor": 1
      },
      "emissiveFactor": [
        0,
        0,
        0
      ],
      "alphaMode": "OPAQUE",
      "doubleSided": false
    },
    {
      "name": "_27",
      "pbrMetallicRoughness": {
        "baseColorFactor": [
          0.921569,
          0.913725,
          0.760784,
          1
        ],
        "metallicFactor": 0,
        "roughnessFactor": 1
      },
      "emissiveFactor": [
        0,
        0,
        0
      ],
      "alphaMode": "OPAQUE",
      "doubleSided": false
    },
    {
      "name": "_auto_16",
      "pbrMetallicRoughness": {
        "baseColorFactor": [
          1,
          0.917647,
          0.227451,
          1
        ],
        "metallicFactor": 0,
        "roughnessFactor": 1
      },
      "emissiveFactor": [
        0,
        0,
        0
      ],
      "alphaMode": "OPAQUE",
      "doubleSided": false
    },
    {
      "name": "_34",
      "pbrMetallicRoughness": {
        "baseColorFactor": [
          1,
          0.8,
          0.196078,
          1
        ],
        "metallicFactor": 0,
        "roughnessFactor": 1
      },
      "emissiveFactor": [
        0,
        0,
        0
      ],
      "alphaMode": "OPAQUE",
      "doubleSided": false
    },
    {
      "name": "_10",
      "pbrMetallicRoughness": {
        "baseColorFactor": [
          0.447059,
          0.447059,
          0.447059,
          1
        ],
        "metallicFactor": 0,
        "roughnessFactor": 1
      },
      "emissiveFactor": [
        0,
        0,
        0
      ],
      "alphaMode": "OPAQUE",
      "doubleSided": false
    }
  ],
  "meshes": [
    {
      "name": "Mesh1 Golf1 Model_1",
      "primitives": [
        {
          "attributes": {
            "POSITION": 0,
            "NORMAL": 1,
            "TEXCOORD_0": 2
          },
          "indices": 3,
          "material": 0,
          "mode": 4
        },
        {
          "attributes": {
            "POSITION": 0,
            "NORMAL": 1,
            "TEXCOORD_0": 2
          },
          "indices": 4,
          "material": 1,
          "mode": 4
        },
        {
          "attributes": {
            "POSITION": 0,
            "NORMAL": 1,
            "TEXCOORD_0": 2
          },
          "indices": 5,
          "material": 2,
          "mode": 4
        },
        {
          "attributes": {
            "POSITION": 0,
            "NORMAL": 1,
            "TEXCOORD_0": 2
          },
          "indices": 6,
          "material": 3,
          "mode": 4
        }
      ]
    },
    {
      "name": "Mesh2 Golf1 Model_1",
      "primitives": [
        {
          "attributes": {
            "POSITION": 7,
            "NORMAL": 8,
            "TEXCOORD_0": 9
          },
          "indices": 10,
          "material": 1,
          "mode": 4
        },
        {
          "attributes": {
            "POSITION": 7,
            "NORMAL": 8,
            "TEXCOORD_0": 9
          },
          "indices": 11,
          "material": 0,
          "mode": 4
        },
        {
          "attributes": {
            "POSITION": 7,
            "NORMAL": 8,
            "TEXCOORD_0": 9
          },
          "indices": 12,
          "material": 2,
          "mode": 4
        }
      ]
    },
    {
      "name": "Mesh3 Golf1 Model_1",
      "primitives": [
        {
          "attributes": {
            "POSITION": 13,
            "NORMAL": 14,
            "TEXCOORD_0": 15
          },
          "indices": 16,
          "material": 1,
          "mode": 4
        },
        {
          "attributes": {
            "POSITION": 13,
            "NORMAL": 14,
            "TEXCOORD_0": 15
          },
          "indices": 17,
          "material": 0,
          "mode": 4
        },
        {
          "attributes": {
            "POSITION": 13,
            "NORMAL": 14,
            "TEXCOORD_0": 15
          },
          "indices": 18,
          "material": 2,
          "mode": 4
        }
      ]
    },
    {
      "name": "Mesh4 Golf1 Model_1",
      "primitives": [
        {
          "attributes": {
            "POSITION": 19,
            "NORMAL": 20,
            "TEXCOORD_0": 21
          },
          "indices": 22,
          "material": 4,
          "mode": 4
        },
        {
          "attributes": {
            "POSITION": 19,
            "NORMAL": 20,
            "TEXCOORD_0": 21
          },
          "indices": 23,
          "material": 5,
          "mode": 4
        },
        {
          "attributes": {
            "POSITION": 19,
            "NORMAL": 20,
            "TEXCOORD_0": 21
          },
          "indices": 24,
          "material": 6,
          "mode": 4
        }
      ]
    },
    {
      "name": "Mesh5 Golf1 Model_1",
      "primitives": [
        {
          "attributes": {
            "POSITION": 25,
            "NORMAL": 26,
            "TEXCOORD_0": 27
          },
          "indices": 28,
          "material": 6,
          "mode": 4
        },
        {
          "attributes": {
            "POSITION": 25,
            "NORMAL": 26,
            "TEXCOORD_0": 27
          },
          "indices": 29,
          "material": 4,
          "mode": 4
        },
        {
          "attributes": {
            "POSITION": 25,
            "NORMAL": 26,
            "TEXCOORD_0": 27
          },
          "indices": 30,
          "material": 5,
          "mode": 4
        }
      ]
    },
    {
      "name": "Mesh6 Golf1 Model_1",
      "primitives": [
        {
          "attributes": {
            "POSITION": 31,
            "NORMAL": 32,
            "TEXCOORD_0": 33
          },
          "indices": 34,
          "material": 6,
          "mode": 4
        },
        {
          "attributes": {
            "POSITION": 31,
            "NORMAL": 32,
            "TEXCOORD_0": 33
          },
          "indices": 35,
          "material": 4,
          "mode": 4
        },
        {
          "attributes": {
            "POSITION": 31,
            "NORMAL": 32,
            "TEXCOORD_0": 33
          },
          "indices": 36,
          "material": 5,
          "mode": 4
        }
      ]
    }
  ],
  "nodes": [
    {
      "name": "Mesh1 Golf1 Model",
      "mesh": 0
    },
    {
      "name": "Mesh2 Golf1 Model",
      "mesh": 1
    },
    {
      "name": "Mesh3 Golf1 Model",
      "mesh": 2
    },
    {
      "name": "Mesh4 Golf1 Model",
      "mesh": 3
    },
    {
      "name": "Mesh5 Golf1 Model",
      "mesh": 4
    },
    {
      "name": "Mesh6 Golf1 Model",
      "mesh": 5
    }
  ],
  "scene": 0,
  "scenes": [
    {
      "nodes": [
        0,
        1,
        2,
        3,
        4,
        5
      ]
    }
  ]
}
