{
  "accessors": [
    {
      "name": "Mesh1 Group1 SummerHosue1 Model_1_positions",
      "componentType": 5126,
      "count": 36,
      "min": [
        -255.06900024414062,
        948.9879760742188,
        -221.55799865722656
      ],
      "max": [
        296.07598876953125,
        1147.280029296875,
        267.5249938964844
      ],
      "type": "VEC3",
      "bufferView": 0,
      "byteOffset": 0
    },
    {
      "name": "Mesh1 Group1 SummerHosue1 Model_1_normals",
      "componentType": 5126,
      "count": 36,
      "min": [
        -0.736611008644104,
        -0.5783309936523438,
        -0.8148750066757202
      ],
      "max": [
        0.736611008644104,
        0.5783309936523438,
        0.8148750066757202
      ],
      "type": "VEC3",
      "bufferView": 0,
      "byteOffset": 9696
    },
    {
      "name": "Mesh1 Group1 SummerHosue1 Model_1_texcoords",
      "componentType": 5126,
      "count": 36,
      "min": [
        -228.03199768066406,
        -198.25100708007812
      ],
      "max": [
        228.03199768066406,
        185.9510040283203
      ],
      "type": "VEC2",
      "bufferView": 1,
      "byteOffset": 0
    },
    {
      "name": "Mesh1 Group1 SummerHosue1 Model_1_0_indices",
      "componentType": 5123,
      "count": 36,
      "min": [
        0
      ],
      "max": [
        35
      ],
      "type": "SCALAR",
      "bufferView": 2,
      "byteOffset": 0
    },
    {
      "name": "Mesh3 SummerHosue1 Model_1_positions",
      "componentType": 5126,
      "count": 400,
      "min": [
        -224.29600524902344,
        -1.136870003519419e-13,
        -185.4770050048828
      ],
      "max": [
        266.97100830078125,
        951.2570190429688,
        243.20700073242188
      ],
      "type": "VEC3",
      "bufferView": 0,
      "byteOffset": 432
    },
    {
      "name": "Mesh3 SummerHosue1 Model_1_normals",
      "componentType": 5126,
      "count": 400,
      "min": [
        -0.8736429810523987,
        -1.0958500274750593e-13,
        -0.9999009966850281
      ],
      "max": [
        0.8736429810523987,
        1.0958500274750593e-13,
        0.9999009966850281
      ],
      "type": "VEC3",
      "bufferView": 0,
      "byteOffset": 10128
    },
    {
      "name": "Mesh3 SummerHosue1 Model_1_texcoords",
      "componentType": 5126,
      "count": 400,
      "min": [
        -9.778189659118652,
        -29.290800094604492
      ],
      "max": [
        9.778189659118652,
        38.47760009765625
      ],
      "type": "VEC2",
      "bufferView": 1,
      "byteOffset": 288
    },
    {
      "name": "Mesh3 SummerHosue1 Model_1_0_indices",
      "componentType": 5123,
      "count": 852,
      "min": [
        0
      ],
      "max": [
        399
      ],
      "type": "SCALAR",
      "bufferView": 2,
      "byteOffset": 72
    },
    {
      "name": "Mesh4 SummerHosue1 Model_1_positions",
      "componentType": 5126,
      "count": 120,
      "min": [
        -252.74600219726562,
        -1.136870003519419e-13,
        -210.3159942626953
      ],
      "max": [
        295.4320068359375,
        145.41600036621094,
        268.06500244140625
      ],
      "type": "VEC3",
      "bufferView": 0,
      "byteOffset": 5232
    },
    {
      "name": "Mesh4 SummerHosue1 Model_1_normals",
      "componentType": 5126,
      "count": 120,
      "min": [
        -0.8736429810523987,
        -1,
        -0.9999009966850281
      ],
      "max": [
        0.8736429810523987,
        1,
        0.9999009966850281
      ],
      "type": "VEC3",
      "bufferView": 0,
      "byteOffset": 14928
    },
    {
      "name": "Mesh4 SummerHosue1 Model_1_texcoords",
      "componentType": 5126,
      "count": 120,
      "min": [
        -17.73590087890625,
        -18.53420066833496
      ],
      "max": [
        17.73590087890625,
        38.47760009765625
      ],
      "type": "VEC2",
      "bufferView": 1,
      "byteOffset": 3488
    },
    {
      "name": "Mesh4 SummerHosue1 Model_1_0_indices",
      "componentType": 5123,
      "count": 264,
      "min": [
        0
      ],
      "max": [
        119
      ],
      "type": "SCALAR",
      "bufferView": 2,
      "byteOffset": 1776
    },
    {
      "name": "Mesh5 SummerHosue1 Model_1_positions",
      "componentType": 5126,
      "count": 252,
      "min": [
        -264.2560119628906,
        544.5009765625,
        -213.03399658203125
      ],
      "max": [
        283.9219970703125,
        570.8829956054688,
        265.34600830078125
      ],
      "type": "VEC3",
      "bufferView": 0,
      "byteOffset": 6672
    },
    {
      "name": "Mesh5 SummerHosue1 Model_1_normals",
      "componentType": 5126,
      "count": 252,
      "min": [
        -0.8736429810523987,
        -1,
        -0.9999009966850281
      ],
      "max": [
        0.8736429810523987,
        1,
        0.9999009966850281
      ],
      "type": "VEC3",
      "bufferView": 0,
      "byteOffset": 16368
    },
    {
      "name": "Mesh5 SummerHosue1 Model_1_texcoords",
      "componentType": 5126,
      "count": 252,
      "min": [
        -17.122600555419922,
        -17.956499099731445
      ],
      "max": [
        17.122600555419922,
        21.07979965209961
      ],
      "type": "VEC2",
      "bufferView": 1,
      "byteOffset": 4448
    },
    {
      "name": "Mesh5 SummerHosue1 Model_1_0_indices",
      "componentType": 5123,
      "count": 528,
      "min": [
        0
      ],
      "max": [
        251
      ],
      "type": "SCALAR",
      "bufferView": 2,
      "byteOffset": 2304
    }
  ],
  "asset": {
    "generator": "obj2gltf",
    "version": "2.0"
  },
  "buffers": [
    {
      "name": "SummerHouse_R2",
      "byteLength": 29216,
      "uri": "data:application/octet-stream;base64,"
    }
  ],
  "bufferViews": [
    {
      "name": "bufferView_0",
      "buffer": 0,
      "byteLength": 19392,
      "byteOffset": 0,
      "byteStride": 12,
      "target": 34962
    },
    {
      "name": "bufferView_1",
      "buffer": 0,
      "byteLength": 6464,
      "byteOffset": 19392,
      "byteStride": 8,
      "target": 34962
    },
    {
      "name": "bufferView_2",
      "buffer": 0,
      "byteLength": 3360,
      "byteOffset": 25856,
      "target": 34963
    }
  ],
  "materials": [
    {
      "name": "_6",
      "pbrMetallicRoughness": {
        "baseColorFactor": [
          0.6,
          0.298039,
          0,
          1
        ],
        "metallicFactor": 0,
        "roughnessFactor": 1
      },
      "emissiveFactor": [
        0,
        0,
        0
      ],
      "alphaMode": "OPAQUE",
      "doubleSided": false
    }
  ],
  "meshes": [
    {
      "name": "Mesh1 Group1 SummerHosue1 Model_1",
      "primitives": [
        {
          "attributes": {
            "POSITION": 0,
            "NORMAL": 1,
            "TEXCOORD_0": 2
          },
          "indices": 3,
          "material": 0,
          "mode": 4
        }
      ]
    },
    {
      "name": "Mesh3 SummerHosue1 Model_1",
      "primitives": [
        {
          "attributes": {
            "POSITION": 4,
            "NORMAL": 5,
            "TEXCOORD_0": 6
          },
          "indices": 7,
          "material": 0,
          "mode": 4
        }
      ]
    },
    {
      "name": "Mesh4 SummerHosue1 Model_1",
      "primitives": [
        {
          "attributes": {
            "POSITION": 8,
            "NORMAL": 9,
            "TEXCOORD_0": 10
          },
          "indices": 11,
          "material": 0,
          "mode": 4
        }
      ]
    },
    {
      "name": "Mesh5 SummerHosue1 Model_1",
      "primitives": [
        {
          "attributes": {
            "POSITION": 12,
            "NORMAL": 13,
            "TEXCOORD_0": 14
          },
          "indices": 15,
          "material": 0,
          "mode": 4
        }
      ]
    }
  ],
  "nodes": [
    {
      "name": "Mesh1 Group1 SummerHosue1 Model",
      "mesh": 0
    },
    {
      "name": "Mesh3 SummerHosue1 Model",
      "mesh": 1
    },
    {
      "name": "Mesh4 SummerHosue1 Model",
      "mesh": 2
    },
    {
      "name": "Mesh5 SummerHosue1 Model",
      "mesh": 3
    }
  ],
  "scene": 0,
  "scenes": [
    {
      "nodes": [
        0,
        1,
        2,
        3
      ]
    }
  ]
}
