{
    "accessors": [
        {
            "bufferView": 0,
            "byteOffset": 0,
            "componentType": 5126,
            "count": 3970,
            "max": [
                618.4873046875,
                1693.5155029296875,
                165.7130126953125
            ],
            "min": [
                -384.8125,
                -258.9149169921875,
                -908.2760009765625
            ],
            "name": "accessor_buffer_Mesh11_POSITION_0",
            "type": "VEC3"
        },
        {
            "bufferView": 1,
            "byteOffset": 0,
            "componentType": 5126,
            "count": 3970,
            "max": [
                1.0,
                1.0,
                1.0
            ],
            "min": [
                -1.0,
                -1.0,
                -1.0
            ],
            "name": "accessor_buffer_Mesh11_NORMAL_0",
            "type": "VEC3"
        },
        {
            "bufferView": 2,
            "byteOffset": 0,
            "componentType": 5126,
            "count": 3970,
            "max": [
                0.0,
                103533.0
            ],
            "min": [
                -139567.0,
                1.0
            ],
            "name": "accessor_buffer_Mesh11_TEXCOORD_0_0",
            "type": "VEC2"
        },
        {
            "bufferView": 3,
            "byteOffset": 0,
            "componentType": 5126,
            "count": 3970,
            "max": [
                179893.0,
                119897.0
            ],
            "min": [
                -179893.0,
                1.0
            ],
            "name": "accessor_buffer_Mesh11_TEXCOORD_1_0",
            "type": "VEC2"
        },
        {
            "bufferView": 4,
            "byteOffset": 0,
            "componentType": 5126,
            "count": 3970,
            "max": [
                162270.0,
                210135.0
            ],
            "min": [
                -162006.0,
                -52561.80078125
            ],
            "name": "accessor_buffer_Mesh11_TEXCOORD_2_0",
            "type": "VEC2"
        },
        {
            "bufferView": 5,
            "byteOffset": 0,
            "componentType": 5126,
            "count": 3970,
            "max": [
                162819.0,
                120177.0
            ],
            "min": [
                -162819.0,
                1.0
            ],
            "name": "accessor_buffer_Mesh11_TEXCOORD_3_0",
            "type": "VEC2"
        },
        {
            "bufferView": 6,
            "byteOffset": 0,
            "componentType": 5126,
            "count": 3970,
            "max": [
                151668.0,
                119892.0
            ],
            "min": [
                -151668.0,
                1.0
            ],
            "name": "accessor_buffer_Mesh11_TEXCOORD_4_0",
            "type": "VEC2"
        },
        {
            "bufferView": 7,
            "byteOffset": 0,
            "componentType": 5126,
            "count": 3970,
            "max": [
                162422.0,
                119895.0
            ],
            "min": [
                -162422.0,
                1.0
            ],
            "name": "accessor_buffer_Mesh11_TEXCOORD_5_0",
            "type": "VEC2"
        },
        {
            "bufferView": 8,
            "byteOffset": 0,
            "componentType": 5126,
            "count": 3970,
            "max": [
                173113.0,
                119863.0
            ],
            "min": [
                -173113.0,
                1.0
            ],
            "name": "accessor_buffer_Mesh11_TEXCOORD_6_0",
            "type": "VEC2"
        },
        {
            "bufferView": 9,
            "byteOffset": 0,
            "componentType": 5126,
            "count": 3970,
            "max": [
                180039.0,
                119837.0
            ],
            "min": [
                -180039.0,
                1.0
            ],
            "name": "accessor_buffer_Mesh11_TEXCOORD_7_0",
            "type": "VEC2"
        },
        {
            "bufferView": 10,
            "byteOffset": 0,
            "componentType": 5126,
            "count": 3970,
            "max": [
                138764.0,
                119750.0
            ],
            "min": [
                -138764.0,
                1.0
            ],
            "name": "accessor_buffer_Mesh11_TEXCOORD_8_0",
            "type": "VEC2"
        },
        {
            "bufferView": 11,
            "byteOffset": 0,
            "componentType": 5126,
            "count": 3970,
            "max": [
                182567.0,
                193521.0
            ],
            "min": [
                -182517.0,
                -84162.203125
            ],
            "name": "accessor_buffer_Mesh11_TEXCOORD_9_0",
            "type": "VEC2"
        },
        {
            "bufferView": 12,
            "byteOffset": 0,
            "componentType": 5126,
            "count": 3970,
            "max": [
                162815.0,
                120168.0
            ],
            "min": [
                -162815.0,
                1.0
            ],
            "name": "accessor_buffer_Mesh11_TEXCOORD_10_0",
            "type": "VEC2"
        },
        {
            "bufferView": 17,
            "byteOffset": 0,
            "componentType": 5123,
            "count": 57,
            "max": [
                3865
            ],
            "min": [
                130
            ],
            "name": "accessor_buffer_Mesh11_4",
            "type": "SCALAR"
        },
        {
            "bufferView": 15,
            "byteOffset": 0,
            "componentType": 5123,
            "count": 57,
            "max": [
                3945
            ],
            "min": [
                34
            ],
            "name": "accessor_buffer_Mesh11_2",
            "type": "SCALAR"
        },
        {
            "bufferView": 13,
            "byteOffset": 0,
            "componentType": 5123,
            "count": 1473,
            "max": [
                3966
            ],
            "min": [
                5
            ],
            "name": "accessor_buffer_Mesh11_0",
            "type": "SCALAR"
        },
        {
            "bufferView": 14,
            "byteOffset": 0,
            "componentType": 5123,
            "count": 78,
            "max": [
                3873
            ],
            "min": [
                13
            ],
            "name": "accessor_buffer_Mesh11_1",
            "type": "SCALAR"
        },
        {
            "bufferView": 16,
            "byteOffset": 0,
            "componentType": 5123,
            "count": 48,
            "max": [
                3963
            ],
            "min": [
                76
            ],
            "name": "accessor_buffer_Mesh11_3",
            "type": "SCALAR"
        },
        {
            "bufferView": 18,
            "byteOffset": 0,
            "componentType": 5123,
            "count": 2613,
            "max": [
                3969
            ],
            "min": [
                0
            ],
            "name": "accessor_buffer_Mesh11_5",
            "type": "SCALAR"
        }
    ],
    "asset": {
        "copyright": "",
        "generator": "blendergltf v1.1.0",
        "version": "2.0"
    },
    "bufferViews": [
        {
            "buffer": 0,
            "byteLength": 47640,
            "byteOffset": 0,
            "byteStride": 12,
            "name": "bufferView_buffer_Mesh11_POSITION_0",
            "target": 34962
        },
        {
            "buffer": 1,
            "byteLength": 47640,
            "byteOffset": 0,
            "byteStride": 12,
            "name": "bufferView_buffer_Mesh11_NORMAL_0",
            "target": 34962
        },
        {
            "buffer": 2,
            "byteLength": 31760,
            "byteOffset": 0,
            "byteStride": 8,
            "name": "bufferView_buffer_Mesh11_TEXCOORD_0_0",
            "target": 34962
        },
        {
            "buffer": 3,
            "byteLength": 31760,
            "byteOffset": 0,
            "byteStride": 8,
            "name": "bufferView_buffer_Mesh11_TEXCOORD_1_0",
            "target": 34962
        },
        {
            "buffer": 4,
            "byteLength": 31760,
            "byteOffset": 0,
            "byteStride": 8,
            "name": "bufferView_buffer_Mesh11_TEXCOORD_2_0",
            "target": 34962
        },
        {
            "buffer": 5,
            "byteLength": 31760,
            "byteOffset": 0,
            "byteStride": 8,
            "name": "bufferView_buffer_Mesh11_TEXCOORD_3_0",
            "target": 34962
        },
        {
            "buffer": 6,
            "byteLength": 31760,
            "byteOffset": 0,
            "byteStride": 8,
            "name": "bufferView_buffer_Mesh11_TEXCOORD_4_0",
            "target": 34962
        },
        {
            "buffer": 7,
            "byteLength": 31760,
            "byteOffset": 0,
            "byteStride": 8,
            "name": "bufferView_buffer_Mesh11_TEXCOORD_5_0",
            "target": 34962
        },
        {
            "buffer": 8,
            "byteLength": 31760,
            "byteOffset": 0,
            "byteStride": 8,
            "name": "bufferView_buffer_Mesh11_TEXCOORD_6_0",
            "target": 34962
        },
        {
            "buffer": 9,
            "byteLength": 31760,
            "byteOffset": 0,
            "byteStride": 8,
            "name": "bufferView_buffer_Mesh11_TEXCOORD_7_0",
            "target": 34962
        },
        {
            "buffer": 10,
            "byteLength": 31760,
            "byteOffset": 0,
            "byteStride": 8,
            "name": "bufferView_buffer_Mesh11_TEXCOORD_8_0",
            "target": 34962
        },
        {
            "buffer": 11,
            "byteLength": 31760,
            "byteOffset": 0,
            "byteStride": 8,
            "name": "bufferView_buffer_Mesh11_TEXCOORD_9_0",
            "target": 34962
        },
        {
            "buffer": 12,
            "byteLength": 31760,
            "byteOffset": 0,
            "byteStride": 8,
            "name": "bufferView_buffer_Mesh11_TEXCOORD_10_0",
            "target": 34962
        },
        {
            "buffer": 13,
            "byteLength": 2948,
            "byteOffset": 0,
            "name": "bufferView_buffer_Mesh11_0",
            "target": 34963
        },
        {
            "buffer": 13,
            "byteLength": 160,
            "byteOffset": 2948,
            "name": "bufferView_buffer_Mesh11_1",
            "target": 34963
        },
        {
            "buffer": 13,
            "byteLength": 116,
            "byteOffset": 3108,
            "name": "bufferView_buffer_Mesh11_2",
            "target": 34963
        },
        {
            "buffer": 13,
            "byteLength": 100,
            "byteOffset": 3224,
            "name": "bufferView_buffer_Mesh11_3",
            "target": 34963
        },
        {
            "buffer": 13,
            "byteLength": 116,
            "byteOffset": 3324,
            "name": "bufferView_buffer_Mesh11_4",
            "target": 34963
        },
        {
            "buffer": 13,
            "byteLength": 5228,
            "byteOffset": 3440,
            "name": "bufferView_buffer_Mesh11_5",
            "target": 34963
        }
    ],
    "buffers": [
        {
            "byteLength": 47640,
            "name": "buffer_Mesh11_POSITION",
            "uri": "data:application/octet-stream;base64,"
        },
        {
            "byteLength": 47640,
            "name": "buffer_Mesh11_NORMAL",
            "uri": "data:application/octet-stream;base64,"
        },
        {
            "byteLength": 31760,
            "name": "buffer_Mesh11_TEXCOORD_0",
            "uri": "data:application/octet-stream;base64,"
        },
        {
            "byteLength": 31760,
            "name": "buffer_Mesh11_TEXCOORD_1",
            "uri": "data:application/octet-stream;base64,"
        },
        {
            "byteLength": 31760,
            "name": "buffer_Mesh11_TEXCOORD_2",
            "uri": "data:application/octet-stream;base64,"
        },
        {
            "byteLength": 31760,
            "name": "buffer_Mesh11_TEXCOORD_3",
            "uri": "data:application/octet-stream;base64,"
        },
        {
            "byteLength": 31760,
            "name": "buffer_Mesh11_TEXCOORD_4",
            "uri": "data:application/octet-stream;base64,"
        },
        {
            "byteLength": 31760,
            "name": "buffer_Mesh11_TEXCOORD_5",
            "uri": "data:application/octet-stream;base64,"
        },
        {
            "byteLength": 31760,
            "name": "buffer_Mesh11_TEXCOORD_6",
            "uri": "data:application/octet-stream;base64,"
        },
        {
            "byteLength": 31760,
            "name": "buffer_Mesh11_TEXCOORD_7",
            "uri": "data:application/octet-stream;base64,"
        },
        {
            "byteLength": 31760,
            "name": "buffer_Mesh11_TEXCOORD_8",
            "uri": "data:application/octet-stream;base64,"
        },
        {
            "byteLength": 31760,
            "name": "buffer_Mesh11_TEXCOORD_9",
            "uri": "data:application/octet-stream;base64,"
        },
        {
            "byteLength": 31760,
            "name": "buffer_Mesh11_TEXCOORD_10",
            "uri": "data:application/octet-stream;base64,"
        },
        {
            "byteLength": 8668,
            "name": "buffer_Mesh11",
            "uri": "data:application/octet-stream;base64,"
        }
    ],
    "materials": [
        {
            "doubleSided": false,
            "emissiveFactor": [
                0.0,
                0.0,
                0.0
            ],
            "name": "_22",
            "pbrMetallicRoughness": {
                "baseColorFactor": [
                    0.1254899948835373,
                    0.5686269998550415,
                    0.08627499639987946,
                    1.0
                ],
                "metallicFactor": 0.0,
                "roughnessFactor": 1.0
            }
        },
        {
            "doubleSided": false,
            "emissiveFactor": [
                0.0,
                0.0,
                0.0
            ],
            "name": "_38",
            "pbrMetallicRoughness": {
                "baseColorFactor": [
                    0.0,
                    0.4000000059604645,
                    0.0,
                    1.0
                ],
                "metallicFactor": 0.0,
                "roughnessFactor": 1.0
            }
        },
        {
            "doubleSided": false,
            "emissiveFactor": [
                0.0,
                0.0,
                0.0
            ],
            "name": "_6",
            "pbrMetallicRoughness": {
                "baseColorFactor": [
                    0.6000000238418579,
                    0.2980389893054962,
                    0.0,
                    1.0
                ],
                "metallicFactor": 0.0,
                "roughnessFactor": 1.0
            }
        },
        {
            "doubleSided": false,
            "emissiveFactor": [
                0.0,
                0.0,
                0.0
            ],
            "name": "_9",
            "pbrMetallicRoughness": {
                "baseColorFactor": [
                    0.4000000059604645,
                    0.20000000298023224,
                    0.0,
                    1.0
                ],
                "metallicFactor": 0.0,
                "roughnessFactor": 1.0
            }
        },
        {
            "doubleSided": false,
            "emissiveFactor": [
                0.0,
                0.0,
                0.0
            ],
            "name": "BackColor",
            "pbrMetallicRoughness": {
                "baseColorFactor": [
                    0.6705880165100098,
                    0.6901959776878357,
                    0.800000011920929,
                    1.0
                ],
                "metallicFactor": 0.0,
                "roughnessFactor": 1.0
            }
        },
        {
            "doubleSided": false,
            "emissiveFactor": [
                0.0,
                0.0,
                0.0
            ],
            "name": "Color_B08",
            "pbrMetallicRoughness": {
                "baseColorFactor": [
                    0.4000000059604645,
                    0.09803900122642517,
                    0.0,
                    1.0
                ],
                "metallicFactor": 0.0,
                "roughnessFactor": 1.0
            }
        }
    ],
    "meshes": [
        {
            "name": "Mesh11",
            "primitives": [
                {
                    "attributes": {
                        "NORMAL": 1,
                        "POSITION": 0,
                        "TEXCOORD_0": 2,
                        "TEXCOORD_1": 3,
                        "TEXCOORD_10": 12,
                        "TEXCOORD_2": 4,
                        "TEXCOORD_3": 5,
                        "TEXCOORD_4": 6,
                        "TEXCOORD_5": 7,
                        "TEXCOORD_6": 8,
                        "TEXCOORD_7": 9,
                        "TEXCOORD_8": 10,
                        "TEXCOORD_9": 11
                    },
                    "indices": 15,
                    "material": 2,
                    "mode": 4
                },
                {
                    "attributes": {
                        "NORMAL": 1,
                        "POSITION": 0,
                        "TEXCOORD_0": 2,
                        "TEXCOORD_1": 3,
                        "TEXCOORD_10": 12,
                        "TEXCOORD_2": 4,
                        "TEXCOORD_3": 5,
                        "TEXCOORD_4": 6,
                        "TEXCOORD_5": 7,
                        "TEXCOORD_6": 8,
                        "TEXCOORD_7": 9,
                        "TEXCOORD_8": 10,
                        "TEXCOORD_9": 11
                    },
                    "indices": 16,
                    "material": 5,
                    "mode": 4
                },
                {
                    "attributes": {
                        "NORMAL": 1,
                        "POSITION": 0,
                        "TEXCOORD_0": 2,
                        "TEXCOORD_1": 3,
                        "TEXCOORD_10": 12,
                        "TEXCOORD_2": 4,
                        "TEXCOORD_3": 5,
                        "TEXCOORD_4": 6,
                        "TEXCOORD_5": 7,
                        "TEXCOORD_6": 8,
                        "TEXCOORD_7": 9,
                        "TEXCOORD_8": 10,
                        "TEXCOORD_9": 11
                    },
                    "indices": 14,
                    "material": 0,
                    "mode": 4
                },
                {
                    "attributes": {
                        "NORMAL": 1,
                        "POSITION": 0,
                        "TEXCOORD_0": 2,
                        "TEXCOORD_1": 3,
                        "TEXCOORD_10": 12,
                        "TEXCOORD_2": 4,
                        "TEXCOORD_3": 5,
                        "TEXCOORD_4": 6,
                        "TEXCOORD_5": 7,
                        "TEXCOORD_6": 8,
                        "TEXCOORD_7": 9,
                        "TEXCOORD_8": 10,
                        "TEXCOORD_9": 11
                    },
                    "indices": 17,
                    "material": 4,
                    "mode": 4
                },
                {
                    "attributes": {
                        "NORMAL": 1,
                        "POSITION": 0,
                        "TEXCOORD_0": 2,
                        "TEXCOORD_1": 3,
                        "TEXCOORD_10": 12,
                        "TEXCOORD_2": 4,
                        "TEXCOORD_3": 5,
                        "TEXCOORD_4": 6,
                        "TEXCOORD_5": 7,
                        "TEXCOORD_6": 8,
                        "TEXCOORD_7": 9,
                        "TEXCOORD_8": 10,
                        "TEXCOORD_9": 11
                    },
                    "indices": 13,
                    "material": 1,
                    "mode": 4
                },
                {
                    "attributes": {
                        "NORMAL": 1,
                        "POSITION": 0,
                        "TEXCOORD_0": 2,
                        "TEXCOORD_1": 3,
                        "TEXCOORD_10": 12,
                        "TEXCOORD_2": 4,
                        "TEXCOORD_3": 5,
                        "TEXCOORD_4": 6,
                        "TEXCOORD_5": 7,
                        "TEXCOORD_6": 8,
                        "TEXCOORD_7": 9,
                        "TEXCOORD_8": 10,
                        "TEXCOORD_9": 11
                    },
                    "indices": 18,
                    "material": 3,
                    "mode": 4
                }
            ]
        }
    ],
    "nodes": [
        {
            "mesh": 0,
            "name": "Mesh2636_Component_6_1_Model",
            "rotation": [
                0.7071068286895752,
                0.0,
                0.0,
                0.7071068286895752
            ],
            "scale": [
                1.0,
                1.0,
                1.0
            ],
            "translation": [
                0.0,
                0.0,
                0.0
            ]
        },
        {
            "children": [
                0
            ],
            "matrix": [
                -1.0,
                0.0,
                0.0,
                0.0,
                0.0,
                0.0,
                1.0,
                0.0,
                0.0,
                1.0,
                0.0,
                0.0,
                0.0,
                0.0,
                0.0,
                1.0
            ],
            "name": "Scene_root"
        }
    ],
    "scene": 0,
    "scenes": [
        {
            "extras": {
                "background_color": [
                    0.05087608844041824,
                    0.05087608844041824,
                    0.05087608844041824
                ],
                "frames_per_second": 24
            },
            "name": "Scene",
            "nodes": [
                1
            ]
        }
    ]
}
