{
  "accessors": [
    {
      "name": "Ground_Mesh753_Garden1_Component_1_1_Model-Mesh_positions",
      "componentType": 5126,
      "count": 1604,
      "min": [
        -2155,
        0.00017899999511428177,
        -1185.8599853515625
      ],
      "max": [
        2160.159912109375,
        1489.439697265625,
        1401.72021484375
      ],
      "type": "VEC3",
      "bufferView": 0,
      "byteOffset": 0
    },
    {
      "name": "Ground_Mesh753_Garden1_Component_1_1_Model-Mesh_normals",
      "componentType": 5126,
      "count": 1604,
      "min": [
        -0.9735000133514404,
        -0.9527000188827515,
        -0.9375
      ],
      "max": [
        0.9731000065803528,
        0.9987999796867371,
        0.9375
      ],
      "type": "VEC3",
      "bufferView": 0,
      "byteOffset": 356724
    },
    {
      "name": "Ground_Mesh753_Garden1_Component_1_1_Model-Mesh_texcoords",
      "componentType": 5126,
      "count": 1604,
      "min": [
        -2461.18994140625,
        -1852.5400390625
      ],
      "max": [
        2493.419921875,
        247.38800048828125
      ],
      "type": "VEC2",
      "bufferView": 1,
      "byteOffset": 0
    },
    {
      "name": "Ground_Mesh753_Garden1_Component_1_1_Model-Mesh_0_indices",
      "componentType": 5123,
      "count": 66,
      "min": [
        0
      ],
      "max": [
        60
      ],
      "type": "SCALAR",
      "bufferView": 2,
      "byteOffset": 0
    },
    {
      "name": "Ground_Mesh753_Garden1_Component_1_1_Model-Mesh_1_indices",
      "componentType": 5123,
      "count": 300,
      "min": [
        61
      ],
      "max": [
        233
      ],
      "type": "SCALAR",
      "bufferView": 2,
      "byteOffset": 132
    },
    {
      "name": "Ground_Mesh753_Garden1_Component_1_1_Model-Mesh_2_indices",
      "componentType": 5123,
      "count": 1056,
      "min": [
        234
      ],
      "max": [
        953
      ],
      "type": "SCALAR",
      "bufferView": 2,
      "byteOffset": 732
    },
    {
      "name": "Ground_Mesh753_Garden1_Component_1_1_Model-Mesh_3_indices",
      "componentType": 5123,
      "count": 882,
      "min": [
        954
      ],
      "max": [
        1603
      ],
      "type": "SCALAR",
      "bufferView": 2,
      "byteOffset": 2844
    },
    {
      "name": "Flowers_Mesh1014_Group58_Garden2_Component_1_1_Model-Mesh_positions",
      "componentType": 5126,
      "count": 25549,
      "min": [
        -1997.782958984375,
        310.1817932128906,
        -1098.2225341796875
      ],
      "max": [
        1944.2464599609375,
        1552.517822265625,
        1189.9525146484375
      ],
      "type": "VEC3",
      "bufferView": 0,
      "byteOffset": 19248
    },
    {
      "name": "Flowers_Mesh1014_Group58_Garden2_Component_1_1_Model-Mesh_normals",
      "componentType": 5126,
      "count": 25549,
      "min": [
        -0.9994999766349792,
        -0.9998999834060669,
        -0.9998000264167786
      ],
      "max": [
        0.9998999834060669,
        0.9998999834060669,
        0.9998999834060669
      ],
      "type": "VEC3",
      "bufferView": 0,
      "byteOffset": 375972
    },
    {
      "name": "Flowers_Mesh1014_Group58_Garden2_Component_1_1_Model-Mesh_texcoords",
      "componentType": 5126,
      "count": 25549,
      "min": [
        -279.1189880371094,
        -270.47100830078125
      ],
      "max": [
        277.8370056152344,
        206.68499755859375
      ],
      "type": "VEC2",
      "bufferView": 1,
      "byteOffset": 12832
    },
    {
      "name": "Flowers_Mesh1014_Group58_Garden2_Component_1_1_Model-Mesh_0_indices",
      "componentType": 5123,
      "count": 14268,
      "min": [
        0
      ],
      "max": [
        13550
      ],
      "type": "SCALAR",
      "bufferView": 2,
      "byteOffset": 4608
    },
    {
      "name": "Flowers_Mesh1014_Group58_Garden2_Component_1_1_Model-Mesh_1_indices",
      "componentType": 5123,
      "count": 3258,
      "min": [
        13551
      ],
      "max": [
        16529
      ],
      "type": "SCALAR",
      "bufferView": 2,
      "byteOffset": 33144
    },
    {
      "name": "Flowers_Mesh1014_Group58_Garden2_Component_1_1_Model-Mesh_2_indices",
      "componentType": 5123,
      "count": 2055,
      "min": [
        16530
      ],
      "max": [
        18584
      ],
      "type": "SCALAR",
      "bufferView": 2,
      "byteOffset": 39660
    },
    {
      "name": "Flowers_Mesh1014_Group58_Garden2_Component_1_1_Model-Mesh_3_indices",
      "componentType": 5123,
      "count": 2913,
      "min": [
        18585
      ],
      "max": [
        21251
      ],
      "type": "SCALAR",
      "bufferView": 2,
      "byteOffset": 43772
    },
    {
      "name": "Flowers_Mesh1014_Group58_Garden2_Component_1_1_Model-Mesh_4_indices",
      "componentType": 5123,
      "count": 750,
      "min": [
        21252
      ],
      "max": [
        22001
      ],
      "type": "SCALAR",
      "bufferView": 2,
      "byteOffset": 49600
    },
    {
      "name": "Flowers_Mesh1014_Group58_Garden2_Component_1_1_Model-Mesh_5_indices",
      "componentType": 5123,
      "count": 804,
      "min": [
        22002
      ],
      "max": [
        22743
      ],
      "type": "SCALAR",
      "bufferView": 2,
      "byteOffset": 51100
    },
    {
      "name": "Flowers_Mesh1014_Group58_Garden2_Component_1_1_Model-Mesh_6_indices",
      "componentType": 5123,
      "count": 570,
      "min": [
        22744
      ],
      "max": [
        23265
      ],
      "type": "SCALAR",
      "bufferView": 2,
      "byteOffset": 52708
    },
    {
      "name": "Flowers_Mesh1014_Group58_Garden2_Component_1_1_Model-Mesh_7_indices",
      "componentType": 5123,
      "count": 1809,
      "min": [
        23266
      ],
      "max": [
        25074
      ],
      "type": "SCALAR",
      "bufferView": 2,
      "byteOffset": 53848
    },
    {
      "name": "Flowers_Mesh1014_Group58_Garden2_Component_1_1_Model-Mesh_8_indices",
      "componentType": 5123,
      "count": 474,
      "min": [
        25075
      ],
      "max": [
        25548
      ],
      "type": "SCALAR",
      "bufferView": 2,
      "byteOffset": 57468
    },
    {
      "name": "Fence_Mesh752_Fence4_Garden1_Component_1_1_Model-Mesh_positions",
      "componentType": 5126,
      "count": 2574,
      "min": [
        -2191.679931640625,
        234.69618225097656,
        -1252.5499267578125
      ],
      "max": [
        2126.580078125,
        1727.259765625,
        1308.310302734375
      ],
      "type": "VEC3",
      "bufferView": 0,
      "byteOffset": 325836
    },
    {
      "name": "Fence_Mesh752_Fence4_Garden1_Component_1_1_Model-Mesh_normals",
      "componentType": 5126,
      "count": 2574,
      "min": [
        -0.9837999939918518,
        -0.9575999975204468,
        -0.9713000059127808
      ],
      "max": [
        0.9962000250816345,
        0.9866999983787537,
        0.957099974155426
      ],
      "type": "VEC3",
      "bufferView": 0,
      "byteOffset": 682560
    },
    {
      "name": "Fence_Mesh752_Fence4_Garden1_Component_1_1_Model-Mesh_texcoords",
      "componentType": 5126,
      "count": 2574,
      "min": [
        -901.3779907226562,
        -165.4770050048828
      ],
      "max": [
        0,
        1
      ],
      "type": "VEC2",
      "bufferView": 1,
      "byteOffset": 217224
    },
    {
      "name": "Fence_Mesh752_Fence4_Garden1_Component_1_1_Model-Mesh_0_indices",
      "componentType": 5123,
      "count": 4344,
      "min": [
        0
      ],
      "max": [
        2573
      ],
      "type": "SCALAR",
      "bufferView": 2,
      "byteOffset": 58416
    }
  ],
  "asset": {
    "generator": "obj2gltf",
    "version": "2.0"
  },
  "buffers": [
    {
      "name": "AlanGarden_v4",
      "byteLength": 1018368,
      "uri": "data:application/octet-stream;base64,"
    }
  ],
  "bufferViews": [
    {
      "name": "bufferView_0",
      "buffer": 0,
      "byteLength": 713448,
      "byteOffset": 0,
      "byteStride": 12,
      "target": 34962
    },
    {
      "name": "bufferView_1",
      "buffer": 0,
      "byteLength": 237816,
      "byteOffset": 713448,
      "byteStride": 8,
      "target": 34962
    },
    {
      "name": "bufferView_2",
      "buffer": 0,
      "byteLength": 67104,
      "byteOffset": 951264,
      "target": 34963
    }
  ],
  "materials": [
    {
      "name": "_9",
      "pbrMetallicRoughness": {
        "baseColorFactor": [
          0.4,
          0.2,
          0,
          1
        ],
        "metallicFactor": 0,
        "roughnessFactor": 0.903921569
      },
      "emissiveFactor": [
        0,
        0,
        0
      ],
      "alphaMode": "OPAQUE",
      "doubleSided": false
    },
    {
      "name": "_33",
      "pbrMetallicRoughness": {
        "baseColorFactor": [
          0.298039,
          0.6,
          0,
          1
        ],
        "metallicFactor": 0,
        "roughnessFactor": 0.903921569
      },
      "emissiveFactor": [
        0,
        0,
        0
      ],
      "alphaMode": "OPAQUE",
      "doubleSided": false
    },
    {
      "name": "_51",
      "pbrMetallicRoughness": {
        "baseColorFactor": [
          0.062745,
          0.498039,
          0.003922,
          1
        ],
        "metallicFactor": 0,
        "roughnessFactor": 0.903921569
      },
      "emissiveFactor": [
        0,
        0,
        0
      ],
      "alphaMode": "OPAQUE",
      "doubleSided": false
    },
    {
      "name": "Color_C08",
      "pbrMetallicRoughness": {
        "baseColorFactor": [
          0.4,
          0.2,
          0,
          1
        ],
        "metallicFactor": 0,
        "roughnessFactor": 0.903921569
      },
      "emissiveFactor": [
        0,
        0,
        0
      ],
      "alphaMode": "OPAQUE",
      "doubleSided": false
    },
    {
      "name": "_47",
      "pbrMetallicRoughness": {
        "baseColorFactor": [
          0.6,
          0.196078,
          1,
          1
        ],
        "metallicFactor": 0,
        "roughnessFactor": 0.903921569
      },
      "emissiveFactor": [
        0,
        0,
        0
      ],
      "alphaMode": "OPAQUE",
      "doubleSided": false
    },
    {
      "name": "_48",
      "pbrMetallicRoughness": {
        "baseColorFactor": [
          0.8,
          0.6,
          1,
          1
        ],
        "metallicFactor": 0,
        "roughnessFactor": 0.903921569
      },
      "emissiveFactor": [
        0,
        0,
        0
      ],
      "alphaMode": "OPAQUE",
      "doubleSided": false
    },
    {
      "name": "_49",
      "pbrMetallicRoughness": {
        "baseColorFactor": [
          1,
          0.6,
          0.8,
          1
        ],
        "metallicFactor": 0,
        "roughnessFactor": 0.903921569
      },
      "emissiveFactor": [
        0,
        0,
        0
      ],
      "alphaMode": "OPAQUE",
      "doubleSided": false
    },
    {
      "name": "_46",
      "pbrMetallicRoughness": {
        "baseColorFactor": [
          0.8,
          0.4,
          0,
          1
        ],
        "metallicFactor": 0,
        "roughnessFactor": 0.903921569
      },
      "emissiveFactor": [
        0,
        0,
        0
      ],
      "alphaMode": "OPAQUE",
      "doubleSided": false
    },
    {
      "name": "_32",
      "pbrMetallicRoughness": {
        "baseColorFactor": [
          1,
          0.74902,
          0,
          1
        ],
        "metallicFactor": 0,
        "roughnessFactor": 0.903921569
      },
      "emissiveFactor": [
        0,
        0,
        0
      ],
      "alphaMode": "OPAQUE",
      "doubleSided": false
    },
    {
      "name": "_34",
      "pbrMetallicRoughness": {
        "baseColorFactor": [
          1,
          0.8,
          0.196078,
          1
        ],
        "metallicFactor": 0,
        "roughnessFactor": 0.903921569
      },
      "emissiveFactor": [
        0,
        0,
        0
      ],
      "alphaMode": "OPAQUE",
      "doubleSided": false
    },
    {
      "name": "_50",
      "pbrMetallicRoughness": {
        "baseColorFactor": [
          0.8,
          0,
          0.392157,
          1
        ],
        "metallicFactor": 0,
        "roughnessFactor": 0.903921569
      },
      "emissiveFactor": [
        0,
        0,
        0
      ],
      "alphaMode": "OPAQUE",
      "doubleSided": false
    },
    {
      "name": "_31",
      "pbrMetallicRoughness": {
        "baseColorFactor": [
          1,
          0.498039,
          0,
          1
        ],
        "metallicFactor": 0,
        "roughnessFactor": 0.903921569
      },
      "emissiveFactor": [
        0,
        0,
        0
      ],
      "alphaMode": "OPAQUE",
      "doubleSided": false
    }
  ],
  "meshes": [
    {
      "name": "Ground_Mesh753_Garden1_Component_1_1_Model-Mesh",
      "primitives": [
        {
          "attributes": {
            "POSITION": 0,
            "NORMAL": 1,
            "TEXCOORD_0": 2
          },
          "indices": 3,
          "material": 0,
          "mode": 4
        },
        {
          "attributes": {
            "POSITION": 0,
            "NORMAL": 1,
            "TEXCOORD_0": 2
          },
          "indices": 4,
          "material": 1,
          "mode": 4
        },
        {
          "attributes": {
            "POSITION": 0,
            "NORMAL": 1,
            "TEXCOORD_0": 2
          },
          "indices": 5,
          "material": 2,
          "mode": 4
        },
        {
          "attributes": {
            "POSITION": 0,
            "NORMAL": 1,
            "TEXCOORD_0": 2
          },
          "indices": 6,
          "material": 3,
          "mode": 4
        }
      ]
    },
    {
      "name": "Flowers_Mesh1014_Group58_Garden2_Component_1_1_Model-Mesh",
      "primitives": [
        {
          "attributes": {
            "POSITION": 7,
            "NORMAL": 8,
            "TEXCOORD_0": 9
          },
          "indices": 10,
          "material": 0,
          "mode": 4
        },
        {
          "attributes": {
            "POSITION": 7,
            "NORMAL": 8,
            "TEXCOORD_0": 9
          },
          "indices": 11,
          "material": 4,
          "mode": 4
        },
        {
          "attributes": {
            "POSITION": 7,
            "NORMAL": 8,
            "TEXCOORD_0": 9
          },
          "indices": 12,
          "material": 5,
          "mode": 4
        },
        {
          "attributes": {
            "POSITION": 7,
            "NORMAL": 8,
            "TEXCOORD_0": 9
          },
          "indices": 13,
          "material": 6,
          "mode": 4
        },
        {
          "attributes": {
            "POSITION": 7,
            "NORMAL": 8,
            "TEXCOORD_0": 9
          },
          "indices": 14,
          "material": 7,
          "mode": 4
        },
        {
          "attributes": {
            "POSITION": 7,
            "NORMAL": 8,
            "TEXCOORD_0": 9
          },
          "indices": 15,
          "material": 8,
          "mode": 4
        },
        {
          "attributes": {
            "POSITION": 7,
            "NORMAL": 8,
            "TEXCOORD_0": 9
          },
          "indices": 16,
          "material": 9,
          "mode": 4
        },
        {
          "attributes": {
            "POSITION": 7,
            "NORMAL": 8,
            "TEXCOORD_0": 9
          },
          "indices": 17,
          "material": 10,
          "mode": 4
        },
        {
          "attributes": {
            "POSITION": 7,
            "NORMAL": 8,
            "TEXCOORD_0": 9
          },
          "indices": 18,
          "material": 11,
          "mode": 4
        }
      ]
    },
    {
      "name": "Fence_Mesh752_Fence4_Garden1_Component_1_1_Model-Mesh",
      "primitives": [
        {
          "attributes": {
            "POSITION": 19,
            "NORMAL": 20,
            "TEXCOORD_0": 21
          },
          "indices": 22,
          "material": 3,
          "mode": 4
        }
      ]
    }
  ],
  "nodes": [
    {
      "name": "Ground_Mesh753_Garden1_Component_1_1_Model",
      "mesh": 0
    },
    {
      "name": "Flowers_Mesh1014_Group58_Garden2_Component_1_1_Model",
      "mesh": 1
    },
    {
      "name": "Fence_Mesh752_Fence4_Garden1_Component_1_1_Model",
      "mesh": 2
    }
  ],
  "scene": 0,
  "scenes": [
    {
      "nodes": [
        0,
        1,
        2
      ]
    }
  ]
}
