{
  "accessors": [
    {
      "name": "Ground_Mesh753_Garden1_Component_1_1_Model-Mesh_positions",
      "componentType": 5126,
      "count": 932,
      "min": [
        -2474.05029296875,
        159.05807495117188,
        -999.9520874023438
      ],
      "max": [
        1841.110595703125,
        1648.4979248046875,
        1587.628662109375
      ],
      "type": "VEC3",
      "bufferView": 0,
      "byteOffset": 0
    },
    {
      "name": "Ground_Mesh753_Garden1_Component_1_1_Model-Mesh_texcoords",
      "componentType": 5126,
      "count": 932,
      "min": [
        -2461.18994140625,
        -1852.5400390625
      ],
      "max": [
        2493.419921875,
        247.38800048828125
      ],
      "type": "VEC2",
      "bufferView": 1,
      "byteOffset": 0
    },
    {
      "name": "Ground_Mesh753_Garden1_Component_1_1_Model-Mesh_0_indices",
      "componentType": 5123,
      "count": 66,
      "min": [
        0
      ],
      "max": [
        55
      ],
      "type": "SCALAR",
      "bufferView": 2,
      "byteOffset": 0
    },
    {
      "name": "Ground_Mesh753_Garden1_Component_1_1_Model-Mesh_1_indices",
      "componentType": 5123,
      "count": 294,
      "min": [
        56
      ],
      "max": [
        185
      ],
      "type": "SCALAR",
      "bufferView": 2,
      "byteOffset": 132
    },
    {
      "name": "Ground_Mesh753_Garden1_Component_1_1_Model-Mesh_2_indices",
      "componentType": 5123,
      "count": 1056,
      "min": [
        64
      ],
      "max": [
        739
      ],
      "type": "SCALAR",
      "bufferView": 2,
      "byteOffset": 720
    },
    {
      "name": "Ground_Mesh753_Garden1_Component_1_1_Model-Mesh_3_indices",
      "componentType": 5123,
      "count": 876,
      "min": [
        1
      ],
      "max": [
        931
      ],
      "type": "SCALAR",
      "bufferView": 2,
      "byteOffset": 2832
    },
    {
      "name": "Flowers_Mesh1014_Group58_Garden2_Component_1_1_Model-Mesh_positions",
      "componentType": 5126,
      "count": 21089,
      "min": [
        -2315.9267578125,
        469.1789245605469,
        -904.7389526367188
      ],
      "max": [
        1626.2177734375,
        1713.872314453125,
        1379.64599609375
      ],
      "type": "VEC3",
      "bufferView": 0,
      "byteOffset": 11184
    },
    {
      "name": "Flowers_Mesh1014_Group58_Garden2_Component_1_1_Model-Mesh_texcoords",
      "componentType": 5126,
      "count": 21089,
      "min": [
        -279.1189880371094,
        -271.4867858886719
      ],
      "max": [
        277.8370056152344,
        206.68499755859375
      ],
      "type": "VEC2",
      "bufferView": 1,
      "byteOffset": 7456
    },
    {
      "name": "Flowers_Mesh1014_Group58_Garden2_Component_1_1_Model-Mesh_0_indices",
      "componentType": 5123,
      "count": 16224,
      "min": [
        0
      ],
      "max": [
        14605
      ],
      "type": "SCALAR",
      "bufferView": 2,
      "byteOffset": 4584
    },
    {
      "name": "Flowers_Mesh1014_Group58_Garden2_Component_1_1_Model-Mesh_1_indices",
      "componentType": 5123,
      "count": 1602,
      "min": [
        93
      ],
      "max": [
        15739
      ],
      "type": "SCALAR",
      "bufferView": 2,
      "byteOffset": 37032
    },
    {
      "name": "Flowers_Mesh1014_Group58_Garden2_Component_1_1_Model-Mesh_2_indices",
      "componentType": 5123,
      "count": 1386,
      "min": [
        15740
      ],
      "max": [
        17125
      ],
      "type": "SCALAR",
      "bufferView": 2,
      "byteOffset": 40236
    },
    {
      "name": "Flowers_Mesh1014_Group58_Garden2_Component_1_1_Model-Mesh_3_indices",
      "componentType": 5123,
      "count": 1434,
      "min": [
        191
      ],
      "max": [
        18155
      ],
      "type": "SCALAR",
      "bufferView": 2,
      "byteOffset": 43008
    },
    {
      "name": "Flowers_Mesh1014_Group58_Garden2_Component_1_1_Model-Mesh_4_indices",
      "componentType": 5123,
      "count": 552,
      "min": [
        18156
      ],
      "max": [
        18707
      ],
      "type": "SCALAR",
      "bufferView": 2,
      "byteOffset": 45876
    },
    {
      "name": "Flowers_Mesh1014_Group58_Garden2_Component_1_1_Model-Mesh_5_indices",
      "componentType": 5123,
      "count": 696,
      "min": [
        218
      ],
      "max": [
        19234
      ],
      "type": "SCALAR",
      "bufferView": 2,
      "byteOffset": 46980
    },
    {
      "name": "Flowers_Mesh1014_Group58_Garden2_Component_1_1_Model-Mesh_6_indices",
      "componentType": 5123,
      "count": 387,
      "min": [
        105
      ],
      "max": [
        19495
      ],
      "type": "SCALAR",
      "bufferView": 2,
      "byteOffset": 48372
    },
    {
      "name": "Flowers_Mesh1014_Group58_Garden2_Component_1_1_Model-Mesh_7_indices",
      "componentType": 5123,
      "count": 1233,
      "min": [
        19496
      ],
      "max": [
        20728
      ],
      "type": "SCALAR",
      "bufferView": 2,
      "byteOffset": 49148
    },
    {
      "name": "Flowers_Mesh1014_Group58_Garden2_Component_1_1_Model-Mesh_8_indices",
      "componentType": 5123,
      "count": 360,
      "min": [
        20729
      ],
      "max": [
        21088
      ],
      "type": "SCALAR",
      "bufferView": 2,
      "byteOffset": 51616
    },
    {
      "name": "Fence_Mesh752_Fence4_Garden1_Component_1_1_Model-Mesh_positions",
      "componentType": 5126,
      "count": 1080,
      "min": [
        -2510.730224609375,
        393.754150390625,
        -1066.64208984375
      ],
      "max": [
        1807.53076171875,
        1886.3179931640625,
        1494.21875
      ],
      "type": "VEC3",
      "bufferView": 0,
      "byteOffset": 264252
    },
    {
      "name": "Fence_Mesh752_Fence4_Garden1_Component_1_1_Model-Mesh_texcoords",
      "componentType": 5126,
      "count": 1080,
      "min": [
        -901.3779907226562,
        -165.4770050048828
      ],
      "max": [
        0,
        1
      ],
      "type": "VEC2",
      "bufferView": 1,
      "byteOffset": 176168
    },
    {
      "name": "Fence_Mesh752_Fence4_Garden1_Component_1_1_Model-Mesh_0_indices",
      "componentType": 5123,
      "count": 4344,
      "min": [
        0
      ],
      "max": [
        1079
      ],
      "type": "SCALAR",
      "bufferView": 2,
      "byteOffset": 52336
    }
  ],
  "asset": {
    "generator": "obj2gltf",
    "version": "2.0"
  },
  "buffers": [
    {
      "name": "AlanGarden_v2obj",
      "byteLength": 523044,
      "uri": "data:application/octet-stream;base64,"
    }
  ],
  "bufferViews": [
    {
      "name": "bufferView_0",
      "buffer": 0,
      "byteLength": 277212,
      "byteOffset": 0,
      "byteStride": 12,
      "target": 34962
    },
    {
      "name": "bufferView_1",
      "buffer": 0,
      "byteLength": 184808,
      "byteOffset": 277212,
      "byteStride": 8,
      "target": 34962
    },
    {
      "name": "bufferView_2",
      "buffer": 0,
      "byteLength": 61024,
      "byteOffset": 462020,
      "target": 34963
    }
  ],
  "materials": [
    {
      "name": "_9",
      "pbrMetallicRoughness": {
        "baseColorFactor": [
          0.4,
          0.2,
          0,
          1
        ],
        "metallicFactor": 0,
        "roughnessFactor": 0.903921569
      },
      "emissiveFactor": [
        0,
        0,
        0
      ],
      "alphaMode": "OPAQUE",
      "doubleSided": false
    },
    {
      "name": "_33",
      "pbrMetallicRoughness": {
        "baseColorFactor": [
          0.298039,
          0.6,
          0,
          1
        ],
        "metallicFactor": 0,
        "roughnessFactor": 0.903921569
      },
      "emissiveFactor": [
        0,
        0,
        0
      ],
      "alphaMode": "OPAQUE",
      "doubleSided": false
    },
    {
      "name": "_51",
      "pbrMetallicRoughness": {
        "baseColorFactor": [
          0.062745,
          0.498039,
          0.003922,
          1
        ],
        "metallicFactor": 0,
        "roughnessFactor": 0.903921569
      },
      "emissiveFactor": [
        0,
        0,
        0
      ],
      "alphaMode": "OPAQUE",
      "doubleSided": false
    },
    {
      "name": "Color_C08",
      "pbrMetallicRoughness": {
        "baseColorFactor": [
          0.4,
          0.2,
          0,
          1
        ],
        "metallicFactor": 0,
        "roughnessFactor": 0.903921569
      },
      "emissiveFactor": [
        0,
        0,
        0
      ],
      "alphaMode": "OPAQUE",
      "doubleSided": false
    },
    {
      "name": "_47",
      "pbrMetallicRoughness": {
        "baseColorFactor": [
          0.6,
          0.196078,
          1,
          1
        ],
        "metallicFactor": 0,
        "roughnessFactor": 0.903921569
      },
      "emissiveFactor": [
        0,
        0,
        0
      ],
      "alphaMode": "OPAQUE",
      "doubleSided": false
    },
    {
      "name": "_48",
      "pbrMetallicRoughness": {
        "baseColorFactor": [
          0.8,
          0.6,
          1,
          1
        ],
        "metallicFactor": 0,
        "roughnessFactor": 0.903921569
      },
      "emissiveFactor": [
        0,
        0,
        0
      ],
      "alphaMode": "OPAQUE",
      "doubleSided": false
    },
    {
      "name": "_49",
      "pbrMetallicRoughness": {
        "baseColorFactor": [
          1,
          0.6,
          0.8,
          1
        ],
        "metallicFactor": 0,
        "roughnessFactor": 0.903921569
      },
      "emissiveFactor": [
        0,
        0,
        0
      ],
      "alphaMode": "OPAQUE",
      "doubleSided": false
    },
    {
      "name": "_46",
      "pbrMetallicRoughness": {
        "baseColorFactor": [
          0.8,
          0.4,
          0,
          1
        ],
        "metallicFactor": 0,
        "roughnessFactor": 0.903921569
      },
      "emissiveFactor": [
        0,
        0,
        0
      ],
      "alphaMode": "OPAQUE",
      "doubleSided": false
    },
    {
      "name": "_32",
      "pbrMetallicRoughness": {
        "baseColorFactor": [
          1,
          0.74902,
          0,
          1
        ],
        "metallicFactor": 0,
        "roughnessFactor": 0.903921569
      },
      "emissiveFactor": [
        0,
        0,
        0
      ],
      "alphaMode": "OPAQUE",
      "doubleSided": false
    },
    {
      "name": "_34",
      "pbrMetallicRoughness": {
        "baseColorFactor": [
          1,
          0.8,
          0.196078,
          1
        ],
        "metallicFactor": 0,
        "roughnessFactor": 0.903921569
      },
      "emissiveFactor": [
        0,
        0,
        0
      ],
      "alphaMode": "OPAQUE",
      "doubleSided": false
    },
    {
      "name": "_50",
      "pbrMetallicRoughness": {
        "baseColorFactor": [
          0.8,
          0,
          0.392157,
          1
        ],
        "metallicFactor": 0,
        "roughnessFactor": 0.903921569
      },
      "emissiveFactor": [
        0,
        0,
        0
      ],
      "alphaMode": "OPAQUE",
      "doubleSided": false
    },
    {
      "name": "_31",
      "pbrMetallicRoughness": {
        "baseColorFactor": [
          1,
          0.498039,
          0,
          1
        ],
        "metallicFactor": 0,
        "roughnessFactor": 0.903921569
      },
      "emissiveFactor": [
        0,
        0,
        0
      ],
      "alphaMode": "OPAQUE",
      "doubleSided": false
    }
  ],
  "meshes": [
    {
      "name": "Ground_Mesh753_Garden1_Component_1_1_Model-Mesh",
      "primitives": [
        {
          "attributes": {
            "POSITION": 0,
            "TEXCOORD_0": 1
          },
          "indices": 2,
          "material": 0,
          "mode": 4
        },
        {
          "attributes": {
            "POSITION": 0,
            "TEXCOORD_0": 1
          },
          "indices": 3,
          "material": 1,
          "mode": 4
        },
        {
          "attributes": {
            "POSITION": 0,
            "TEXCOORD_0": 1
          },
          "indices": 4,
          "material": 2,
          "mode": 4
        },
        {
          "attributes": {
            "POSITION": 0,
            "TEXCOORD_0": 1
          },
          "indices": 5,
          "material": 3,
          "mode": 4
        }
      ]
    },
    {
      "name": "Flowers_Mesh1014_Group58_Garden2_Component_1_1_Model-Mesh",
      "primitives": [
        {
          "attributes": {
            "POSITION": 6,
            "TEXCOORD_0": 7
          },
          "indices": 8,
          "material": 0,
          "mode": 4
        },
        {
          "attributes": {
            "POSITION": 6,
            "TEXCOORD_0": 7
          },
          "indices": 9,
          "material": 4,
          "mode": 4
        },
        {
          "attributes": {
            "POSITION": 6,
            "TEXCOORD_0": 7
          },
          "indices": 10,
          "material": 5,
          "mode": 4
        },
        {
          "attributes": {
            "POSITION": 6,
            "TEXCOORD_0": 7
          },
          "indices": 11,
          "material": 6,
          "mode": 4
        },
        {
          "attributes": {
            "POSITION": 6,
            "TEXCOORD_0": 7
          },
          "indices": 12,
          "material": 7,
          "mode": 4
        },
        {
          "attributes": {
            "POSITION": 6,
            "TEXCOORD_0": 7
          },
          "indices": 13,
          "material": 8,
          "mode": 4
        },
        {
          "attributes": {
            "POSITION": 6,
            "TEXCOORD_0": 7
          },
          "indices": 14,
          "material": 9,
          "mode": 4
        },
        {
          "attributes": {
            "POSITION": 6,
            "TEXCOORD_0": 7
          },
          "indices": 15,
          "material": 10,
          "mode": 4
        },
        {
          "attributes": {
            "POSITION": 6,
            "TEXCOORD_0": 7
          },
          "indices": 16,
          "material": 11,
          "mode": 4
        }
      ]
    },
    {
      "name": "Fence_Mesh752_Fence4_Garden1_Component_1_1_Model-Mesh",
      "primitives": [
        {
          "attributes": {
            "POSITION": 17,
            "TEXCOORD_0": 18
          },
          "indices": 19,
          "material": 3,
          "mode": 4
        }
      ]
    }
  ],
  "nodes": [
    {
      "name": "Ground_Mesh753_Garden1_Component_1_1_Model",
      "mesh": 0
    },
    {
      "name": "Flowers_Mesh1014_Group58_Garden2_Component_1_1_Model",
      "mesh": 1
    },
    {
      "name": "Fence_Mesh752_Fence4_Garden1_Component_1_1_Model",
      "mesh": 2
    }
  ],
  "scene": 0,
  "scenes": [
    {
      "nodes": [
        0,
        1,
        2
      ]
    }
  ]
}
