{
  "accessors": [
    {
      "name": "Mesh1 Group1 Rocks1 Model_1_positions",
      "componentType": 5126,
      "count": 258,
      "min": [
        229.24600219726562,
        -146.25,
        -2363.8701171875
      ],
      "max": [
        2399.469970703125,
        611.7420043945312,
        -646.7310180664062
      ],
      "type": "VEC3",
      "bufferView": 0,
      "byteOffset": 0
    },
    {
      "name": "Mesh1 Group1 Rocks1 Model_1_normals",
      "componentType": 5126,
      "count": 258,
      "min": [
        -0.9547899961471558,
        -0.9985569715499878,
        -0.9627339839935303
      ],
      "max": [
        0.9547899961471558,
        0.9985569715499878,
        0.9627339839935303
      ],
      "type": "VEC3",
      "bufferView": 0,
      "byteOffset": 23784
    },
    {
      "name": "Mesh1 Group1 Rocks1 Model_1_texcoords",
      "componentType": 5126,
      "count": 258,
      "min": [
        -12142.900390625,
        -11016.400390625
      ],
      "max": [
        12480.5,
        4672.77978515625
      ],
      "type": "VEC2",
      "bufferView": 1,
      "byteOffset": 0
    },
    {
      "name": "Mesh1 Group1 Rocks1 Model_1_0_indices",
      "componentType": 5123,
      "count": 111,
      "min": [
        0
      ],
      "max": [
        251
      ],
      "type": "SCALAR",
      "bufferView": 2,
      "byteOffset": 0
    },
    {
      "name": "Mesh1 Group1 Rocks1 Model_1_1_indices",
      "componentType": 5123,
      "count": 132,
      "min": [
        3
      ],
      "max": [
        257
      ],
      "type": "SCALAR",
      "bufferView": 2,
      "byteOffset": 224
    },
    {
      "name": "Mesh1 Group1 Rocks1 Model_1_2_indices",
      "componentType": 5123,
      "count": 27,
      "min": [
        6
      ],
      "max": [
        92
      ],
      "type": "SCALAR",
      "bufferView": 2,
      "byteOffset": 488
    },
    {
      "name": "Mesh3 Group2 Rocks1 Model_1_positions",
      "componentType": 5126,
      "count": 306,
      "min": [
        -153.4550018310547,
        -77.65180206298828,
        -1604.0799560546875
      ],
      "max": [
        736.1599731445312,
        984.0029907226562,
        -642.8619995117188
      ],
      "type": "VEC3",
      "bufferView": 0,
      "byteOffset": 3096
    },
    {
      "name": "Mesh3 Group2 Rocks1 Model_1_normals",
      "componentType": 5126,
      "count": 306,
      "min": [
        -0.9094870090484619,
        -0.9995710253715515,
        -0.9971269965171814
      ],
      "max": [
        0.9094870090484619,
        0.9995710253715515,
        0.9971269965171814
      ],
      "type": "VEC3",
      "bufferView": 0,
      "byteOffset": 26880
    },
    {
      "name": "Mesh3 Group2 Rocks1 Model_1_texcoords",
      "componentType": 5126,
      "count": 306,
      "min": [
        -12142.900390625,
        -11016.400390625
      ],
      "max": [
        12480.5,
        5837.169921875
      ],
      "type": "VEC2",
      "bufferView": 1,
      "byteOffset": 2064
    },
    {
      "name": "Mesh3 Group2 Rocks1 Model_1_0_indices",
      "componentType": 5123,
      "count": 168,
      "min": [
        3
      ],
      "max": [
        305
      ],
      "type": "SCALAR",
      "bufferView": 2,
      "byteOffset": 544
    },
    {
      "name": "Mesh3 Group2 Rocks1 Model_1_1_indices",
      "componentType": 5123,
      "count": 147,
      "min": [
        0
      ],
      "max": [
        295
      ],
      "type": "SCALAR",
      "bufferView": 2,
      "byteOffset": 880
    },
    {
      "name": "Mesh3 Group2 Rocks1 Model_1_2_indices",
      "componentType": 5123,
      "count": 27,
      "min": [
        6
      ],
      "max": [
        92
      ],
      "type": "SCALAR",
      "bufferView": 2,
      "byteOffset": 1176
    },
    {
      "name": "Mesh5 Group3 Rocks1 Model_1_positions",
      "componentType": 5126,
      "count": 258,
      "min": [
        -1616.9300537109375,
        -54.436798095703125,
        -1080.97998046875
      ],
      "max": [
        703.8579711914062,
        1010.1799926757812,
        1531.969970703125
      ],
      "type": "VEC3",
      "bufferView": 0,
      "byteOffset": 6768
    },
    {
      "name": "Mesh5 Group3 Rocks1 Model_1_normals",
      "componentType": 5126,
      "count": 258,
      "min": [
        -0.797993004322052,
        -0.9982680082321167,
        -0.9747679829597473
      ],
      "max": [
        0.797993004322052,
        0.9982680082321167,
        0.9747679829597473
      ],
      "type": "VEC3",
      "bufferView": 0,
      "byteOffset": 30552
    },
    {
      "name": "Mesh5 Group3 Rocks1 Model_1_texcoords",
      "componentType": 5126,
      "count": 258,
      "min": [
        -12142.900390625,
        -11016.400390625
      ],
      "max": [
        12480.5,
        4672.77978515625
      ],
      "type": "VEC2",
      "bufferView": 1,
      "byteOffset": 4512
    },
    {
      "name": "Mesh5 Group3 Rocks1 Model_1_0_indices",
      "componentType": 5123,
      "count": 132,
      "min": [
        3
      ],
      "max": [
        257
      ],
      "type": "SCALAR",
      "bufferView": 2,
      "byteOffset": 1232
    },
    {
      "name": "Mesh5 Group3 Rocks1 Model_1_1_indices",
      "componentType": 5123,
      "count": 111,
      "min": [
        0
      ],
      "max": [
        251
      ],
      "type": "SCALAR",
      "bufferView": 2,
      "byteOffset": 1496
    },
    {
      "name": "Mesh5 Group3 Rocks1 Model_1_2_indices",
      "componentType": 5123,
      "count": 27,
      "min": [
        6
      ],
      "max": [
        92
      ],
      "type": "SCALAR",
      "bufferView": 2,
      "byteOffset": 1720
    },
    {
      "name": "Mesh7 Group4 Rocks1 Model_1_positions",
      "componentType": 5126,
      "count": 64,
      "min": [
        -981.9669799804688,
        823.3909912109375,
        330.5369873046875
      ],
      "max": [
        -610.9970092773438,
        1220.02001953125,
        501.33599853515625
      ],
      "type": "VEC3",
      "bufferView": 0,
      "byteOffset": 9864
    },
    {
      "name": "Mesh7 Group4 Rocks1 Model_1_normals",
      "componentType": 5126,
      "count": 64,
      "min": [
        -0.6843640208244324,
        -0.6480439901351929,
        -0.3341920077800751
      ],
      "max": [
        0.6843640208244324,
        0.6480439901351929,
        0.3341920077800751
      ],
      "type": "VEC3",
      "bufferView": 0,
      "byteOffset": 33648
    },
    {
      "name": "Mesh7 Group4 Rocks1 Model_1_texcoords",
      "componentType": 5126,
      "count": 64,
      "min": [
        -17721.19921875,
        -4277.75
      ],
      "max": [
        0,
        1
      ],
      "type": "VEC2",
      "bufferView": 1,
      "byteOffset": 6576
    },
    {
      "name": "Mesh7 Group4 Rocks1 Model_1_0_indices",
      "componentType": 5123,
      "count": 240,
      "min": [
        0
      ],
      "max": [
        63
      ],
      "type": "SCALAR",
      "bufferView": 2,
      "byteOffset": 1776
    },
    {
      "name": "Mesh14 Group5 Rocks1 Model_1_positions",
      "componentType": 5126,
      "count": 258,
      "min": [
        1457.97998046875,
        -83.581298828125,
        -3636.239990234375
      ],
      "max": [
        2946.919921875,
        837.1749877929688,
        -1389.280029296875
      ],
      "type": "VEC3",
      "bufferView": 0,
      "byteOffset": 10632
    },
    {
      "name": "Mesh14 Group5 Rocks1 Model_1_normals",
      "componentType": 5126,
      "count": 258,
      "min": [
        -0.6565080285072327,
        -0.9980059862136841,
        -0.9869009852409363
      ],
      "max": [
        0.6565080285072327,
        0.9980059862136841,
        0.9869009852409363
      ],
      "type": "VEC3",
      "bufferView": 0,
      "byteOffset": 34416
    },
    {
      "name": "Mesh14 Group5 Rocks1 Model_1_texcoords",
      "componentType": 5126,
      "count": 258,
      "min": [
        -12142.900390625,
        -11016.400390625
      ],
      "max": [
        12480.5,
        4672.77978515625
      ],
      "type": "VEC2",
      "bufferView": 1,
      "byteOffset": 7088
    },
    {
      "name": "Mesh14 Group5 Rocks1 Model_1_0_indices",
      "componentType": 5123,
      "count": 111,
      "min": [
        0
      ],
      "max": [
        251
      ],
      "type": "SCALAR",
      "bufferView": 2,
      "byteOffset": 2256
    },
    {
      "name": "Mesh14 Group5 Rocks1 Model_1_1_indices",
      "componentType": 5123,
      "count": 132,
      "min": [
        3
      ],
      "max": [
        257
      ],
      "type": "SCALAR",
      "bufferView": 2,
      "byteOffset": 2480
    },
    {
      "name": "Mesh14 Group5 Rocks1 Model_1_2_indices",
      "componentType": 5123,
      "count": 27,
      "min": [
        6
      ],
      "max": [
        92
      ],
      "type": "SCALAR",
      "bufferView": 2,
      "byteOffset": 2744
    },
    {
      "name": "Mesh16 Group6 Rocks1 Model_1_positions",
      "componentType": 5126,
      "count": 64,
      "min": [
        468.1700134277344,
        -22.033100128173828,
        -1606.219970703125
      ],
      "max": [
        609.5659790039062,
        479.8160095214844,
        -1484.5999755859375
      ],
      "type": "VEC3",
      "bufferView": 0,
      "byteOffset": 13728
    },
    {
      "name": "Mesh16 Group6 Rocks1 Model_1_normals",
      "componentType": 5126,
      "count": 64,
      "min": [
        -0.48379799723625183,
        -0.13982200622558594,
        -0.8639379739761353
      ],
      "max": [
        0.48379799723625183,
        0.13982200622558594,
        0.8639379739761353
      ],
      "type": "VEC3",
      "bufferView": 0,
      "byteOffset": 37512
    },
    {
      "name": "Mesh16 Group6 Rocks1 Model_1_texcoords",
      "componentType": 5126,
      "count": 64,
      "min": [
        -17721.19921875,
        -4277.75
      ],
      "max": [
        0,
        1
      ],
      "type": "VEC2",
      "bufferView": 1,
      "byteOffset": 9152
    },
    {
      "name": "Mesh16 Group6 Rocks1 Model_1_0_indices",
      "componentType": 5123,
      "count": 240,
      "min": [
        0
      ],
      "max": [
        63
      ],
      "type": "SCALAR",
      "bufferView": 2,
      "byteOffset": 2800
    },
    {
      "name": "Mesh23 Group7 Rocks1 Model_1_positions",
      "componentType": 5126,
      "count": 258,
      "min": [
        947.7529907226562,
        -364.875,
        -2908.25
      ],
      "max": [
        2024.3699951171875,
        393.1180114746094,
        -1783.1600341796875
      ],
      "type": "VEC3",
      "bufferView": 0,
      "byteOffset": 14496
    },
    {
      "name": "Mesh23 Group7 Rocks1 Model_1_normals",
      "componentType": 5126,
      "count": 258,
      "min": [
        -0.9112690091133118,
        -0.9996439814567566,
        -0.965283989906311
      ],
      "max": [
        0.9112690091133118,
        0.9996439814567566,
        0.965283989906311
      ],
      "type": "VEC3",
      "bufferView": 0,
      "byteOffset": 38280
    },
    {
      "name": "Mesh23 Group7 Rocks1 Model_1_texcoords",
      "componentType": 5126,
      "count": 258,
      "min": [
        -12142.900390625,
        -11016.400390625
      ],
      "max": [
        12480.5,
        4672.77978515625
      ],
      "type": "VEC2",
      "bufferView": 1,
      "byteOffset": 9664
    },
    {
      "name": "Mesh23 Group7 Rocks1 Model_1_0_indices",
      "componentType": 5123,
      "count": 111,
      "min": [
        0
      ],
      "max": [
        251
      ],
      "type": "SCALAR",
      "bufferView": 2,
      "byteOffset": 3280
    },
    {
      "name": "Mesh23 Group7 Rocks1 Model_1_1_indices",
      "componentType": 5123,
      "count": 132,
      "min": [
        3
      ],
      "max": [
        257
      ],
      "type": "SCALAR",
      "bufferView": 2,
      "byteOffset": 3504
    },
    {
      "name": "Mesh23 Group7 Rocks1 Model_1_2_indices",
      "componentType": 5123,
      "count": 27,
      "min": [
        6
      ],
      "max": [
        92
      ],
      "type": "SCALAR",
      "bufferView": 2,
      "byteOffset": 3768
    },
    {
      "name": "Mesh25 Group8 Rocks1 Model_1_positions",
      "componentType": 5126,
      "count": 258,
      "min": [
        -829.9290161132812,
        111.08999633789062,
        -1874.6800537109375
      ],
      "max": [
        1459.1700439453125,
        1604.3800048828125,
        1216.239990234375
      ],
      "type": "VEC3",
      "bufferView": 0,
      "byteOffset": 17592
    },
    {
      "name": "Mesh25 Group8 Rocks1 Model_1_normals",
      "componentType": 5126,
      "count": 258,
      "min": [
        -0.8821790218353271,
        -0.9979429841041565,
        -0.9551820158958435
      ],
      "max": [
        0.8821790218353271,
        0.9979429841041565,
        0.9551820158958435
      ],
      "type": "VEC3",
      "bufferView": 0,
      "byteOffset": 41376
    },
    {
      "name": "Mesh25 Group8 Rocks1 Model_1_texcoords",
      "componentType": 5126,
      "count": 258,
      "min": [
        -12142.900390625,
        -11016.400390625
      ],
      "max": [
        12480.5,
        4672.77978515625
      ],
      "type": "VEC2",
      "bufferView": 1,
      "byteOffset": 11728
    },
    {
      "name": "Mesh25 Group8 Rocks1 Model_1_0_indices",
      "componentType": 5123,
      "count": 132,
      "min": [
        3
      ],
      "max": [
        257
      ],
      "type": "SCALAR",
      "bufferView": 2,
      "byteOffset": 3824
    },
    {
      "name": "Mesh25 Group8 Rocks1 Model_1_1_indices",
      "componentType": 5123,
      "count": 111,
      "min": [
        0
      ],
      "max": [
        251
      ],
      "type": "SCALAR",
      "bufferView": 2,
      "byteOffset": 4088
    },
    {
      "name": "Mesh25 Group8 Rocks1 Model_1_2_indices",
      "componentType": 5123,
      "count": 27,
      "min": [
        6
      ],
      "max": [
        92
      ],
      "type": "SCALAR",
      "bufferView": 2,
      "byteOffset": 4312
    },
    {
      "name": "Mesh27 Group9 Rocks1 Model_1_positions",
      "componentType": 5126,
      "count": 258,
      "min": [
        -2974.820068359375,
        24.75979995727539,
        501.1860046386719
      ],
      "max": [
        -360.10101318359375,
        1201.8699951171875,
        2689.89990234375
      ],
      "type": "VEC3",
      "bufferView": 0,
      "byteOffset": 20688
    },
    {
      "name": "Mesh27 Group9 Rocks1 Model_1_normals",
      "componentType": 5126,
      "count": 258,
      "min": [
        -0.9087839722633362,
        -0.9974629878997803,
        -0.9232900142669678
      ],
      "max": [
        0.9087839722633362,
        0.9974629878997803,
        0.9232900142669678
      ],
      "type": "VEC3",
      "bufferView": 0,
      "byteOffset": 44472
    },
    {
      "name": "Mesh27 Group9 Rocks1 Model_1_texcoords",
      "componentType": 5126,
      "count": 258,
      "min": [
        -12142.900390625,
        -11016.400390625
      ],
      "max": [
        12480.5,
        4672.77978515625
      ],
      "type": "VEC2",
      "bufferView": 1,
      "byteOffset": 13792
    },
    {
      "name": "Mesh27 Group9 Rocks1 Model_1_0_indices",
      "componentType": 5123,
      "count": 132,
      "min": [
        3
      ],
      "max": [
        257
      ],
      "type": "SCALAR",
      "bufferView": 2,
      "byteOffset": 4368
    },
    {
      "name": "Mesh27 Group9 Rocks1 Model_1_1_indices",
      "componentType": 5123,
      "count": 111,
      "min": [
        0
      ],
      "max": [
        251
      ],
      "type": "SCALAR",
      "bufferView": 2,
      "byteOffset": 4632
    },
    {
      "name": "Mesh27 Group9 Rocks1 Model_1_2_indices",
      "componentType": 5123,
      "count": 27,
      "min": [
        6
      ],
      "max": [
        92
      ],
      "type": "SCALAR",
      "bufferView": 2,
      "byteOffset": 4856
    }
  ],
  "asset": {
    "generator": "obj2gltf",
    "version": "2.0"
  },
  "buffers": [
    {
      "name": "Labryinth ",
      "byteLength": 68336,
      "uri": "data:application/octet-stream;base64,"
    }
  ],
  "bufferViews": [
    {
      "name": "bufferView_0",
      "buffer": 0,
      "byteLength": 47568,
      "byteOffset": 0,
      "byteStride": 12,
      "target": 34962
    },
    {
      "name": "bufferView_1",
      "buffer": 0,
      "byteLength": 15856,
      "byteOffset": 47568,
      "byteStride": 8,
      "target": 34962
    },
    {
      "name": "bufferView_2",
      "buffer": 0,
      "byteLength": 4912,
      "byteOffset": 63424,
      "target": 34963
    }
  ],
  "materials": [
    {
      "name": "Color_M03",
      "pbrMetallicRoughness": {
        "baseColorFactor": [
          0.5,
          0.5,
          0.5,
          1
        ],
        "metallicFactor": 0,
        "roughnessFactor": 1
      },
      "emissiveFactor": [
        0,
        0,
        0
      ],
      "alphaMode": "OPAQUE",
      "doubleSided": false
    },
    {
      "name": "BackColor",
      "pbrMetallicRoughness": {
        "baseColorFactor": [
          0.5,
          0.5,
          0.5,
          1
        ],
        "metallicFactor": 0,
        "roughnessFactor": 1
      },
      "emissiveFactor": [
        0,
        0,
        0
      ],
      "alphaMode": "OPAQUE",
      "doubleSided": false
    },
    {
      "name": "FrontColor",
      "pbrMetallicRoughness": {
        "baseColorFactor": [
          0.5,
          0.5,
          0.5,
          1
        ],
        "metallicFactor": 0,
        "roughnessFactor": 1
      },
      "emissiveFactor": [
        0,
        0,
        0
      ],
      "alphaMode": "OPAQUE",
      "doubleSided": false
    },
    {
      "name": "_6",
      "pbrMetallicRoughness": {
        "baseColorFactor": [
          0.5,
          0.5,
          0.5,
          1
        ],
        "metallicFactor": 0,
        "roughnessFactor": 1
      },
      "emissiveFactor": [
        0,
        0,
        0
      ],
      "alphaMode": "OPAQUE",
      "doubleSided": false
    }
  ],
  "meshes": [
    {
      "name": "Mesh1 Group1 Rocks1 Model_1",
      "primitives": [
        {
          "attributes": {
            "POSITION": 0,
            "NORMAL": 1,
            "TEXCOORD_0": 2
          },
          "indices": 3,
          "material": 0,
          "mode": 4
        },
        {
          "attributes": {
            "POSITION": 0,
            "NORMAL": 1,
            "TEXCOORD_0": 2
          },
          "indices": 4,
          "material": 1,
          "mode": 4
        },
        {
          "attributes": {
            "POSITION": 0,
            "NORMAL": 1,
            "TEXCOORD_0": 2
          },
          "indices": 5,
          "material": 2,
          "mode": 4
        }
      ]
    },
    {
      "name": "Mesh3 Group2 Rocks1 Model_1",
      "primitives": [
        {
          "attributes": {
            "POSITION": 6,
            "NORMAL": 7,
            "TEXCOORD_0": 8
          },
          "indices": 9,
          "material": 1,
          "mode": 4
        },
        {
          "attributes": {
            "POSITION": 6,
            "NORMAL": 7,
            "TEXCOORD_0": 8
          },
          "indices": 10,
          "material": 0,
          "mode": 4
        },
        {
          "attributes": {
            "POSITION": 6,
            "NORMAL": 7,
            "TEXCOORD_0": 8
          },
          "indices": 11,
          "material": 2,
          "mode": 4
        }
      ]
    },
    {
      "name": "Mesh5 Group3 Rocks1 Model_1",
      "primitives": [
        {
          "attributes": {
            "POSITION": 12,
            "NORMAL": 13,
            "TEXCOORD_0": 14
          },
          "indices": 15,
          "material": 1,
          "mode": 4
        },
        {
          "attributes": {
            "POSITION": 12,
            "NORMAL": 13,
            "TEXCOORD_0": 14
          },
          "indices": 16,
          "material": 0,
          "mode": 4
        },
        {
          "attributes": {
            "POSITION": 12,
            "NORMAL": 13,
            "TEXCOORD_0": 14
          },
          "indices": 17,
          "material": 2,
          "mode": 4
        }
      ]
    },
    {
      "name": "Mesh7 Group4 Rocks1 Model_1",
      "primitives": [
        {
          "attributes": {
            "POSITION": 18,
            "NORMAL": 19,
            "TEXCOORD_0": 20
          },
          "indices": 21,
          "material": 3,
          "mode": 4
        }
      ]
    },
    {
      "name": "Mesh14 Group5 Rocks1 Model_1",
      "primitives": [
        {
          "attributes": {
            "POSITION": 22,
            "NORMAL": 23,
            "TEXCOORD_0": 24
          },
          "indices": 25,
          "material": 0,
          "mode": 4
        },
        {
          "attributes": {
            "POSITION": 22,
            "NORMAL": 23,
            "TEXCOORD_0": 24
          },
          "indices": 26,
          "material": 1,
          "mode": 4
        },
        {
          "attributes": {
            "POSITION": 22,
            "NORMAL": 23,
            "TEXCOORD_0": 24
          },
          "indices": 27,
          "material": 2,
          "mode": 4
        }
      ]
    },
    {
      "name": "Mesh16 Group6 Rocks1 Model_1",
      "primitives": [
        {
          "attributes": {
            "POSITION": 28,
            "NORMAL": 29,
            "TEXCOORD_0": 30
          },
          "indices": 31,
          "material": 3,
          "mode": 4
        }
      ]
    },
    {
      "name": "Mesh23 Group7 Rocks1 Model_1",
      "primitives": [
        {
          "attributes": {
            "POSITION": 32,
            "NORMAL": 33,
            "TEXCOORD_0": 34
          },
          "indices": 35,
          "material": 0,
          "mode": 4
        },
        {
          "attributes": {
            "POSITION": 32,
            "NORMAL": 33,
            "TEXCOORD_0": 34
          },
          "indices": 36,
          "material": 1,
          "mode": 4
        },
        {
          "attributes": {
            "POSITION": 32,
            "NORMAL": 33,
            "TEXCOORD_0": 34
          },
          "indices": 37,
          "material": 2,
          "mode": 4
        }
      ]
    },
    {
      "name": "Mesh25 Group8 Rocks1 Model_1",
      "primitives": [
        {
          "attributes": {
            "POSITION": 38,
            "NORMAL": 39,
            "TEXCOORD_0": 40
          },
          "indices": 41,
          "material": 1,
          "mode": 4
        },
        {
          "attributes": {
            "POSITION": 38,
            "NORMAL": 39,
            "TEXCOORD_0": 40
          },
          "indices": 42,
          "material": 0,
          "mode": 4
        },
        {
          "attributes": {
            "POSITION": 38,
            "NORMAL": 39,
            "TEXCOORD_0": 40
          },
          "indices": 43,
          "material": 2,
          "mode": 4
        }
      ]
    },
    {
      "name": "Mesh27 Group9 Rocks1 Model_1",
      "primitives": [
        {
          "attributes": {
            "POSITION": 44,
            "NORMAL": 45,
            "TEXCOORD_0": 46
          },
          "indices": 47,
          "material": 1,
          "mode": 4
        },
        {
          "attributes": {
            "POSITION": 44,
            "NORMAL": 45,
            "TEXCOORD_0": 46
          },
          "indices": 48,
          "material": 0,
          "mode": 4
        },
        {
          "attributes": {
            "POSITION": 44,
            "NORMAL": 45,
            "TEXCOORD_0": 46
          },
          "indices": 49,
          "material": 2,
          "mode": 4
        }
      ]
    }
  ],
  "nodes": [
    {
      "name": "Mesh1 Group1 Rocks1 Model",
      "mesh": 0
    },
    {
      "name": "Mesh3 Group2 Rocks1 Model",
      "mesh": 1
    },
    {
      "name": "Mesh5 Group3 Rocks1 Model",
      "mesh": 2
    },
    {
      "name": "Mesh7 Group4 Rocks1 Model",
      "mesh": 3
    },
    {
      "name": "Mesh14 Group5 Rocks1 Model",
      "mesh": 4
    },
    {
      "name": "Mesh16 Group6 Rocks1 Model",
      "mesh": 5
    },
    {
      "name": "Mesh23 Group7 Rocks1 Model",
      "mesh": 6
    },
    {
      "name": "Mesh25 Group8 Rocks1 Model",
      "mesh": 7
    },
    {
      "name": "Mesh27 Group9 Rocks1 Model",
      "mesh": 8
    }
  ],
  "scene": 0,
  "scenes": [
    {
      "nodes": [
        0,
        1,
        2,
        3,
        4,
        5,
        6,
        7,
        8
      ]
    }
  ]
}
