{
  "accessors": [
    {
      "name": "Model_ski_Untitled.003-Mesh_positions",
      "componentType": 5126,
      "count": 2536,
      "min": [
        -0.19659900665283203,
        0.00031999999191612005,
        -0.35546401143074036
      ],
      "max": [
        0.2216929942369461,
        0.7671549916267395,
        0.47454899549484253
      ],
      "type": "VEC3",
      "bufferView": 0,
      "byteOffset": 0
    },
    {
      "name": "Model_ski_Untitled.003-Mesh_normals",
      "componentType": 5126,
      "count": 2536,
      "min": [
        -0.9998999834060669,
        -0.9998000264167786,
        -0.9998000264167786
      ],
      "max": [
        0.9994000196456909,
        0.9990000128746033,
        0.9968000054359436
      ],
      "type": "VEC3",
      "bufferView": 0,
      "byteOffset": 30432
    },
    {
      "name": "Model_ski_Untitled.003-Mesh_texcoords",
      "componentType": 5126,
      "count": 2536,
      "min": [
        0,
        -3
      ],
      "max": [
        2.3808000087738037,
        1
      ],
      "type": "VEC2",
      "bufferView": 1,
      "byteOffset": 0
    },
    {
      "name": "Model_ski_Untitled.003-Mesh_0_indices",
      "componentType": 5123,
      "count": 840,
      "min": [
        0
      ],
      "max": [
        559
      ],
      "type": "SCALAR",
      "bufferView": 2,
      "byteOffset": 0
    },
    {
      "name": "Model_ski_Untitled.003-Mesh_1_indices",
      "componentType": 5123,
      "count": 216,
      "min": [
        560
      ],
      "max": [
        703
      ],
      "type": "SCALAR",
      "bufferView": 2,
      "byteOffset": 1680
    },
    {
      "name": "Model_ski_Untitled.003-Mesh_2_indices",
      "componentType": 5123,
      "count": 822,
      "min": [
        704
      ],
      "max": [
        1251
      ],
      "type": "SCALAR",
      "bufferView": 2,
      "byteOffset": 2112
    },
    {
      "name": "Model_ski_Untitled.003-Mesh_3_indices",
      "componentType": 5123,
      "count": 864,
      "min": [
        1252
      ],
      "max": [
        1815
      ],
      "type": "SCALAR",
      "bufferView": 2,
      "byteOffset": 3756
    },
    {
      "name": "Model_ski_Untitled.003-Mesh_4_indices",
      "componentType": 5123,
      "count": 348,
      "min": [
        1816
      ],
      "max": [
        2047
      ],
      "type": "SCALAR",
      "bufferView": 2,
      "byteOffset": 5484
    },
    {
      "name": "Model_ski_Untitled.003-Mesh_5_indices",
      "componentType": 5123,
      "count": 564,
      "min": [
        2048
      ],
      "max": [
        2423
      ],
      "type": "SCALAR",
      "bufferView": 2,
      "byteOffset": 6180
    },
    {
      "name": "Model_ski_Untitled.003-Mesh_6_indices",
      "componentType": 5123,
      "count": 168,
      "min": [
        2424
      ],
      "max": [
        2535
      ],
      "type": "SCALAR",
      "bufferView": 2,
      "byteOffset": 7308
    }
  ],
  "asset": {
    "generator": "obj2gltf",
    "version": "2.0"
  },
  "buffers": [
    {
      "name": "Ski_R2",
      "byteLength": 88796,
      "uri": "data:application/octet-stream;base64,"
    }
  ],
  "bufferViews": [
    {
      "name": "bufferView_0",
      "buffer": 0,
      "byteLength": 60864,
      "byteOffset": 0,
      "byteStride": 12,
      "target": 34962
    },
    {
      "name": "bufferView_1",
      "buffer": 0,
      "byteLength": 20288,
      "byteOffset": 60864,
      "byteStride": 8,
      "target": 34962
    },
    {
      "name": "bufferView_2",
      "buffer": 0,
      "byteLength": 7644,
      "byteOffset": 81152,
      "target": 34963
    }
  ],
  "materials": [
    {
      "name": "material_1.001",
      "pbrMetallicRoughness": {
        "baseColorFactor": [
          0.006275,
          0.087843,
          0.131765,
          1
        ],
        "metallicFactor": 0,
        "roughnessFactor": 0.980392157
      },
      "emissiveFactor": [
        0,
        0,
        0
      ],
      "alphaMode": "OPAQUE",
      "doubleSided": false
    },
    {
      "name": "material_2.001",
      "pbrMetallicRoughness": {
        "baseColorFactor": [
          0.589804,
          0.655686,
          0.238431,
          1
        ],
        "metallicFactor": 0,
        "roughnessFactor": 0.980392157
      },
      "emissiveFactor": [
        0,
        0,
        0
      ],
      "alphaMode": "OPAQUE",
      "doubleSided": false
    },
    {
      "name": "07_-_Default.003",
      "pbrMetallicRoughness": {
        "baseColorFactor": [
          0.718431,
          0.505098,
          0.492549,
          1
        ],
        "metallicFactor": 0,
        "roughnessFactor": 0.980392157
      },
      "emissiveFactor": [
        0,
        0,
        0
      ],
      "alphaMode": "OPAQUE",
      "doubleSided": false
    },
    {
      "name": "08_-_Default.003",
      "pbrMetallicRoughness": {
        "baseColorFactor": [
          0.031373,
          0.169412,
          0.153726,
          1
        ],
        "metallicFactor": 0,
        "roughnessFactor": 0.980392157
      },
      "emissiveFactor": [
        0,
        0,
        0
      ],
      "alphaMode": "OPAQUE",
      "doubleSided": false
    },
    {
      "name": "09_-_Default.002",
      "pbrMetallicRoughness": {
        "baseColorFactor": [
          0.075294,
          0.144314,
          0.053333,
          1
        ],
        "metallicFactor": 0,
        "roughnessFactor": 0.980392157
      },
      "emissiveFactor": [
        0,
        0,
        0
      ],
      "alphaMode": "OPAQUE",
      "doubleSided": false
    },
    {
      "name": "13_-_Default.002",
      "pbrMetallicRoughness": {
        "baseColorFactor": [
          0.492549,
          0.467451,
          0.476863,
          1
        ],
        "metallicFactor": 0,
        "roughnessFactor": 0.980392157
      },
      "emissiveFactor": [
        0,
        0,
        0
      ],
      "alphaMode": "OPAQUE",
      "doubleSided": false
    },
    {
      "name": "14_-_Default.002",
      "pbrMetallicRoughness": {
        "baseColorFactor": [
          0.031373,
          0.075294,
          0.313726,
          1
        ],
        "metallicFactor": 0,
        "roughnessFactor": 0.980392157
      },
      "emissiveFactor": [
        0,
        0,
        0
      ],
      "alphaMode": "OPAQUE",
      "doubleSided": false
    }
  ],
  "meshes": [
    {
      "name": "Model_ski_Untitled.003-Mesh",
      "primitives": [
        {
          "attributes": {
            "POSITION": 0,
            "NORMAL": 1,
            "TEXCOORD_0": 2
          },
          "indices": 3,
          "material": 0,
          "mode": 4
        },
        {
          "attributes": {
            "POSITION": 0,
            "NORMAL": 1,
            "TEXCOORD_0": 2
          },
          "indices": 4,
          "material": 1,
          "mode": 4
        },
        {
          "attributes": {
            "POSITION": 0,
            "NORMAL": 1,
            "TEXCOORD_0": 2
          },
          "indices": 5,
          "material": 2,
          "mode": 4
        },
        {
          "attributes": {
            "POSITION": 0,
            "NORMAL": 1,
            "TEXCOORD_0": 2
          },
          "indices": 6,
          "material": 3,
          "mode": 4
        },
        {
          "attributes": {
            "POSITION": 0,
            "NORMAL": 1,
            "TEXCOORD_0": 2
          },
          "indices": 7,
          "material": 4,
          "mode": 4
        },
        {
          "attributes": {
            "POSITION": 0,
            "NORMAL": 1,
            "TEXCOORD_0": 2
          },
          "indices": 8,
          "material": 5,
          "mode": 4
        },
        {
          "attributes": {
            "POSITION": 0,
            "NORMAL": 1,
            "TEXCOORD_0": 2
          },
          "indices": 9,
          "material": 6,
          "mode": 4
        }
      ]
    }
  ],
  "nodes": [
    {
      "name": "Model_ski_Untitled.003",
      "mesh": 0
    }
  ],
  "scene": 0,
  "scenes": [
    {
      "nodes": [
        0
      ]
    }
  ]
}
