{
  "accessors": [
    {
      "name": "Model_boat_Untitled.001-Mesh_positions",
      "componentType": 5126,
      "count": 4596,
      "min": [
        -0.7262780070304871,
        -0.1724739968776703,
        -0.8158339858055115
      ],
      "max": [
        0.6807839870452881,
        0.6243500113487244,
        0.9798439741134644
      ],
      "type": "VEC3",
      "bufferView": 0,
      "byteOffset": 0
    },
    {
      "name": "Model_boat_Untitled.001-Mesh_normals",
      "componentType": 5126,
      "count": 4596,
      "min": [
        -0.9988999962806702,
        -1,
        -1
      ],
      "max": [
        0.9995999932289124,
        1,
        1
      ],
      "type": "VEC3",
      "bufferView": 0,
      "byteOffset": 55152
    },
    {
      "name": "Model_boat_Untitled.001-Mesh_texcoords",
      "componentType": 5126,
      "count": 4596,
      "min": [
        0,
        -3
      ],
      "max": [
        2.3808000087738037,
        1
      ],
      "type": "VEC2",
      "bufferView": 1,
      "byteOffset": 0
    },
    {
      "name": "Model_boat_Untitled.001-Mesh_0_indices",
      "componentType": 5123,
      "count": 336,
      "min": [
        0
      ],
      "max": [
        223
      ],
      "type": "SCALAR",
      "bufferView": 2,
      "byteOffset": 0
    },
    {
      "name": "Model_boat_Untitled.001-Mesh_1_indices",
      "componentType": 5123,
      "count": 132,
      "min": [
        224
      ],
      "max": [
        311
      ],
      "type": "SCALAR",
      "bufferView": 2,
      "byteOffset": 672
    },
    {
      "name": "Model_boat_Untitled.001-Mesh_2_indices",
      "componentType": 5123,
      "count": 282,
      "min": [
        312
      ],
      "max": [
        499
      ],
      "type": "SCALAR",
      "bufferView": 2,
      "byteOffset": 936
    },
    {
      "name": "Model_boat_Untitled.001-Mesh_3_indices",
      "componentType": 5123,
      "count": 1986,
      "min": [
        500
      ],
      "max": [
        1821
      ],
      "type": "SCALAR",
      "bufferView": 2,
      "byteOffset": 1500
    },
    {
      "name": "Model_boat_Untitled.001-Mesh_4_indices",
      "componentType": 5123,
      "count": 2112,
      "min": [
        1822
      ],
      "max": [
        3227
      ],
      "type": "SCALAR",
      "bufferView": 2,
      "byteOffset": 5472
    },
    {
      "name": "Model_boat_Untitled.001-Mesh_5_indices",
      "componentType": 5123,
      "count": 348,
      "min": [
        3228
      ],
      "max": [
        3459
      ],
      "type": "SCALAR",
      "bufferView": 2,
      "byteOffset": 9696
    },
    {
      "name": "Model_boat_Untitled.001-Mesh_6_indices",
      "componentType": 5123,
      "count": 252,
      "min": [
        3460
      ],
      "max": [
        3627
      ],
      "type": "SCALAR",
      "bufferView": 2,
      "byteOffset": 10392
    },
    {
      "name": "Model_boat_Untitled.001-Mesh_7_indices",
      "componentType": 5123,
      "count": 1080,
      "min": [
        3628
      ],
      "max": [
        4347
      ],
      "type": "SCALAR",
      "bufferView": 2,
      "byteOffset": 10896
    },
    {
      "name": "Model_boat_Untitled.001-Mesh_8_indices",
      "componentType": 5123,
      "count": 228,
      "min": [
        4348
      ],
      "max": [
        4499
      ],
      "type": "SCALAR",
      "bufferView": 2,
      "byteOffset": 13056
    },
    {
      "name": "Model_boat_Untitled.001-Mesh_9_indices",
      "componentType": 5123,
      "count": 144,
      "min": [
        4500
      ],
      "max": [
        4595
      ],
      "type": "SCALAR",
      "bufferView": 2,
      "byteOffset": 13512
    }
  ],
  "asset": {
    "generator": "obj2gltf",
    "version": "2.0"
  },
  "buffers": [
    {
      "name": "Rowboat_R2",
      "byteLength": 160872,
      "uri": "data:application/octet-stream;base64,"
    }
  ],
  "bufferViews": [
    {
      "name": "bufferView_0",
      "buffer": 0,
      "byteLength": 110304,
      "byteOffset": 0,
      "byteStride": 12,
      "target": 34962
    },
    {
      "name": "bufferView_1",
      "buffer": 0,
      "byteLength": 36768,
      "byteOffset": 110304,
      "byteStride": 8,
      "target": 34962
    },
    {
      "name": "bufferView_2",
      "buffer": 0,
      "byteLength": 13800,
      "byteOffset": 147072,
      "target": 34963
    }
  ],
  "materials": [
    {
      "name": "material_02",
      "pbrMetallicRoughness": {
        "baseColorFactor": [
          0.015686,
          0.012549,
          0.012549,
          1
        ],
        "metallicFactor": 0,
        "roughnessFactor": 0.980392157
      },
      "emissiveFactor": [
        0,
        0,
        0
      ],
      "alphaMode": "OPAQUE",
      "doubleSided": false
    },
    {
      "name": "material_02.001",
      "pbrMetallicRoughness": {
        "baseColorFactor": [
          0.376471,
          0.053333,
          0.053333,
          1
        ],
        "metallicFactor": 0,
        "roughnessFactor": 0.980392157
      },
      "emissiveFactor": [
        0,
        0,
        0
      ],
      "alphaMode": "OPAQUE",
      "doubleSided": false
    },
    {
      "name": "07_-_Default.001",
      "pbrMetallicRoughness": {
        "baseColorFactor": [
          0.018824,
          0.084706,
          0.326275,
          1
        ],
        "metallicFactor": 0,
        "roughnessFactor": 0.980392157
      },
      "emissiveFactor": [
        0,
        0,
        0
      ],
      "alphaMode": "OPAQUE",
      "doubleSided": false
    },
    {
      "name": "08_-_Default.001",
      "pbrMetallicRoughness": {
        "baseColorFactor": [
          0.693333,
          0.407843,
          0.307451,
          1
        ],
        "metallicFactor": 0,
        "roughnessFactor": 0.980392157
      },
      "emissiveFactor": [
        0,
        0,
        0
      ],
      "alphaMode": "OPAQUE",
      "doubleSided": false
    },
    {
      "name": "09_-_Default.001",
      "pbrMetallicRoughness": {
        "baseColorFactor": [
          0.649412,
          0.467451,
          0.291765,
          1
        ],
        "metallicFactor": 0,
        "roughnessFactor": 0.980392157
      },
      "emissiveFactor": [
        0,
        0,
        0
      ],
      "alphaMode": "OPAQUE",
      "doubleSided": false
    },
    {
      "name": "15_-_Default",
      "pbrMetallicRoughness": {
        "baseColorFactor": [
          0.307451,
          0.16,
          0.106667,
          1
        ],
        "metallicFactor": 0,
        "roughnessFactor": 0.980392157
      },
      "emissiveFactor": [
        0,
        0,
        0
      ],
      "alphaMode": "OPAQUE",
      "doubleSided": false
    },
    {
      "name": "14_-_Default.001",
      "pbrMetallicRoughness": {
        "baseColorFactor": [
          0.762353,
          0.762353,
          0.762353,
          1
        ],
        "metallicFactor": 0,
        "roughnessFactor": 0.980392157
      },
      "emissiveFactor": [
        0,
        0,
        0
      ],
      "alphaMode": "OPAQUE",
      "doubleSided": false
    },
    {
      "name": "13_-_Default.001",
      "pbrMetallicRoughness": {
        "baseColorFactor": [
          0.630588,
          0.131765,
          0.031373,
          1
        ],
        "metallicFactor": 0,
        "roughnessFactor": 0.980392157
      },
      "emissiveFactor": [
        0,
        0,
        0
      ],
      "alphaMode": "OPAQUE",
      "doubleSided": false
    },
    {
      "name": "19_-_Default",
      "pbrMetallicRoughness": {
        "baseColorFactor": [
          0.432941,
          0.276078,
          0.056471,
          1
        ],
        "metallicFactor": 0,
        "roughnessFactor": 0.980392157
      },
      "emissiveFactor": [
        0,
        0,
        0
      ],
      "alphaMode": "OPAQUE",
      "doubleSided": false
    },
    {
      "name": "20_-_Default",
      "pbrMetallicRoughness": {
        "baseColorFactor": [
          0.037647,
          0.087843,
          0.053333,
          1
        ],
        "metallicFactor": 0,
        "roughnessFactor": 0.980392157
      },
      "emissiveFactor": [
        0,
        0,
        0
      ],
      "alphaMode": "OPAQUE",
      "doubleSided": false
    }
  ],
  "meshes": [
    {
      "name": "Model_boat_Untitled.001-Mesh",
      "primitives": [
        {
          "attributes": {
            "POSITION": 0,
            "NORMAL": 1,
            "TEXCOORD_0": 2
          },
          "indices": 3,
          "material": 0,
          "mode": 4
        },
        {
          "attributes": {
            "POSITION": 0,
            "NORMAL": 1,
            "TEXCOORD_0": 2
          },
          "indices": 4,
          "material": 1,
          "mode": 4
        },
        {
          "attributes": {
            "POSITION": 0,
            "NORMAL": 1,
            "TEXCOORD_0": 2
          },
          "indices": 5,
          "material": 2,
          "mode": 4
        },
        {
          "attributes": {
            "POSITION": 0,
            "NORMAL": 1,
            "TEXCOORD_0": 2
          },
          "indices": 6,
          "material": 3,
          "mode": 4
        },
        {
          "attributes": {
            "POSITION": 0,
            "NORMAL": 1,
            "TEXCOORD_0": 2
          },
          "indices": 7,
          "material": 4,
          "mode": 4
        },
        {
          "attributes": {
            "POSITION": 0,
            "NORMAL": 1,
            "TEXCOORD_0": 2
          },
          "indices": 8,
          "material": 5,
          "mode": 4
        },
        {
          "attributes": {
            "POSITION": 0,
            "NORMAL": 1,
            "TEXCOORD_0": 2
          },
          "indices": 9,
          "material": 6,
          "mode": 4
        },
        {
          "attributes": {
            "POSITION": 0,
            "NORMAL": 1,
            "TEXCOORD_0": 2
          },
          "indices": 10,
          "material": 7,
          "mode": 4
        },
        {
          "attributes": {
            "POSITION": 0,
            "NORMAL": 1,
            "TEXCOORD_0": 2
          },
          "indices": 11,
          "material": 8,
          "mode": 4
        },
        {
          "attributes": {
            "POSITION": 0,
            "NORMAL": 1,
            "TEXCOORD_0": 2
          },
          "indices": 12,
          "material": 9,
          "mode": 4
        }
      ]
    }
  ],
  "nodes": [
    {
      "name": "Model_boat_Untitled.001",
      "mesh": 0
    }
  ],
  "scene": 0,
  "scenes": [
    {
      "nodes": [
        0
      ]
    }
  ]
}
