{
    "accessors": [
        {
            "bufferView": 0,
            "byteOffset": 0,
            "componentType": 5126,
            "count": 2664,
            "max": [
                -58.80671691894531,
                -24.855897903442383,
                38.175506591796875
            ],
            "min": [
                -80.73440551757812,
                -58.9460334777832,
                -0.055683135986328125
            ],
            "name": "accessor_buffer_Untitled_POSITION_0",
            "type": "VEC3"
        },
        {
            "bufferView": 1,
            "byteOffset": 0,
            "componentType": 5126,
            "count": 2664,
            "max": [
                0.9997854232788086,
                0.9990835785865784,
                0.9999851584434509
            ],
            "min": [
                -0.999785304069519,
                -0.9949628710746765,
                -1.0
            ],
            "name": "accessor_buffer_Untitled_NORMAL_0",
            "type": "VEC3"
        },
        {
            "bufferView": 2,
            "byteOffset": 0,
            "componentType": 5126,
            "count": 2664,
            "max": [
                2.3807930946350098,
                1.0
            ],
            "min": [
                0.0,
                -3.0
            ],
            "name": "accessor_buffer_Untitled_TEXCOORD_0_0",
            "type": "VEC2"
        },
        {
            "bufferView": 3,
            "byteOffset": 0,
            "componentType": 5123,
            "count": 540,
            "max": [
                2662
            ],
            "min": [
                20
            ],
            "name": "accessor_buffer_Untitled_0",
            "type": "SCALAR"
        },
        {
            "bufferView": 7,
            "byteOffset": 0,
            "componentType": 5123,
            "count": 1350,
            "max": [
                2663
            ],
            "min": [
                0
            ],
            "name": "accessor_buffer_Untitled_4",
            "type": "SCALAR"
        },
        {
            "bufferView": 4,
            "byteOffset": 0,
            "componentType": 5123,
            "count": 372,
            "max": [
                2657
            ],
            "min": [
                9
            ],
            "name": "accessor_buffer_Untitled_1",
            "type": "SCALAR"
        },
        {
            "bufferView": 6,
            "byteOffset": 0,
            "componentType": 5123,
            "count": 1464,
            "max": [
                2660
            ],
            "min": [
                1
            ],
            "name": "accessor_buffer_Untitled_3",
            "type": "SCALAR"
        },
        {
            "bufferView": 5,
            "byteOffset": 0,
            "componentType": 5123,
            "count": 276,
            "max": [
                2653
            ],
            "min": [
                15
            ],
            "name": "accessor_buffer_Untitled_2",
            "type": "SCALAR"
        }
    ],
    "asset": {
        "copyright": "",
        "generator": "blendergltf v1.1.0",
        "version": "2.0"
    },
    "bufferViews": [
        {
            "buffer": 0,
            "byteLength": 31968,
            "byteOffset": 0,
            "byteStride": 12,
            "name": "bufferView_buffer_Untitled_POSITION_0",
            "target": 34962
        },
        {
            "buffer": 1,
            "byteLength": 31968,
            "byteOffset": 0,
            "byteStride": 12,
            "name": "bufferView_buffer_Untitled_NORMAL_0",
            "target": 34962
        },
        {
            "buffer": 2,
            "byteLength": 21312,
            "byteOffset": 0,
            "byteStride": 8,
            "name": "bufferView_buffer_Untitled_TEXCOORD_0_0",
            "target": 34962
        },
        {
            "buffer": 3,
            "byteLength": 1084,
            "byteOffset": 0,
            "name": "bufferView_buffer_Untitled_0",
            "target": 34963
        },
        {
            "buffer": 3,
            "byteLength": 748,
            "byteOffset": 1084,
            "name": "bufferView_buffer_Untitled_1",
            "target": 34963
        },
        {
            "buffer": 3,
            "byteLength": 556,
            "byteOffset": 1832,
            "name": "bufferView_buffer_Untitled_2",
            "target": 34963
        },
        {
            "buffer": 3,
            "byteLength": 2932,
            "byteOffset": 2388,
            "name": "bufferView_buffer_Untitled_3",
            "target": 34963
        },
        {
            "buffer": 3,
            "byteLength": 2704,
            "byteOffset": 5320,
            "name": "bufferView_buffer_Untitled_4",
            "target": 34963
        }
    ],
    "buffers": [
        {
            "byteLength": 31968,
            "name": "buffer_Untitled_POSITION",
            "uri": "data:application/octet-stream;base64,"
        },
        {
            "byteLength": 31968,
            "name": "buffer_Untitled_NORMAL",
            "uri": "data:application/octet-stream;base64,"
        },
        {
            "byteLength": 21312,
            "name": "buffer_Untitled_TEXCOORD_0",
            "uri": "data:application/octet-stream;base64,"
        },
        {
            "byteLength": 8024,
            "name": "buffer_Untitled",
            "uri": "data:application/octet-stream;base64,"
        }
    ],
    "materials": [
        {
            "doubleSided": false,
            "emissiveFactor": [
                0.0,
                0.0,
                0.0
            ],
            "name": "07 - Default",
            "pbrMetallicRoughness": {
                "baseColorFactor": [
                    0.5772549510002136,
                    0.4423529803752899,
                    0.4266667068004608,
                    1.0
                ],
                "metallicFactor": 0.0,
                "roughnessFactor": 1.0
            }
        },
        {
            "doubleSided": false,
            "emissiveFactor": [
                0.0,
                0.0,
                0.0
            ],
            "name": "08 - Default",
            "pbrMetallicRoughness": {
                "baseColorFactor": [
                    0.7152941823005676,
                    0.7152941823005676,
                    0.7152941823005676,
                    1.0
                ],
                "metallicFactor": 0.0,
                "roughnessFactor": 1.0
            }
        },
        {
            "doubleSided": false,
            "emissiveFactor": [
                0.0,
                0.0,
                0.0
            ],
            "name": "09 - Default",
            "pbrMetallicRoughness": {
                "baseColorFactor": [
                    0.1537255048751831,
                    0.2164705991744995,
                    0.1662745326757431,
                    1.0
                ],
                "metallicFactor": 0.0,
                "roughnessFactor": 1.0
            }
        },
        {
            "doubleSided": false,
            "emissiveFactor": [
                0.0,
                0.0,
                0.0
            ],
            "name": "13 - Default",
            "pbrMetallicRoughness": {
                "baseColorFactor": [
                    0.0501960813999176,
                    0.0470588281750679,
                    0.0470588281750679,
                    1.0
                ],
                "metallicFactor": 0.0,
                "roughnessFactor": 1.0
            }
        },
        {
            "doubleSided": false,
            "emissiveFactor": [
                0.0,
                0.0,
                0.0
            ],
            "name": "14 - Default",
            "pbrMetallicRoughness": {
                "baseColorFactor": [
                    0.1003921627998352,
                    0.2447059005498886,
                    0.0658823549747467,
                    1.0
                ],
                "metallicFactor": 0.0,
                "roughnessFactor": 1.0
            }
        },
        {
            "doubleSided": false,
            "emissiveFactor": [
                0.0,
                0.0,
                0.0
            ],
            "name": "Material #42 Slot #10",
            "pbrMetallicRoughness": {
                "baseColorFactor": [
                    0.0,
                    0.0,
                    0.0,
                    1.0
                ],
                "metallicFactor": 0.0,
                "roughnessFactor": 1.0
            }
        },
        {
            "doubleSided": false,
            "emissiveFactor": [
                0.0,
                0.0,
                0.0
            ],
            "name": "Material #42 Slot #8",
            "pbrMetallicRoughness": {
                "baseColorFactor": [
                    0.0,
                    0.0,
                    0.0,
                    1.0
                ],
                "metallicFactor": 0.0,
                "roughnessFactor": 1.0
            }
        },
        {
            "doubleSided": false,
            "emissiveFactor": [
                0.0,
                0.0,
                0.0
            ],
            "name": "Material #42 Slot #9",
            "pbrMetallicRoughness": {
                "baseColorFactor": [
                    0.0,
                    0.0,
                    0.0,
                    1.0
                ],
                "metallicFactor": 0.0,
                "roughnessFactor": 1.0
            }
        },
        {
            "doubleSided": false,
            "emissiveFactor": [
                0.0,
                0.0,
                0.0
            ],
            "name": "material 1",
            "pbrMetallicRoughness": {
                "baseColorFactor": [
                    0.1286274641752243,
                    0.1098039299249649,
                    0.0941176563501358,
                    1.0
                ],
                "metallicFactor": 0.0,
                "roughnessFactor": 1.0
            }
        },
        {
            "doubleSided": false,
            "emissiveFactor": [
                0.0,
                0.0,
                0.0
            ],
            "name": "material 2",
            "pbrMetallicRoughness": {
                "baseColorFactor": [
                    0.3607843518257141,
                    0.062745101749897,
                    0.062745101749897,
                    1.0
                ],
                "metallicFactor": 0.0,
                "roughnessFactor": 1.0
            }
        }
    ],
    "meshes": [
        {
            "name": "Untitled",
            "primitives": [
                {
                    "attributes": {
                        "NORMAL": 1,
                        "POSITION": 0,
                        "TEXCOORD_0": 2
                    },
                    "indices": 3,
                    "material": 1,
                    "mode": 4
                },
                {
                    "attributes": {
                        "NORMAL": 1,
                        "POSITION": 0,
                        "TEXCOORD_0": 2
                    },
                    "indices": 5,
                    "material": 9,
                    "mode": 4
                },
                {
                    "attributes": {
                        "NORMAL": 1,
                        "POSITION": 0,
                        "TEXCOORD_0": 2
                    },
                    "indices": 7,
                    "material": 2,
                    "mode": 4
                },
                {
                    "attributes": {
                        "NORMAL": 1,
                        "POSITION": 0,
                        "TEXCOORD_0": 2
                    },
                    "indices": 6,
                    "material": 3,
                    "mode": 4
                },
                {
                    "attributes": {
                        "NORMAL": 1,
                        "POSITION": 0,
                        "TEXCOORD_0": 2
                    },
                    "indices": 4,
                    "material": 0,
                    "mode": 4
                }
            ]
        }
    ],
    "nodes": [
        {
            "mesh": 0,
            "name": "Model_climbing",
            "rotation": [
                -2.1855694143368964e-08,
                0.0,
                0.0,
                1.0
            ],
            "scale": [
                0.02539999969303608,
                0.02539999969303608,
                0.02539999969303608
            ],
            "translation": [
                1.7264484167099,
                0.7690467834472656,
                -3.361610367846879e-08
            ]
        },
        {
            "children": [
                0
            ],
            "matrix": [
                -1.0,
                0.0,
                0.0,
                0.0,
                0.0,
                0.0,
                1.0,
                0.0,
                0.0,
                1.0,
                0.0,
                0.0,
                0.0,
                0.0,
                0.0,
                1.0
            ],
            "name": "Scene_root"
        }
    ],
    "scene": 0,
    "scenes": [
        {
            "extras": {
                "background_color": [
                    0.05087608844041824,
                    0.05087608844041824,
                    0.05087608844041824
                ],
                "frames_per_second": 30
            },
            "name": "Scene",
            "nodes": [
                1
            ]
        }
    ]
}
