{
  "accessors": [
    {
      "name": "Model_climbing_Untitled-Mesh_positions",
      "componentType": 5126,
      "count": 2662,
      "min": [
        -0.32420599460601807,
        -0.0014140000566840172,
        -0.13770699501037598
      ],
      "max": [
        0.23275800049304962,
        1.9579349756240845,
        0.4748370051383972
      ],
      "type": "VEC3",
      "bufferView": 0,
      "byteOffset": 0
    },
    {
      "name": "Model_climbing_Untitled-Mesh_normals",
      "componentType": 5126,
      "count": 2662,
      "min": [
        -0.9998999834060669,
        -1,
        -0.9991000294685364
      ],
      "max": [
        0.9998999834060669,
        1,
        0.9950000047683716
      ],
      "type": "VEC3",
      "bufferView": 0,
      "byteOffset": 31944
    },
    {
      "name": "Model_climbing_Untitled-Mesh_texcoords",
      "componentType": 5126,
      "count": 2662,
      "min": [
        0,
        -3
      ],
      "max": [
        2.3808000087738037,
        1
      ],
      "type": "VEC2",
      "bufferView": 1,
      "byteOffset": 0
    },
    {
      "name": "Model_climbing_Untitled-Mesh_0_indices",
      "componentType": 5123,
      "count": 372,
      "min": [
        0
      ],
      "max": [
        247
      ],
      "type": "SCALAR",
      "bufferView": 2,
      "byteOffset": 0
    },
    {
      "name": "Model_climbing_Untitled-Mesh_1_indices",
      "componentType": 5123,
      "count": 1350,
      "min": [
        248
      ],
      "max": [
        1143
      ],
      "type": "SCALAR",
      "bufferView": 2,
      "byteOffset": 744
    },
    {
      "name": "Model_climbing_Untitled-Mesh_2_indices",
      "componentType": 5123,
      "count": 540,
      "min": [
        1144
      ],
      "max": [
        1503
      ],
      "type": "SCALAR",
      "bufferView": 2,
      "byteOffset": 3444
    },
    {
      "name": "Model_climbing_Untitled-Mesh_3_indices",
      "componentType": 5123,
      "count": 276,
      "min": [
        1504
      ],
      "max": [
        1687
      ],
      "type": "SCALAR",
      "bufferView": 2,
      "byteOffset": 4524
    },
    {
      "name": "Model_climbing_Untitled-Mesh_4_indices",
      "componentType": 5123,
      "count": 1464,
      "min": [
        1688
      ],
      "max": [
        2661
      ],
      "type": "SCALAR",
      "bufferView": 2,
      "byteOffset": 5076
    }
  ],
  "asset": {
    "generator": "obj2gltf",
    "version": "2.0"
  },
  "buffers": [
    {
      "name": "Climbing",
      "byteLength": 93188,
      "uri": "data:application/octet-stream;base64,"
    }
  ],
  "bufferViews": [
    {
      "name": "bufferView_0",
      "buffer": 0,
      "byteLength": 63888,
      "byteOffset": 0,
      "byteStride": 12,
      "target": 34962
    },
    {
      "name": "bufferView_1",
      "buffer": 0,
      "byteLength": 21296,
      "byteOffset": 63888,
      "byteStride": 8,
      "target": 34962
    },
    {
      "name": "bufferView_2",
      "buffer": 0,
      "byteLength": 8004,
      "byteOffset": 85184,
      "target": 34963
    }
  ],
  "materials": [
    {
      "name": "material_2",
      "pbrMetallicRoughness": {
        "baseColorFactor": [
          0.360784,
          0.062745,
          0.062745,
          1
        ],
        "metallicFactor": 0,
        "roughnessFactor": 0.980392157
      },
      "emissiveFactor": [
        0,
        0,
        0
      ],
      "alphaMode": "OPAQUE",
      "doubleSided": false
    },
    {
      "name": "07_-_Default",
      "pbrMetallicRoughness": {
        "baseColorFactor": [
          0.577255,
          0.442353,
          0.426667,
          1
        ],
        "metallicFactor": 0,
        "roughnessFactor": 0.980392157
      },
      "emissiveFactor": [
        0,
        0,
        0
      ],
      "alphaMode": "OPAQUE",
      "doubleSided": false
    },
    {
      "name": "08_-_Default",
      "pbrMetallicRoughness": {
        "baseColorFactor": [
          0.715294,
          0.715294,
          0.715294,
          1
        ],
        "metallicFactor": 0,
        "roughnessFactor": 0.980392157
      },
      "emissiveFactor": [
        0,
        0,
        0
      ],
      "alphaMode": "OPAQUE",
      "doubleSided": false
    },
    {
      "name": "09_-_Default",
      "pbrMetallicRoughness": {
        "baseColorFactor": [
          0.153726,
          0.216471,
          0.166275,
          1
        ],
        "metallicFactor": 0,
        "roughnessFactor": 0.980392157
      },
      "emissiveFactor": [
        0,
        0,
        0
      ],
      "alphaMode": "OPAQUE",
      "doubleSided": false
    },
    {
      "name": "13_-_Default",
      "pbrMetallicRoughness": {
        "baseColorFactor": [
          0.050196,
          0.047059,
          0.047059,
          1
        ],
        "metallicFactor": 0,
        "roughnessFactor": 0.980392157
      },
      "emissiveFactor": [
        0,
        0,
        0
      ],
      "alphaMode": "OPAQUE",
      "doubleSided": false
    }
  ],
  "meshes": [
    {
      "name": "Model_climbing_Untitled-Mesh",
      "primitives": [
        {
          "attributes": {
            "POSITION": 0,
            "NORMAL": 1,
            "TEXCOORD_0": 2
          },
          "indices": 3,
          "material": 0,
          "mode": 4
        },
        {
          "attributes": {
            "POSITION": 0,
            "NORMAL": 1,
            "TEXCOORD_0": 2
          },
          "indices": 4,
          "material": 1,
          "mode": 4
        },
        {
          "attributes": {
            "POSITION": 0,
            "NORMAL": 1,
            "TEXCOORD_0": 2
          },
          "indices": 5,
          "material": 2,
          "mode": 4
        },
        {
          "attributes": {
            "POSITION": 0,
            "NORMAL": 1,
            "TEXCOORD_0": 2
          },
          "indices": 6,
          "material": 3,
          "mode": 4
        },
        {
          "attributes": {
            "POSITION": 0,
            "NORMAL": 1,
            "TEXCOORD_0": 2
          },
          "indices": 7,
          "material": 4,
          "mode": 4
        }
      ]
    }
  ],
  "nodes": [
    {
      "name": "Model_climbing_Untitled",
      "mesh": 0
    }
  ],
  "scene": 0,
  "scenes": [
    {
      "nodes": [
        0
      ]
    }
  ]
}
